%TF.GenerationSoftware,KiCad,Pcbnew,8.0.8*%
%TF.CreationDate,2025-02-04T10:54:44-07:00*%
%TF.ProjectId,Uno_Shield_ThermoPro,556e6f5f-5368-4696-956c-645f54686572,rev?*%
%TF.SameCoordinates,Original*%
%TF.FileFunction,Legend,Top*%
%TF.FilePolarity,Positive*%
%FSLAX46Y46*%
G04 Gerber Fmt 4.6, Leading zero omitted, Abs format (unit mm)*
G04 Created by KiCad (PCBNEW 8.0.8) date 2025-02-04 10:54:44*
%MOMM*%
%LPD*%
G01*
G04 APERTURE LIST*
%ADD10C,0.150000*%
%ADD11C,0.100000*%
%ADD12C,0.175000*%
%ADD13C,0.120000*%
G04 APERTURE END LIST*
D10*
X100693922Y-47149931D02*
X101265350Y-47149931D01*
X100979636Y-48149931D02*
X100979636Y-47149931D01*
X101503446Y-47483264D02*
X101693922Y-48149931D01*
X101693922Y-48149931D02*
X101884398Y-47673740D01*
X101884398Y-47673740D02*
X102074874Y-48149931D01*
X102074874Y-48149931D02*
X102265350Y-47483264D01*
X102551065Y-47483264D02*
X102789160Y-48149931D01*
X103027255Y-47483264D02*
X102789160Y-48149931D01*
X102789160Y-48149931D02*
X102693922Y-48388026D01*
X102693922Y-48388026D02*
X102646303Y-48435645D01*
X102646303Y-48435645D02*
X102551065Y-48483264D01*
X103551065Y-48149931D02*
X103455827Y-48102312D01*
X103455827Y-48102312D02*
X103408208Y-48007073D01*
X103408208Y-48007073D02*
X103408208Y-47149931D01*
X104360589Y-48149931D02*
X104360589Y-47626121D01*
X104360589Y-47626121D02*
X104312970Y-47530883D01*
X104312970Y-47530883D02*
X104217732Y-47483264D01*
X104217732Y-47483264D02*
X104027256Y-47483264D01*
X104027256Y-47483264D02*
X103932018Y-47530883D01*
X104360589Y-48102312D02*
X104265351Y-48149931D01*
X104265351Y-48149931D02*
X104027256Y-48149931D01*
X104027256Y-48149931D02*
X103932018Y-48102312D01*
X103932018Y-48102312D02*
X103884399Y-48007073D01*
X103884399Y-48007073D02*
X103884399Y-47911835D01*
X103884399Y-47911835D02*
X103932018Y-47816597D01*
X103932018Y-47816597D02*
X104027256Y-47768978D01*
X104027256Y-47768978D02*
X104265351Y-47768978D01*
X104265351Y-47768978D02*
X104360589Y-47721359D01*
X105932018Y-47626121D02*
X106074875Y-47673740D01*
X106074875Y-47673740D02*
X106122494Y-47721359D01*
X106122494Y-47721359D02*
X106170113Y-47816597D01*
X106170113Y-47816597D02*
X106170113Y-47959454D01*
X106170113Y-47959454D02*
X106122494Y-48054692D01*
X106122494Y-48054692D02*
X106074875Y-48102312D01*
X106074875Y-48102312D02*
X105979637Y-48149931D01*
X105979637Y-48149931D02*
X105598685Y-48149931D01*
X105598685Y-48149931D02*
X105598685Y-47149931D01*
X105598685Y-47149931D02*
X105932018Y-47149931D01*
X105932018Y-47149931D02*
X106027256Y-47197550D01*
X106027256Y-47197550D02*
X106074875Y-47245169D01*
X106074875Y-47245169D02*
X106122494Y-47340407D01*
X106122494Y-47340407D02*
X106122494Y-47435645D01*
X106122494Y-47435645D02*
X106074875Y-47530883D01*
X106074875Y-47530883D02*
X106027256Y-47578502D01*
X106027256Y-47578502D02*
X105932018Y-47626121D01*
X105932018Y-47626121D02*
X105598685Y-47626121D01*
X106741542Y-48149931D02*
X106646304Y-48102312D01*
X106646304Y-48102312D02*
X106598685Y-48054692D01*
X106598685Y-48054692D02*
X106551066Y-47959454D01*
X106551066Y-47959454D02*
X106551066Y-47673740D01*
X106551066Y-47673740D02*
X106598685Y-47578502D01*
X106598685Y-47578502D02*
X106646304Y-47530883D01*
X106646304Y-47530883D02*
X106741542Y-47483264D01*
X106741542Y-47483264D02*
X106884399Y-47483264D01*
X106884399Y-47483264D02*
X106979637Y-47530883D01*
X106979637Y-47530883D02*
X107027256Y-47578502D01*
X107027256Y-47578502D02*
X107074875Y-47673740D01*
X107074875Y-47673740D02*
X107074875Y-47959454D01*
X107074875Y-47959454D02*
X107027256Y-48054692D01*
X107027256Y-48054692D02*
X106979637Y-48102312D01*
X106979637Y-48102312D02*
X106884399Y-48149931D01*
X106884399Y-48149931D02*
X106741542Y-48149931D01*
X107503447Y-48149931D02*
X107503447Y-47483264D01*
X107503447Y-47673740D02*
X107551066Y-47578502D01*
X107551066Y-47578502D02*
X107598685Y-47530883D01*
X107598685Y-47530883D02*
X107693923Y-47483264D01*
X107693923Y-47483264D02*
X107789161Y-47483264D01*
X108551066Y-48102312D02*
X108455828Y-48149931D01*
X108455828Y-48149931D02*
X108265352Y-48149931D01*
X108265352Y-48149931D02*
X108170114Y-48102312D01*
X108170114Y-48102312D02*
X108122495Y-48054692D01*
X108122495Y-48054692D02*
X108074876Y-47959454D01*
X108074876Y-47959454D02*
X108074876Y-47673740D01*
X108074876Y-47673740D02*
X108122495Y-47578502D01*
X108122495Y-47578502D02*
X108170114Y-47530883D01*
X108170114Y-47530883D02*
X108265352Y-47483264D01*
X108265352Y-47483264D02*
X108455828Y-47483264D01*
X108455828Y-47483264D02*
X108551066Y-47530883D01*
X108979638Y-48149931D02*
X108979638Y-47149931D01*
X109074876Y-47768978D02*
X109360590Y-48149931D01*
X109360590Y-47483264D02*
X108979638Y-47864216D01*
X100693922Y-48759875D02*
X101027255Y-49759875D01*
X101027255Y-49759875D02*
X101360588Y-48759875D01*
X102979636Y-49759875D02*
X102408208Y-49759875D01*
X102693922Y-49759875D02*
X102693922Y-48759875D01*
X102693922Y-48759875D02*
X102598684Y-48902732D01*
X102598684Y-48902732D02*
X102503446Y-48997970D01*
X102503446Y-48997970D02*
X102408208Y-49045589D01*
X103408208Y-49664636D02*
X103455827Y-49712256D01*
X103455827Y-49712256D02*
X103408208Y-49759875D01*
X103408208Y-49759875D02*
X103360589Y-49712256D01*
X103360589Y-49712256D02*
X103408208Y-49664636D01*
X103408208Y-49664636D02*
X103408208Y-49759875D01*
X104074874Y-48759875D02*
X104170112Y-48759875D01*
X104170112Y-48759875D02*
X104265350Y-48807494D01*
X104265350Y-48807494D02*
X104312969Y-48855113D01*
X104312969Y-48855113D02*
X104360588Y-48950351D01*
X104360588Y-48950351D02*
X104408207Y-49140827D01*
X104408207Y-49140827D02*
X104408207Y-49378922D01*
X104408207Y-49378922D02*
X104360588Y-49569398D01*
X104360588Y-49569398D02*
X104312969Y-49664636D01*
X104312969Y-49664636D02*
X104265350Y-49712256D01*
X104265350Y-49712256D02*
X104170112Y-49759875D01*
X104170112Y-49759875D02*
X104074874Y-49759875D01*
X104074874Y-49759875D02*
X103979636Y-49712256D01*
X103979636Y-49712256D02*
X103932017Y-49664636D01*
X103932017Y-49664636D02*
X103884398Y-49569398D01*
X103884398Y-49569398D02*
X103836779Y-49378922D01*
X103836779Y-49378922D02*
X103836779Y-49140827D01*
X103836779Y-49140827D02*
X103884398Y-48950351D01*
X103884398Y-48950351D02*
X103932017Y-48855113D01*
X103932017Y-48855113D02*
X103979636Y-48807494D01*
X103979636Y-48807494D02*
X104074874Y-48759875D01*
X101027255Y-50369819D02*
X101122493Y-50369819D01*
X101122493Y-50369819D02*
X101217731Y-50417438D01*
X101217731Y-50417438D02*
X101265350Y-50465057D01*
X101265350Y-50465057D02*
X101312969Y-50560295D01*
X101312969Y-50560295D02*
X101360588Y-50750771D01*
X101360588Y-50750771D02*
X101360588Y-50988866D01*
X101360588Y-50988866D02*
X101312969Y-51179342D01*
X101312969Y-51179342D02*
X101265350Y-51274580D01*
X101265350Y-51274580D02*
X101217731Y-51322200D01*
X101217731Y-51322200D02*
X101122493Y-51369819D01*
X101122493Y-51369819D02*
X101027255Y-51369819D01*
X101027255Y-51369819D02*
X100932017Y-51322200D01*
X100932017Y-51322200D02*
X100884398Y-51274580D01*
X100884398Y-51274580D02*
X100836779Y-51179342D01*
X100836779Y-51179342D02*
X100789160Y-50988866D01*
X100789160Y-50988866D02*
X100789160Y-50750771D01*
X100789160Y-50750771D02*
X100836779Y-50560295D01*
X100836779Y-50560295D02*
X100884398Y-50465057D01*
X100884398Y-50465057D02*
X100932017Y-50417438D01*
X100932017Y-50417438D02*
X101027255Y-50369819D01*
X101741541Y-50465057D02*
X101789160Y-50417438D01*
X101789160Y-50417438D02*
X101884398Y-50369819D01*
X101884398Y-50369819D02*
X102122493Y-50369819D01*
X102122493Y-50369819D02*
X102217731Y-50417438D01*
X102217731Y-50417438D02*
X102265350Y-50465057D01*
X102265350Y-50465057D02*
X102312969Y-50560295D01*
X102312969Y-50560295D02*
X102312969Y-50655533D01*
X102312969Y-50655533D02*
X102265350Y-50798390D01*
X102265350Y-50798390D02*
X101693922Y-51369819D01*
X101693922Y-51369819D02*
X102312969Y-51369819D01*
X103455826Y-50322200D02*
X102598684Y-51607914D01*
X103979636Y-50369819D02*
X104074874Y-50369819D01*
X104074874Y-50369819D02*
X104170112Y-50417438D01*
X104170112Y-50417438D02*
X104217731Y-50465057D01*
X104217731Y-50465057D02*
X104265350Y-50560295D01*
X104265350Y-50560295D02*
X104312969Y-50750771D01*
X104312969Y-50750771D02*
X104312969Y-50988866D01*
X104312969Y-50988866D02*
X104265350Y-51179342D01*
X104265350Y-51179342D02*
X104217731Y-51274580D01*
X104217731Y-51274580D02*
X104170112Y-51322200D01*
X104170112Y-51322200D02*
X104074874Y-51369819D01*
X104074874Y-51369819D02*
X103979636Y-51369819D01*
X103979636Y-51369819D02*
X103884398Y-51322200D01*
X103884398Y-51322200D02*
X103836779Y-51274580D01*
X103836779Y-51274580D02*
X103789160Y-51179342D01*
X103789160Y-51179342D02*
X103741541Y-50988866D01*
X103741541Y-50988866D02*
X103741541Y-50750771D01*
X103741541Y-50750771D02*
X103789160Y-50560295D01*
X103789160Y-50560295D02*
X103836779Y-50465057D01*
X103836779Y-50465057D02*
X103884398Y-50417438D01*
X103884398Y-50417438D02*
X103979636Y-50369819D01*
X105170112Y-50703152D02*
X105170112Y-51369819D01*
X104932017Y-50322200D02*
X104693922Y-51036485D01*
X104693922Y-51036485D02*
X105312969Y-51036485D01*
X106408207Y-50322200D02*
X105551065Y-51607914D01*
X106693922Y-50465057D02*
X106741541Y-50417438D01*
X106741541Y-50417438D02*
X106836779Y-50369819D01*
X106836779Y-50369819D02*
X107074874Y-50369819D01*
X107074874Y-50369819D02*
X107170112Y-50417438D01*
X107170112Y-50417438D02*
X107217731Y-50465057D01*
X107217731Y-50465057D02*
X107265350Y-50560295D01*
X107265350Y-50560295D02*
X107265350Y-50655533D01*
X107265350Y-50655533D02*
X107217731Y-50798390D01*
X107217731Y-50798390D02*
X106646303Y-51369819D01*
X106646303Y-51369819D02*
X107265350Y-51369819D01*
X108170112Y-50369819D02*
X107693922Y-50369819D01*
X107693922Y-50369819D02*
X107646303Y-50846009D01*
X107646303Y-50846009D02*
X107693922Y-50798390D01*
X107693922Y-50798390D02*
X107789160Y-50750771D01*
X107789160Y-50750771D02*
X108027255Y-50750771D01*
X108027255Y-50750771D02*
X108122493Y-50798390D01*
X108122493Y-50798390D02*
X108170112Y-50846009D01*
X108170112Y-50846009D02*
X108217731Y-50941247D01*
X108217731Y-50941247D02*
X108217731Y-51179342D01*
X108217731Y-51179342D02*
X108170112Y-51274580D01*
X108170112Y-51274580D02*
X108122493Y-51322200D01*
X108122493Y-51322200D02*
X108027255Y-51369819D01*
X108027255Y-51369819D02*
X107789160Y-51369819D01*
X107789160Y-51369819D02*
X107693922Y-51322200D01*
X107693922Y-51322200D02*
X107646303Y-51274580D01*
X103510000Y-82630000D02*
X123510000Y-82630000D01*
X123510000Y-97630000D01*
X103510000Y-97630000D01*
X103510000Y-82630000D01*
D11*
X102250000Y-52250000D02*
X129550000Y-52250000D01*
X129550000Y-80050000D01*
X102250000Y-80050000D01*
X102250000Y-52250000D01*
D12*
X119631090Y-75775345D02*
X119592995Y-75851535D01*
X119592995Y-75851535D02*
X119592995Y-75965821D01*
X119592995Y-75965821D02*
X119631090Y-76080107D01*
X119631090Y-76080107D02*
X119707280Y-76156297D01*
X119707280Y-76156297D02*
X119783471Y-76194392D01*
X119783471Y-76194392D02*
X119935852Y-76232488D01*
X119935852Y-76232488D02*
X120050138Y-76232488D01*
X120050138Y-76232488D02*
X120202519Y-76194392D01*
X120202519Y-76194392D02*
X120278709Y-76156297D01*
X120278709Y-76156297D02*
X120354900Y-76080107D01*
X120354900Y-76080107D02*
X120392995Y-75965821D01*
X120392995Y-75965821D02*
X120392995Y-75889630D01*
X120392995Y-75889630D02*
X120354900Y-75775345D01*
X120354900Y-75775345D02*
X120316804Y-75737249D01*
X120316804Y-75737249D02*
X120050138Y-75737249D01*
X120050138Y-75737249D02*
X120050138Y-75889630D01*
X120392995Y-75394392D02*
X119592995Y-75394392D01*
X119592995Y-75394392D02*
X120392995Y-74937249D01*
X120392995Y-74937249D02*
X119592995Y-74937249D01*
X120392995Y-74556297D02*
X119592995Y-74556297D01*
X119592995Y-74556297D02*
X119592995Y-74365821D01*
X119592995Y-74365821D02*
X119631090Y-74251535D01*
X119631090Y-74251535D02*
X119707280Y-74175345D01*
X119707280Y-74175345D02*
X119783471Y-74137250D01*
X119783471Y-74137250D02*
X119935852Y-74099154D01*
X119935852Y-74099154D02*
X120050138Y-74099154D01*
X120050138Y-74099154D02*
X120202519Y-74137250D01*
X120202519Y-74137250D02*
X120278709Y-74175345D01*
X120278709Y-74175345D02*
X120354900Y-74251535D01*
X120354900Y-74251535D02*
X120392995Y-74365821D01*
X120392995Y-74365821D02*
X120392995Y-74556297D01*
X113892995Y-76194392D02*
X113092995Y-76194392D01*
X113169185Y-75851536D02*
X113131090Y-75813440D01*
X113131090Y-75813440D02*
X113092995Y-75737250D01*
X113092995Y-75737250D02*
X113092995Y-75546774D01*
X113092995Y-75546774D02*
X113131090Y-75470583D01*
X113131090Y-75470583D02*
X113169185Y-75432488D01*
X113169185Y-75432488D02*
X113245376Y-75394393D01*
X113245376Y-75394393D02*
X113321566Y-75394393D01*
X113321566Y-75394393D02*
X113435852Y-75432488D01*
X113435852Y-75432488D02*
X113892995Y-75889631D01*
X113892995Y-75889631D02*
X113892995Y-75394393D01*
X113816804Y-74594392D02*
X113854900Y-74632488D01*
X113854900Y-74632488D02*
X113892995Y-74746773D01*
X113892995Y-74746773D02*
X113892995Y-74822964D01*
X113892995Y-74822964D02*
X113854900Y-74937250D01*
X113854900Y-74937250D02*
X113778709Y-75013440D01*
X113778709Y-75013440D02*
X113702519Y-75051535D01*
X113702519Y-75051535D02*
X113550138Y-75089631D01*
X113550138Y-75089631D02*
X113435852Y-75089631D01*
X113435852Y-75089631D02*
X113283471Y-75051535D01*
X113283471Y-75051535D02*
X113207280Y-75013440D01*
X113207280Y-75013440D02*
X113131090Y-74937250D01*
X113131090Y-74937250D02*
X113092995Y-74822964D01*
X113092995Y-74822964D02*
X113092995Y-74746773D01*
X113092995Y-74746773D02*
X113131090Y-74632488D01*
X113131090Y-74632488D02*
X113169185Y-74594392D01*
X113969185Y-74442012D02*
X113969185Y-73832488D01*
X113854900Y-73680107D02*
X113892995Y-73565821D01*
X113892995Y-73565821D02*
X113892995Y-73375345D01*
X113892995Y-73375345D02*
X113854900Y-73299154D01*
X113854900Y-73299154D02*
X113816804Y-73261059D01*
X113816804Y-73261059D02*
X113740614Y-73222964D01*
X113740614Y-73222964D02*
X113664423Y-73222964D01*
X113664423Y-73222964D02*
X113588233Y-73261059D01*
X113588233Y-73261059D02*
X113550138Y-73299154D01*
X113550138Y-73299154D02*
X113512042Y-73375345D01*
X113512042Y-73375345D02*
X113473947Y-73527726D01*
X113473947Y-73527726D02*
X113435852Y-73603916D01*
X113435852Y-73603916D02*
X113397757Y-73642011D01*
X113397757Y-73642011D02*
X113321566Y-73680107D01*
X113321566Y-73680107D02*
X113245376Y-73680107D01*
X113245376Y-73680107D02*
X113169185Y-73642011D01*
X113169185Y-73642011D02*
X113131090Y-73603916D01*
X113131090Y-73603916D02*
X113092995Y-73527726D01*
X113092995Y-73527726D02*
X113092995Y-73337249D01*
X113092995Y-73337249D02*
X113131090Y-73222964D01*
X113816804Y-72422963D02*
X113854900Y-72461059D01*
X113854900Y-72461059D02*
X113892995Y-72575344D01*
X113892995Y-72575344D02*
X113892995Y-72651535D01*
X113892995Y-72651535D02*
X113854900Y-72765821D01*
X113854900Y-72765821D02*
X113778709Y-72842011D01*
X113778709Y-72842011D02*
X113702519Y-72880106D01*
X113702519Y-72880106D02*
X113550138Y-72918202D01*
X113550138Y-72918202D02*
X113435852Y-72918202D01*
X113435852Y-72918202D02*
X113283471Y-72880106D01*
X113283471Y-72880106D02*
X113207280Y-72842011D01*
X113207280Y-72842011D02*
X113131090Y-72765821D01*
X113131090Y-72765821D02*
X113092995Y-72651535D01*
X113092995Y-72651535D02*
X113092995Y-72575344D01*
X113092995Y-72575344D02*
X113131090Y-72461059D01*
X113131090Y-72461059D02*
X113169185Y-72422963D01*
X113892995Y-71699154D02*
X113892995Y-72080106D01*
X113892995Y-72080106D02*
X113092995Y-72080106D01*
X114607004Y-85805607D02*
X115407004Y-85805607D01*
X115330814Y-86148463D02*
X115368909Y-86186559D01*
X115368909Y-86186559D02*
X115407004Y-86262749D01*
X115407004Y-86262749D02*
X115407004Y-86453225D01*
X115407004Y-86453225D02*
X115368909Y-86529416D01*
X115368909Y-86529416D02*
X115330814Y-86567511D01*
X115330814Y-86567511D02*
X115254623Y-86605606D01*
X115254623Y-86605606D02*
X115178433Y-86605606D01*
X115178433Y-86605606D02*
X115064147Y-86567511D01*
X115064147Y-86567511D02*
X114607004Y-86110368D01*
X114607004Y-86110368D02*
X114607004Y-86605606D01*
X114683195Y-87405607D02*
X114645100Y-87367511D01*
X114645100Y-87367511D02*
X114607004Y-87253226D01*
X114607004Y-87253226D02*
X114607004Y-87177035D01*
X114607004Y-87177035D02*
X114645100Y-87062749D01*
X114645100Y-87062749D02*
X114721290Y-86986559D01*
X114721290Y-86986559D02*
X114797480Y-86948464D01*
X114797480Y-86948464D02*
X114949861Y-86910368D01*
X114949861Y-86910368D02*
X115064147Y-86910368D01*
X115064147Y-86910368D02*
X115216528Y-86948464D01*
X115216528Y-86948464D02*
X115292719Y-86986559D01*
X115292719Y-86986559D02*
X115368909Y-87062749D01*
X115368909Y-87062749D02*
X115407004Y-87177035D01*
X115407004Y-87177035D02*
X115407004Y-87253226D01*
X115407004Y-87253226D02*
X115368909Y-87367511D01*
X115368909Y-87367511D02*
X115330814Y-87405607D01*
X114530814Y-87557988D02*
X114530814Y-88167511D01*
X114645100Y-88319892D02*
X114607004Y-88434178D01*
X114607004Y-88434178D02*
X114607004Y-88624654D01*
X114607004Y-88624654D02*
X114645100Y-88700845D01*
X114645100Y-88700845D02*
X114683195Y-88738940D01*
X114683195Y-88738940D02*
X114759385Y-88777035D01*
X114759385Y-88777035D02*
X114835576Y-88777035D01*
X114835576Y-88777035D02*
X114911766Y-88738940D01*
X114911766Y-88738940D02*
X114949861Y-88700845D01*
X114949861Y-88700845D02*
X114987957Y-88624654D01*
X114987957Y-88624654D02*
X115026052Y-88472273D01*
X115026052Y-88472273D02*
X115064147Y-88396083D01*
X115064147Y-88396083D02*
X115102242Y-88357988D01*
X115102242Y-88357988D02*
X115178433Y-88319892D01*
X115178433Y-88319892D02*
X115254623Y-88319892D01*
X115254623Y-88319892D02*
X115330814Y-88357988D01*
X115330814Y-88357988D02*
X115368909Y-88396083D01*
X115368909Y-88396083D02*
X115407004Y-88472273D01*
X115407004Y-88472273D02*
X115407004Y-88662750D01*
X115407004Y-88662750D02*
X115368909Y-88777035D01*
X114607004Y-89119893D02*
X115407004Y-89119893D01*
X115407004Y-89119893D02*
X115407004Y-89310369D01*
X115407004Y-89310369D02*
X115368909Y-89424655D01*
X115368909Y-89424655D02*
X115292719Y-89500845D01*
X115292719Y-89500845D02*
X115216528Y-89538940D01*
X115216528Y-89538940D02*
X115064147Y-89577036D01*
X115064147Y-89577036D02*
X114949861Y-89577036D01*
X114949861Y-89577036D02*
X114797480Y-89538940D01*
X114797480Y-89538940D02*
X114721290Y-89500845D01*
X114721290Y-89500845D02*
X114645100Y-89424655D01*
X114645100Y-89424655D02*
X114607004Y-89310369D01*
X114607004Y-89310369D02*
X114607004Y-89119893D01*
X114835576Y-89881797D02*
X114835576Y-90262750D01*
X114607004Y-89805607D02*
X115407004Y-90072274D01*
X115407004Y-90072274D02*
X114607004Y-90338940D01*
X158419892Y-65392995D02*
X158343702Y-65354900D01*
X158343702Y-65354900D02*
X158305607Y-65316804D01*
X158305607Y-65316804D02*
X158267511Y-65240614D01*
X158267511Y-65240614D02*
X158267511Y-65012042D01*
X158267511Y-65012042D02*
X158305607Y-64935852D01*
X158305607Y-64935852D02*
X158343702Y-64897757D01*
X158343702Y-64897757D02*
X158419892Y-64859661D01*
X158419892Y-64859661D02*
X158534178Y-64859661D01*
X158534178Y-64859661D02*
X158610369Y-64897757D01*
X158610369Y-64897757D02*
X158648464Y-64935852D01*
X158648464Y-64935852D02*
X158686559Y-65012042D01*
X158686559Y-65012042D02*
X158686559Y-65240614D01*
X158686559Y-65240614D02*
X158648464Y-65316804D01*
X158648464Y-65316804D02*
X158610369Y-65354900D01*
X158610369Y-65354900D02*
X158534178Y-65392995D01*
X158534178Y-65392995D02*
X158419892Y-65392995D01*
X159029417Y-64859661D02*
X159029417Y-65392995D01*
X159029417Y-64935852D02*
X159067512Y-64897757D01*
X159067512Y-64897757D02*
X159143702Y-64859661D01*
X159143702Y-64859661D02*
X159257988Y-64859661D01*
X159257988Y-64859661D02*
X159334179Y-64897757D01*
X159334179Y-64897757D02*
X159372274Y-64973947D01*
X159372274Y-64973947D02*
X159372274Y-65392995D01*
X160477036Y-65392995D02*
X160400846Y-65354900D01*
X160400846Y-65354900D02*
X160362751Y-65316804D01*
X160362751Y-65316804D02*
X160324655Y-65240614D01*
X160324655Y-65240614D02*
X160324655Y-65012042D01*
X160324655Y-65012042D02*
X160362751Y-64935852D01*
X160362751Y-64935852D02*
X160400846Y-64897757D01*
X160400846Y-64897757D02*
X160477036Y-64859661D01*
X160477036Y-64859661D02*
X160591322Y-64859661D01*
X160591322Y-64859661D02*
X160667513Y-64897757D01*
X160667513Y-64897757D02*
X160705608Y-64935852D01*
X160705608Y-64935852D02*
X160743703Y-65012042D01*
X160743703Y-65012042D02*
X160743703Y-65240614D01*
X160743703Y-65240614D02*
X160705608Y-65316804D01*
X160705608Y-65316804D02*
X160667513Y-65354900D01*
X160667513Y-65354900D02*
X160591322Y-65392995D01*
X160591322Y-65392995D02*
X160477036Y-65392995D01*
X160972275Y-64859661D02*
X161277037Y-64859661D01*
X161086561Y-65392995D02*
X161086561Y-64707280D01*
X161086561Y-64707280D02*
X161124656Y-64631090D01*
X161124656Y-64631090D02*
X161200846Y-64592995D01*
X161200846Y-64592995D02*
X161277037Y-64592995D01*
X161429418Y-64859661D02*
X161734180Y-64859661D01*
X161543704Y-65392995D02*
X161543704Y-64707280D01*
X161543704Y-64707280D02*
X161581799Y-64631090D01*
X161581799Y-64631090D02*
X161657989Y-64592995D01*
X161657989Y-64592995D02*
X161734180Y-64592995D01*
X162610371Y-65392995D02*
X162610371Y-64592995D01*
X162610371Y-64897757D02*
X162686561Y-64859661D01*
X162686561Y-64859661D02*
X162838942Y-64859661D01*
X162838942Y-64859661D02*
X162915133Y-64897757D01*
X162915133Y-64897757D02*
X162953228Y-64935852D01*
X162953228Y-64935852D02*
X162991323Y-65012042D01*
X162991323Y-65012042D02*
X162991323Y-65240614D01*
X162991323Y-65240614D02*
X162953228Y-65316804D01*
X162953228Y-65316804D02*
X162915133Y-65354900D01*
X162915133Y-65354900D02*
X162838942Y-65392995D01*
X162838942Y-65392995D02*
X162686561Y-65392995D01*
X162686561Y-65392995D02*
X162610371Y-65354900D01*
X163677038Y-64859661D02*
X163677038Y-65392995D01*
X163334181Y-64859661D02*
X163334181Y-65278709D01*
X163334181Y-65278709D02*
X163372276Y-65354900D01*
X163372276Y-65354900D02*
X163448466Y-65392995D01*
X163448466Y-65392995D02*
X163562752Y-65392995D01*
X163562752Y-65392995D02*
X163638943Y-65354900D01*
X163638943Y-65354900D02*
X163677038Y-65316804D01*
X163943705Y-64859661D02*
X164248467Y-64859661D01*
X164057991Y-64592995D02*
X164057991Y-65278709D01*
X164057991Y-65278709D02*
X164096086Y-65354900D01*
X164096086Y-65354900D02*
X164172276Y-65392995D01*
X164172276Y-65392995D02*
X164248467Y-65392995D01*
X164400848Y-64859661D02*
X164705610Y-64859661D01*
X164515134Y-64592995D02*
X164515134Y-65278709D01*
X164515134Y-65278709D02*
X164553229Y-65354900D01*
X164553229Y-65354900D02*
X164629419Y-65392995D01*
X164629419Y-65392995D02*
X164705610Y-65392995D01*
X165086562Y-65392995D02*
X165010372Y-65354900D01*
X165010372Y-65354900D02*
X164972277Y-65316804D01*
X164972277Y-65316804D02*
X164934181Y-65240614D01*
X164934181Y-65240614D02*
X164934181Y-65012042D01*
X164934181Y-65012042D02*
X164972277Y-64935852D01*
X164972277Y-64935852D02*
X165010372Y-64897757D01*
X165010372Y-64897757D02*
X165086562Y-64859661D01*
X165086562Y-64859661D02*
X165200848Y-64859661D01*
X165200848Y-64859661D02*
X165277039Y-64897757D01*
X165277039Y-64897757D02*
X165315134Y-64935852D01*
X165315134Y-64935852D02*
X165353229Y-65012042D01*
X165353229Y-65012042D02*
X165353229Y-65240614D01*
X165353229Y-65240614D02*
X165315134Y-65316804D01*
X165315134Y-65316804D02*
X165277039Y-65354900D01*
X165277039Y-65354900D02*
X165200848Y-65392995D01*
X165200848Y-65392995D02*
X165086562Y-65392995D01*
X165696087Y-64859661D02*
X165696087Y-65392995D01*
X165696087Y-64935852D02*
X165734182Y-64897757D01*
X165734182Y-64897757D02*
X165810372Y-64859661D01*
X165810372Y-64859661D02*
X165924658Y-64859661D01*
X165924658Y-64859661D02*
X166000849Y-64897757D01*
X166000849Y-64897757D02*
X166038944Y-64973947D01*
X166038944Y-64973947D02*
X166038944Y-65392995D01*
X116592995Y-75813440D02*
X116592995Y-76194392D01*
X116592995Y-76194392D02*
X116973947Y-76232488D01*
X116973947Y-76232488D02*
X116935852Y-76194392D01*
X116935852Y-76194392D02*
X116897757Y-76118202D01*
X116897757Y-76118202D02*
X116897757Y-75927726D01*
X116897757Y-75927726D02*
X116935852Y-75851535D01*
X116935852Y-75851535D02*
X116973947Y-75813440D01*
X116973947Y-75813440D02*
X117050138Y-75775345D01*
X117050138Y-75775345D02*
X117240614Y-75775345D01*
X117240614Y-75775345D02*
X117316804Y-75813440D01*
X117316804Y-75813440D02*
X117354900Y-75851535D01*
X117354900Y-75851535D02*
X117392995Y-75927726D01*
X117392995Y-75927726D02*
X117392995Y-76118202D01*
X117392995Y-76118202D02*
X117354900Y-76194392D01*
X117354900Y-76194392D02*
X117316804Y-76232488D01*
X116592995Y-75546773D02*
X117392995Y-75280106D01*
X117392995Y-75280106D02*
X116592995Y-75013440D01*
X111392995Y-76194392D02*
X110592995Y-76194392D01*
X110669185Y-75851536D02*
X110631090Y-75813440D01*
X110631090Y-75813440D02*
X110592995Y-75737250D01*
X110592995Y-75737250D02*
X110592995Y-75546774D01*
X110592995Y-75546774D02*
X110631090Y-75470583D01*
X110631090Y-75470583D02*
X110669185Y-75432488D01*
X110669185Y-75432488D02*
X110745376Y-75394393D01*
X110745376Y-75394393D02*
X110821566Y-75394393D01*
X110821566Y-75394393D02*
X110935852Y-75432488D01*
X110935852Y-75432488D02*
X111392995Y-75889631D01*
X111392995Y-75889631D02*
X111392995Y-75394393D01*
X111316804Y-74594392D02*
X111354900Y-74632488D01*
X111354900Y-74632488D02*
X111392995Y-74746773D01*
X111392995Y-74746773D02*
X111392995Y-74822964D01*
X111392995Y-74822964D02*
X111354900Y-74937250D01*
X111354900Y-74937250D02*
X111278709Y-75013440D01*
X111278709Y-75013440D02*
X111202519Y-75051535D01*
X111202519Y-75051535D02*
X111050138Y-75089631D01*
X111050138Y-75089631D02*
X110935852Y-75089631D01*
X110935852Y-75089631D02*
X110783471Y-75051535D01*
X110783471Y-75051535D02*
X110707280Y-75013440D01*
X110707280Y-75013440D02*
X110631090Y-74937250D01*
X110631090Y-74937250D02*
X110592995Y-74822964D01*
X110592995Y-74822964D02*
X110592995Y-74746773D01*
X110592995Y-74746773D02*
X110631090Y-74632488D01*
X110631090Y-74632488D02*
X110669185Y-74594392D01*
X111469185Y-74442012D02*
X111469185Y-73832488D01*
X111354900Y-73680107D02*
X111392995Y-73565821D01*
X111392995Y-73565821D02*
X111392995Y-73375345D01*
X111392995Y-73375345D02*
X111354900Y-73299154D01*
X111354900Y-73299154D02*
X111316804Y-73261059D01*
X111316804Y-73261059D02*
X111240614Y-73222964D01*
X111240614Y-73222964D02*
X111164423Y-73222964D01*
X111164423Y-73222964D02*
X111088233Y-73261059D01*
X111088233Y-73261059D02*
X111050138Y-73299154D01*
X111050138Y-73299154D02*
X111012042Y-73375345D01*
X111012042Y-73375345D02*
X110973947Y-73527726D01*
X110973947Y-73527726D02*
X110935852Y-73603916D01*
X110935852Y-73603916D02*
X110897757Y-73642011D01*
X110897757Y-73642011D02*
X110821566Y-73680107D01*
X110821566Y-73680107D02*
X110745376Y-73680107D01*
X110745376Y-73680107D02*
X110669185Y-73642011D01*
X110669185Y-73642011D02*
X110631090Y-73603916D01*
X110631090Y-73603916D02*
X110592995Y-73527726D01*
X110592995Y-73527726D02*
X110592995Y-73337249D01*
X110592995Y-73337249D02*
X110631090Y-73222964D01*
X111392995Y-72880106D02*
X110592995Y-72880106D01*
X110592995Y-72880106D02*
X110592995Y-72689630D01*
X110592995Y-72689630D02*
X110631090Y-72575344D01*
X110631090Y-72575344D02*
X110707280Y-72499154D01*
X110707280Y-72499154D02*
X110783471Y-72461059D01*
X110783471Y-72461059D02*
X110935852Y-72422963D01*
X110935852Y-72422963D02*
X111050138Y-72422963D01*
X111050138Y-72422963D02*
X111202519Y-72461059D01*
X111202519Y-72461059D02*
X111278709Y-72499154D01*
X111278709Y-72499154D02*
X111354900Y-72575344D01*
X111354900Y-72575344D02*
X111392995Y-72689630D01*
X111392995Y-72689630D02*
X111392995Y-72880106D01*
X111164423Y-72118202D02*
X111164423Y-71737249D01*
X111392995Y-72194392D02*
X110592995Y-71927725D01*
X110592995Y-71927725D02*
X111392995Y-71661059D01*
X157919892Y-56892995D02*
X157843702Y-56854900D01*
X157843702Y-56854900D02*
X157805607Y-56778709D01*
X157805607Y-56778709D02*
X157805607Y-56092995D01*
X158338940Y-56892995D02*
X158262750Y-56854900D01*
X158262750Y-56854900D02*
X158224655Y-56816804D01*
X158224655Y-56816804D02*
X158186559Y-56740614D01*
X158186559Y-56740614D02*
X158186559Y-56512042D01*
X158186559Y-56512042D02*
X158224655Y-56435852D01*
X158224655Y-56435852D02*
X158262750Y-56397757D01*
X158262750Y-56397757D02*
X158338940Y-56359661D01*
X158338940Y-56359661D02*
X158453226Y-56359661D01*
X158453226Y-56359661D02*
X158529417Y-56397757D01*
X158529417Y-56397757D02*
X158567512Y-56435852D01*
X158567512Y-56435852D02*
X158605607Y-56512042D01*
X158605607Y-56512042D02*
X158605607Y-56740614D01*
X158605607Y-56740614D02*
X158567512Y-56816804D01*
X158567512Y-56816804D02*
X158529417Y-56854900D01*
X158529417Y-56854900D02*
X158453226Y-56892995D01*
X158453226Y-56892995D02*
X158338940Y-56892995D01*
X159291322Y-56854900D02*
X159215131Y-56892995D01*
X159215131Y-56892995D02*
X159062750Y-56892995D01*
X159062750Y-56892995D02*
X158986560Y-56854900D01*
X158986560Y-56854900D02*
X158948465Y-56816804D01*
X158948465Y-56816804D02*
X158910369Y-56740614D01*
X158910369Y-56740614D02*
X158910369Y-56512042D01*
X158910369Y-56512042D02*
X158948465Y-56435852D01*
X158948465Y-56435852D02*
X158986560Y-56397757D01*
X158986560Y-56397757D02*
X159062750Y-56359661D01*
X159062750Y-56359661D02*
X159215131Y-56359661D01*
X159215131Y-56359661D02*
X159291322Y-56397757D01*
X159634179Y-56892995D02*
X159634179Y-56092995D01*
X159710369Y-56588233D02*
X159938941Y-56892995D01*
X159938941Y-56359661D02*
X159634179Y-56664423D01*
X160891322Y-56892995D02*
X160891322Y-56092995D01*
X160891322Y-56397757D02*
X160967512Y-56359661D01*
X160967512Y-56359661D02*
X161119893Y-56359661D01*
X161119893Y-56359661D02*
X161196084Y-56397757D01*
X161196084Y-56397757D02*
X161234179Y-56435852D01*
X161234179Y-56435852D02*
X161272274Y-56512042D01*
X161272274Y-56512042D02*
X161272274Y-56740614D01*
X161272274Y-56740614D02*
X161234179Y-56816804D01*
X161234179Y-56816804D02*
X161196084Y-56854900D01*
X161196084Y-56854900D02*
X161119893Y-56892995D01*
X161119893Y-56892995D02*
X160967512Y-56892995D01*
X160967512Y-56892995D02*
X160891322Y-56854900D01*
X161957989Y-56359661D02*
X161957989Y-56892995D01*
X161615132Y-56359661D02*
X161615132Y-56778709D01*
X161615132Y-56778709D02*
X161653227Y-56854900D01*
X161653227Y-56854900D02*
X161729417Y-56892995D01*
X161729417Y-56892995D02*
X161843703Y-56892995D01*
X161843703Y-56892995D02*
X161919894Y-56854900D01*
X161919894Y-56854900D02*
X161957989Y-56816804D01*
X162224656Y-56359661D02*
X162529418Y-56359661D01*
X162338942Y-56092995D02*
X162338942Y-56778709D01*
X162338942Y-56778709D02*
X162377037Y-56854900D01*
X162377037Y-56854900D02*
X162453227Y-56892995D01*
X162453227Y-56892995D02*
X162529418Y-56892995D01*
X162681799Y-56359661D02*
X162986561Y-56359661D01*
X162796085Y-56092995D02*
X162796085Y-56778709D01*
X162796085Y-56778709D02*
X162834180Y-56854900D01*
X162834180Y-56854900D02*
X162910370Y-56892995D01*
X162910370Y-56892995D02*
X162986561Y-56892995D01*
X163367513Y-56892995D02*
X163291323Y-56854900D01*
X163291323Y-56854900D02*
X163253228Y-56816804D01*
X163253228Y-56816804D02*
X163215132Y-56740614D01*
X163215132Y-56740614D02*
X163215132Y-56512042D01*
X163215132Y-56512042D02*
X163253228Y-56435852D01*
X163253228Y-56435852D02*
X163291323Y-56397757D01*
X163291323Y-56397757D02*
X163367513Y-56359661D01*
X163367513Y-56359661D02*
X163481799Y-56359661D01*
X163481799Y-56359661D02*
X163557990Y-56397757D01*
X163557990Y-56397757D02*
X163596085Y-56435852D01*
X163596085Y-56435852D02*
X163634180Y-56512042D01*
X163634180Y-56512042D02*
X163634180Y-56740614D01*
X163634180Y-56740614D02*
X163596085Y-56816804D01*
X163596085Y-56816804D02*
X163557990Y-56854900D01*
X163557990Y-56854900D02*
X163481799Y-56892995D01*
X163481799Y-56892995D02*
X163367513Y-56892995D01*
X163977038Y-56359661D02*
X163977038Y-56892995D01*
X163977038Y-56435852D02*
X164015133Y-56397757D01*
X164015133Y-56397757D02*
X164091323Y-56359661D01*
X164091323Y-56359661D02*
X164205609Y-56359661D01*
X164205609Y-56359661D02*
X164281800Y-56397757D01*
X164281800Y-56397757D02*
X164319895Y-56473947D01*
X164319895Y-56473947D02*
X164319895Y-56892995D01*
X122907004Y-86186559D02*
X122907004Y-85805607D01*
X122907004Y-85805607D02*
X122526052Y-85767511D01*
X122526052Y-85767511D02*
X122564147Y-85805607D01*
X122564147Y-85805607D02*
X122602242Y-85881797D01*
X122602242Y-85881797D02*
X122602242Y-86072273D01*
X122602242Y-86072273D02*
X122564147Y-86148464D01*
X122564147Y-86148464D02*
X122526052Y-86186559D01*
X122526052Y-86186559D02*
X122449861Y-86224654D01*
X122449861Y-86224654D02*
X122259385Y-86224654D01*
X122259385Y-86224654D02*
X122183195Y-86186559D01*
X122183195Y-86186559D02*
X122145100Y-86148464D01*
X122145100Y-86148464D02*
X122107004Y-86072273D01*
X122107004Y-86072273D02*
X122107004Y-85881797D01*
X122107004Y-85881797D02*
X122145100Y-85805607D01*
X122145100Y-85805607D02*
X122183195Y-85767511D01*
X122907004Y-86453226D02*
X122107004Y-86719893D01*
X122107004Y-86719893D02*
X122907004Y-86986559D01*
X145148464Y-56354900D02*
X145072273Y-56392995D01*
X145072273Y-56392995D02*
X144919892Y-56392995D01*
X144919892Y-56392995D02*
X144843702Y-56354900D01*
X144843702Y-56354900D02*
X144805607Y-56316804D01*
X144805607Y-56316804D02*
X144767511Y-56240614D01*
X144767511Y-56240614D02*
X144767511Y-56012042D01*
X144767511Y-56012042D02*
X144805607Y-55935852D01*
X144805607Y-55935852D02*
X144843702Y-55897757D01*
X144843702Y-55897757D02*
X144919892Y-55859661D01*
X144919892Y-55859661D02*
X145072273Y-55859661D01*
X145072273Y-55859661D02*
X145148464Y-55897757D01*
X145834178Y-56392995D02*
X145834178Y-55973947D01*
X145834178Y-55973947D02*
X145796083Y-55897757D01*
X145796083Y-55897757D02*
X145719892Y-55859661D01*
X145719892Y-55859661D02*
X145567511Y-55859661D01*
X145567511Y-55859661D02*
X145491321Y-55897757D01*
X145834178Y-56354900D02*
X145757987Y-56392995D01*
X145757987Y-56392995D02*
X145567511Y-56392995D01*
X145567511Y-56392995D02*
X145491321Y-56354900D01*
X145491321Y-56354900D02*
X145453225Y-56278709D01*
X145453225Y-56278709D02*
X145453225Y-56202519D01*
X145453225Y-56202519D02*
X145491321Y-56126328D01*
X145491321Y-56126328D02*
X145567511Y-56088233D01*
X145567511Y-56088233D02*
X145757987Y-56088233D01*
X145757987Y-56088233D02*
X145834178Y-56050138D01*
X146329416Y-56392995D02*
X146253226Y-56354900D01*
X146253226Y-56354900D02*
X146215131Y-56278709D01*
X146215131Y-56278709D02*
X146215131Y-55592995D01*
X146634179Y-56392995D02*
X146634179Y-55859661D01*
X146634179Y-55592995D02*
X146596083Y-55631090D01*
X146596083Y-55631090D02*
X146634179Y-55669185D01*
X146634179Y-55669185D02*
X146672274Y-55631090D01*
X146672274Y-55631090D02*
X146634179Y-55592995D01*
X146634179Y-55592995D02*
X146634179Y-55669185D01*
X147015131Y-56392995D02*
X147015131Y-55592995D01*
X147015131Y-55897757D02*
X147091321Y-55859661D01*
X147091321Y-55859661D02*
X147243702Y-55859661D01*
X147243702Y-55859661D02*
X147319893Y-55897757D01*
X147319893Y-55897757D02*
X147357988Y-55935852D01*
X147357988Y-55935852D02*
X147396083Y-56012042D01*
X147396083Y-56012042D02*
X147396083Y-56240614D01*
X147396083Y-56240614D02*
X147357988Y-56316804D01*
X147357988Y-56316804D02*
X147319893Y-56354900D01*
X147319893Y-56354900D02*
X147243702Y-56392995D01*
X147243702Y-56392995D02*
X147091321Y-56392995D01*
X147091321Y-56392995D02*
X147015131Y-56354900D01*
X147738941Y-56392995D02*
X147738941Y-55859661D01*
X147738941Y-56012042D02*
X147777036Y-55935852D01*
X147777036Y-55935852D02*
X147815131Y-55897757D01*
X147815131Y-55897757D02*
X147891322Y-55859661D01*
X147891322Y-55859661D02*
X147967512Y-55859661D01*
X148577036Y-56392995D02*
X148577036Y-55973947D01*
X148577036Y-55973947D02*
X148538941Y-55897757D01*
X148538941Y-55897757D02*
X148462750Y-55859661D01*
X148462750Y-55859661D02*
X148310369Y-55859661D01*
X148310369Y-55859661D02*
X148234179Y-55897757D01*
X148577036Y-56354900D02*
X148500845Y-56392995D01*
X148500845Y-56392995D02*
X148310369Y-56392995D01*
X148310369Y-56392995D02*
X148234179Y-56354900D01*
X148234179Y-56354900D02*
X148196083Y-56278709D01*
X148196083Y-56278709D02*
X148196083Y-56202519D01*
X148196083Y-56202519D02*
X148234179Y-56126328D01*
X148234179Y-56126328D02*
X148310369Y-56088233D01*
X148310369Y-56088233D02*
X148500845Y-56088233D01*
X148500845Y-56088233D02*
X148577036Y-56050138D01*
X148843703Y-55859661D02*
X149148465Y-55859661D01*
X148957989Y-55592995D02*
X148957989Y-56278709D01*
X148957989Y-56278709D02*
X148996084Y-56354900D01*
X148996084Y-56354900D02*
X149072274Y-56392995D01*
X149072274Y-56392995D02*
X149148465Y-56392995D01*
X149415132Y-56392995D02*
X149415132Y-55859661D01*
X149415132Y-55592995D02*
X149377036Y-55631090D01*
X149377036Y-55631090D02*
X149415132Y-55669185D01*
X149415132Y-55669185D02*
X149453227Y-55631090D01*
X149453227Y-55631090D02*
X149415132Y-55592995D01*
X149415132Y-55592995D02*
X149415132Y-55669185D01*
X149910369Y-56392995D02*
X149834179Y-56354900D01*
X149834179Y-56354900D02*
X149796084Y-56316804D01*
X149796084Y-56316804D02*
X149757988Y-56240614D01*
X149757988Y-56240614D02*
X149757988Y-56012042D01*
X149757988Y-56012042D02*
X149796084Y-55935852D01*
X149796084Y-55935852D02*
X149834179Y-55897757D01*
X149834179Y-55897757D02*
X149910369Y-55859661D01*
X149910369Y-55859661D02*
X150024655Y-55859661D01*
X150024655Y-55859661D02*
X150100846Y-55897757D01*
X150100846Y-55897757D02*
X150138941Y-55935852D01*
X150138941Y-55935852D02*
X150177036Y-56012042D01*
X150177036Y-56012042D02*
X150177036Y-56240614D01*
X150177036Y-56240614D02*
X150138941Y-56316804D01*
X150138941Y-56316804D02*
X150100846Y-56354900D01*
X150100846Y-56354900D02*
X150024655Y-56392995D01*
X150024655Y-56392995D02*
X149910369Y-56392995D01*
X150519894Y-55859661D02*
X150519894Y-56392995D01*
X150519894Y-55935852D02*
X150557989Y-55897757D01*
X150557989Y-55897757D02*
X150634179Y-55859661D01*
X150634179Y-55859661D02*
X150748465Y-55859661D01*
X150748465Y-55859661D02*
X150824656Y-55897757D01*
X150824656Y-55897757D02*
X150862751Y-55973947D01*
X150862751Y-55973947D02*
X150862751Y-56392995D01*
X151853228Y-56392995D02*
X151853228Y-55592995D01*
X151853228Y-55897757D02*
X151929418Y-55859661D01*
X151929418Y-55859661D02*
X152081799Y-55859661D01*
X152081799Y-55859661D02*
X152157990Y-55897757D01*
X152157990Y-55897757D02*
X152196085Y-55935852D01*
X152196085Y-55935852D02*
X152234180Y-56012042D01*
X152234180Y-56012042D02*
X152234180Y-56240614D01*
X152234180Y-56240614D02*
X152196085Y-56316804D01*
X152196085Y-56316804D02*
X152157990Y-56354900D01*
X152157990Y-56354900D02*
X152081799Y-56392995D01*
X152081799Y-56392995D02*
X151929418Y-56392995D01*
X151929418Y-56392995D02*
X151853228Y-56354900D01*
X152919895Y-55859661D02*
X152919895Y-56392995D01*
X152577038Y-55859661D02*
X152577038Y-56278709D01*
X152577038Y-56278709D02*
X152615133Y-56354900D01*
X152615133Y-56354900D02*
X152691323Y-56392995D01*
X152691323Y-56392995D02*
X152805609Y-56392995D01*
X152805609Y-56392995D02*
X152881800Y-56354900D01*
X152881800Y-56354900D02*
X152919895Y-56316804D01*
X153186562Y-55859661D02*
X153491324Y-55859661D01*
X153300848Y-55592995D02*
X153300848Y-56278709D01*
X153300848Y-56278709D02*
X153338943Y-56354900D01*
X153338943Y-56354900D02*
X153415133Y-56392995D01*
X153415133Y-56392995D02*
X153491324Y-56392995D01*
X153643705Y-55859661D02*
X153948467Y-55859661D01*
X153757991Y-55592995D02*
X153757991Y-56278709D01*
X153757991Y-56278709D02*
X153796086Y-56354900D01*
X153796086Y-56354900D02*
X153872276Y-56392995D01*
X153872276Y-56392995D02*
X153948467Y-56392995D01*
X154329419Y-56392995D02*
X154253229Y-56354900D01*
X154253229Y-56354900D02*
X154215134Y-56316804D01*
X154215134Y-56316804D02*
X154177038Y-56240614D01*
X154177038Y-56240614D02*
X154177038Y-56012042D01*
X154177038Y-56012042D02*
X154215134Y-55935852D01*
X154215134Y-55935852D02*
X154253229Y-55897757D01*
X154253229Y-55897757D02*
X154329419Y-55859661D01*
X154329419Y-55859661D02*
X154443705Y-55859661D01*
X154443705Y-55859661D02*
X154519896Y-55897757D01*
X154519896Y-55897757D02*
X154557991Y-55935852D01*
X154557991Y-55935852D02*
X154596086Y-56012042D01*
X154596086Y-56012042D02*
X154596086Y-56240614D01*
X154596086Y-56240614D02*
X154557991Y-56316804D01*
X154557991Y-56316804D02*
X154519896Y-56354900D01*
X154519896Y-56354900D02*
X154443705Y-56392995D01*
X154443705Y-56392995D02*
X154329419Y-56392995D01*
X154938944Y-55859661D02*
X154938944Y-56392995D01*
X154938944Y-55935852D02*
X154977039Y-55897757D01*
X154977039Y-55897757D02*
X155053229Y-55859661D01*
X155053229Y-55859661D02*
X155167515Y-55859661D01*
X155167515Y-55859661D02*
X155243706Y-55897757D01*
X155243706Y-55897757D02*
X155281801Y-55973947D01*
X155281801Y-55973947D02*
X155281801Y-56392995D01*
X117107004Y-85805607D02*
X117907004Y-85805607D01*
X117830814Y-86148463D02*
X117868909Y-86186559D01*
X117868909Y-86186559D02*
X117907004Y-86262749D01*
X117907004Y-86262749D02*
X117907004Y-86453225D01*
X117907004Y-86453225D02*
X117868909Y-86529416D01*
X117868909Y-86529416D02*
X117830814Y-86567511D01*
X117830814Y-86567511D02*
X117754623Y-86605606D01*
X117754623Y-86605606D02*
X117678433Y-86605606D01*
X117678433Y-86605606D02*
X117564147Y-86567511D01*
X117564147Y-86567511D02*
X117107004Y-86110368D01*
X117107004Y-86110368D02*
X117107004Y-86605606D01*
X117183195Y-87405607D02*
X117145100Y-87367511D01*
X117145100Y-87367511D02*
X117107004Y-87253226D01*
X117107004Y-87253226D02*
X117107004Y-87177035D01*
X117107004Y-87177035D02*
X117145100Y-87062749D01*
X117145100Y-87062749D02*
X117221290Y-86986559D01*
X117221290Y-86986559D02*
X117297480Y-86948464D01*
X117297480Y-86948464D02*
X117449861Y-86910368D01*
X117449861Y-86910368D02*
X117564147Y-86910368D01*
X117564147Y-86910368D02*
X117716528Y-86948464D01*
X117716528Y-86948464D02*
X117792719Y-86986559D01*
X117792719Y-86986559D02*
X117868909Y-87062749D01*
X117868909Y-87062749D02*
X117907004Y-87177035D01*
X117907004Y-87177035D02*
X117907004Y-87253226D01*
X117907004Y-87253226D02*
X117868909Y-87367511D01*
X117868909Y-87367511D02*
X117830814Y-87405607D01*
X117030814Y-87557988D02*
X117030814Y-88167511D01*
X117145100Y-88319892D02*
X117107004Y-88434178D01*
X117107004Y-88434178D02*
X117107004Y-88624654D01*
X117107004Y-88624654D02*
X117145100Y-88700845D01*
X117145100Y-88700845D02*
X117183195Y-88738940D01*
X117183195Y-88738940D02*
X117259385Y-88777035D01*
X117259385Y-88777035D02*
X117335576Y-88777035D01*
X117335576Y-88777035D02*
X117411766Y-88738940D01*
X117411766Y-88738940D02*
X117449861Y-88700845D01*
X117449861Y-88700845D02*
X117487957Y-88624654D01*
X117487957Y-88624654D02*
X117526052Y-88472273D01*
X117526052Y-88472273D02*
X117564147Y-88396083D01*
X117564147Y-88396083D02*
X117602242Y-88357988D01*
X117602242Y-88357988D02*
X117678433Y-88319892D01*
X117678433Y-88319892D02*
X117754623Y-88319892D01*
X117754623Y-88319892D02*
X117830814Y-88357988D01*
X117830814Y-88357988D02*
X117868909Y-88396083D01*
X117868909Y-88396083D02*
X117907004Y-88472273D01*
X117907004Y-88472273D02*
X117907004Y-88662750D01*
X117907004Y-88662750D02*
X117868909Y-88777035D01*
X117183195Y-89577036D02*
X117145100Y-89538940D01*
X117145100Y-89538940D02*
X117107004Y-89424655D01*
X117107004Y-89424655D02*
X117107004Y-89348464D01*
X117107004Y-89348464D02*
X117145100Y-89234178D01*
X117145100Y-89234178D02*
X117221290Y-89157988D01*
X117221290Y-89157988D02*
X117297480Y-89119893D01*
X117297480Y-89119893D02*
X117449861Y-89081797D01*
X117449861Y-89081797D02*
X117564147Y-89081797D01*
X117564147Y-89081797D02*
X117716528Y-89119893D01*
X117716528Y-89119893D02*
X117792719Y-89157988D01*
X117792719Y-89157988D02*
X117868909Y-89234178D01*
X117868909Y-89234178D02*
X117907004Y-89348464D01*
X117907004Y-89348464D02*
X117907004Y-89424655D01*
X117907004Y-89424655D02*
X117868909Y-89538940D01*
X117868909Y-89538940D02*
X117830814Y-89577036D01*
X117107004Y-90300845D02*
X117107004Y-89919893D01*
X117107004Y-89919893D02*
X117907004Y-89919893D01*
D10*
X119027255Y-53369819D02*
X119217731Y-53369819D01*
X119217731Y-53369819D02*
X119312969Y-53417438D01*
X119312969Y-53417438D02*
X119408207Y-53512676D01*
X119408207Y-53512676D02*
X119455826Y-53703152D01*
X119455826Y-53703152D02*
X119455826Y-54036485D01*
X119455826Y-54036485D02*
X119408207Y-54226961D01*
X119408207Y-54226961D02*
X119312969Y-54322200D01*
X119312969Y-54322200D02*
X119217731Y-54369819D01*
X119217731Y-54369819D02*
X119027255Y-54369819D01*
X119027255Y-54369819D02*
X118932017Y-54322200D01*
X118932017Y-54322200D02*
X118836779Y-54226961D01*
X118836779Y-54226961D02*
X118789160Y-54036485D01*
X118789160Y-54036485D02*
X118789160Y-53703152D01*
X118789160Y-53703152D02*
X118836779Y-53512676D01*
X118836779Y-53512676D02*
X118932017Y-53417438D01*
X118932017Y-53417438D02*
X119027255Y-53369819D01*
X120360588Y-54369819D02*
X119884398Y-54369819D01*
X119884398Y-54369819D02*
X119884398Y-53369819D01*
X120693922Y-53846009D02*
X121027255Y-53846009D01*
X121170112Y-54369819D02*
X120693922Y-54369819D01*
X120693922Y-54369819D02*
X120693922Y-53369819D01*
X120693922Y-53369819D02*
X121170112Y-53369819D01*
X121598684Y-54369819D02*
X121598684Y-53369819D01*
X121598684Y-53369819D02*
X121836779Y-53369819D01*
X121836779Y-53369819D02*
X121979636Y-53417438D01*
X121979636Y-53417438D02*
X122074874Y-53512676D01*
X122074874Y-53512676D02*
X122122493Y-53607914D01*
X122122493Y-53607914D02*
X122170112Y-53798390D01*
X122170112Y-53798390D02*
X122170112Y-53941247D01*
X122170112Y-53941247D02*
X122122493Y-54131723D01*
X122122493Y-54131723D02*
X122074874Y-54226961D01*
X122074874Y-54226961D02*
X121979636Y-54322200D01*
X121979636Y-54322200D02*
X121836779Y-54369819D01*
X121836779Y-54369819D02*
X121598684Y-54369819D01*
X123312970Y-54322200D02*
X123455827Y-54369819D01*
X123455827Y-54369819D02*
X123693922Y-54369819D01*
X123693922Y-54369819D02*
X123789160Y-54322200D01*
X123789160Y-54322200D02*
X123836779Y-54274580D01*
X123836779Y-54274580D02*
X123884398Y-54179342D01*
X123884398Y-54179342D02*
X123884398Y-54084104D01*
X123884398Y-54084104D02*
X123836779Y-53988866D01*
X123836779Y-53988866D02*
X123789160Y-53941247D01*
X123789160Y-53941247D02*
X123693922Y-53893628D01*
X123693922Y-53893628D02*
X123503446Y-53846009D01*
X123503446Y-53846009D02*
X123408208Y-53798390D01*
X123408208Y-53798390D02*
X123360589Y-53750771D01*
X123360589Y-53750771D02*
X123312970Y-53655533D01*
X123312970Y-53655533D02*
X123312970Y-53560295D01*
X123312970Y-53560295D02*
X123360589Y-53465057D01*
X123360589Y-53465057D02*
X123408208Y-53417438D01*
X123408208Y-53417438D02*
X123503446Y-53369819D01*
X123503446Y-53369819D02*
X123741541Y-53369819D01*
X123741541Y-53369819D02*
X123884398Y-53417438D01*
X124884398Y-54274580D02*
X124836779Y-54322200D01*
X124836779Y-54322200D02*
X124693922Y-54369819D01*
X124693922Y-54369819D02*
X124598684Y-54369819D01*
X124598684Y-54369819D02*
X124455827Y-54322200D01*
X124455827Y-54322200D02*
X124360589Y-54226961D01*
X124360589Y-54226961D02*
X124312970Y-54131723D01*
X124312970Y-54131723D02*
X124265351Y-53941247D01*
X124265351Y-53941247D02*
X124265351Y-53798390D01*
X124265351Y-53798390D02*
X124312970Y-53607914D01*
X124312970Y-53607914D02*
X124360589Y-53512676D01*
X124360589Y-53512676D02*
X124455827Y-53417438D01*
X124455827Y-53417438D02*
X124598684Y-53369819D01*
X124598684Y-53369819D02*
X124693922Y-53369819D01*
X124693922Y-53369819D02*
X124836779Y-53417438D01*
X124836779Y-53417438D02*
X124884398Y-53465057D01*
X125884398Y-54369819D02*
X125551065Y-53893628D01*
X125312970Y-54369819D02*
X125312970Y-53369819D01*
X125312970Y-53369819D02*
X125693922Y-53369819D01*
X125693922Y-53369819D02*
X125789160Y-53417438D01*
X125789160Y-53417438D02*
X125836779Y-53465057D01*
X125836779Y-53465057D02*
X125884398Y-53560295D01*
X125884398Y-53560295D02*
X125884398Y-53703152D01*
X125884398Y-53703152D02*
X125836779Y-53798390D01*
X125836779Y-53798390D02*
X125789160Y-53846009D01*
X125789160Y-53846009D02*
X125693922Y-53893628D01*
X125693922Y-53893628D02*
X125312970Y-53893628D01*
X126312970Y-53846009D02*
X126646303Y-53846009D01*
X126789160Y-54369819D02*
X126312970Y-54369819D01*
X126312970Y-54369819D02*
X126312970Y-53369819D01*
X126312970Y-53369819D02*
X126789160Y-53369819D01*
X127217732Y-53846009D02*
X127551065Y-53846009D01*
X127693922Y-54369819D02*
X127217732Y-54369819D01*
X127217732Y-54369819D02*
X127217732Y-53369819D01*
X127217732Y-53369819D02*
X127693922Y-53369819D01*
X128122494Y-54369819D02*
X128122494Y-53369819D01*
X128122494Y-53369819D02*
X128693922Y-54369819D01*
X128693922Y-54369819D02*
X128693922Y-53369819D01*
D12*
X149648464Y-65359661D02*
X149648464Y-65892995D01*
X149305607Y-65359661D02*
X149305607Y-65778709D01*
X149305607Y-65778709D02*
X149343702Y-65854900D01*
X149343702Y-65854900D02*
X149419892Y-65892995D01*
X149419892Y-65892995D02*
X149534178Y-65892995D01*
X149534178Y-65892995D02*
X149610369Y-65854900D01*
X149610369Y-65854900D02*
X149648464Y-65816804D01*
X150029417Y-65359661D02*
X150029417Y-65892995D01*
X150029417Y-65435852D02*
X150067512Y-65397757D01*
X150067512Y-65397757D02*
X150143702Y-65359661D01*
X150143702Y-65359661D02*
X150257988Y-65359661D01*
X150257988Y-65359661D02*
X150334179Y-65397757D01*
X150334179Y-65397757D02*
X150372274Y-65473947D01*
X150372274Y-65473947D02*
X150372274Y-65892995D01*
X150753227Y-65892995D02*
X150753227Y-65359661D01*
X150753227Y-65092995D02*
X150715131Y-65131090D01*
X150715131Y-65131090D02*
X150753227Y-65169185D01*
X150753227Y-65169185D02*
X150791322Y-65131090D01*
X150791322Y-65131090D02*
X150753227Y-65092995D01*
X150753227Y-65092995D02*
X150753227Y-65169185D01*
X151019893Y-65359661D02*
X151324655Y-65359661D01*
X151134179Y-65092995D02*
X151134179Y-65778709D01*
X151134179Y-65778709D02*
X151172274Y-65854900D01*
X151172274Y-65854900D02*
X151248464Y-65892995D01*
X151248464Y-65892995D02*
X151324655Y-65892995D01*
X151553226Y-65854900D02*
X151629417Y-65892995D01*
X151629417Y-65892995D02*
X151781798Y-65892995D01*
X151781798Y-65892995D02*
X151857988Y-65854900D01*
X151857988Y-65854900D02*
X151896084Y-65778709D01*
X151896084Y-65778709D02*
X151896084Y-65740614D01*
X151896084Y-65740614D02*
X151857988Y-65664423D01*
X151857988Y-65664423D02*
X151781798Y-65626328D01*
X151781798Y-65626328D02*
X151667512Y-65626328D01*
X151667512Y-65626328D02*
X151591322Y-65588233D01*
X151591322Y-65588233D02*
X151553226Y-65512042D01*
X151553226Y-65512042D02*
X151553226Y-65473947D01*
X151553226Y-65473947D02*
X151591322Y-65397757D01*
X151591322Y-65397757D02*
X151667512Y-65359661D01*
X151667512Y-65359661D02*
X151781798Y-65359661D01*
X151781798Y-65359661D02*
X151857988Y-65397757D01*
X152848465Y-65892995D02*
X152848465Y-65092995D01*
X152848465Y-65397757D02*
X152924655Y-65359661D01*
X152924655Y-65359661D02*
X153077036Y-65359661D01*
X153077036Y-65359661D02*
X153153227Y-65397757D01*
X153153227Y-65397757D02*
X153191322Y-65435852D01*
X153191322Y-65435852D02*
X153229417Y-65512042D01*
X153229417Y-65512042D02*
X153229417Y-65740614D01*
X153229417Y-65740614D02*
X153191322Y-65816804D01*
X153191322Y-65816804D02*
X153153227Y-65854900D01*
X153153227Y-65854900D02*
X153077036Y-65892995D01*
X153077036Y-65892995D02*
X152924655Y-65892995D01*
X152924655Y-65892995D02*
X152848465Y-65854900D01*
X153915132Y-65359661D02*
X153915132Y-65892995D01*
X153572275Y-65359661D02*
X153572275Y-65778709D01*
X153572275Y-65778709D02*
X153610370Y-65854900D01*
X153610370Y-65854900D02*
X153686560Y-65892995D01*
X153686560Y-65892995D02*
X153800846Y-65892995D01*
X153800846Y-65892995D02*
X153877037Y-65854900D01*
X153877037Y-65854900D02*
X153915132Y-65816804D01*
X154181799Y-65359661D02*
X154486561Y-65359661D01*
X154296085Y-65092995D02*
X154296085Y-65778709D01*
X154296085Y-65778709D02*
X154334180Y-65854900D01*
X154334180Y-65854900D02*
X154410370Y-65892995D01*
X154410370Y-65892995D02*
X154486561Y-65892995D01*
X154638942Y-65359661D02*
X154943704Y-65359661D01*
X154753228Y-65092995D02*
X154753228Y-65778709D01*
X154753228Y-65778709D02*
X154791323Y-65854900D01*
X154791323Y-65854900D02*
X154867513Y-65892995D01*
X154867513Y-65892995D02*
X154943704Y-65892995D01*
X155324656Y-65892995D02*
X155248466Y-65854900D01*
X155248466Y-65854900D02*
X155210371Y-65816804D01*
X155210371Y-65816804D02*
X155172275Y-65740614D01*
X155172275Y-65740614D02*
X155172275Y-65512042D01*
X155172275Y-65512042D02*
X155210371Y-65435852D01*
X155210371Y-65435852D02*
X155248466Y-65397757D01*
X155248466Y-65397757D02*
X155324656Y-65359661D01*
X155324656Y-65359661D02*
X155438942Y-65359661D01*
X155438942Y-65359661D02*
X155515133Y-65397757D01*
X155515133Y-65397757D02*
X155553228Y-65435852D01*
X155553228Y-65435852D02*
X155591323Y-65512042D01*
X155591323Y-65512042D02*
X155591323Y-65740614D01*
X155591323Y-65740614D02*
X155553228Y-65816804D01*
X155553228Y-65816804D02*
X155515133Y-65854900D01*
X155515133Y-65854900D02*
X155438942Y-65892995D01*
X155438942Y-65892995D02*
X155324656Y-65892995D01*
X155934181Y-65359661D02*
X155934181Y-65892995D01*
X155934181Y-65435852D02*
X155972276Y-65397757D01*
X155972276Y-65397757D02*
X156048466Y-65359661D01*
X156048466Y-65359661D02*
X156162752Y-65359661D01*
X156162752Y-65359661D02*
X156238943Y-65397757D01*
X156238943Y-65397757D02*
X156277038Y-65473947D01*
X156277038Y-65473947D02*
X156277038Y-65892995D01*
X120368909Y-86224654D02*
X120407004Y-86148464D01*
X120407004Y-86148464D02*
X120407004Y-86034178D01*
X120407004Y-86034178D02*
X120368909Y-85919892D01*
X120368909Y-85919892D02*
X120292719Y-85843702D01*
X120292719Y-85843702D02*
X120216528Y-85805607D01*
X120216528Y-85805607D02*
X120064147Y-85767511D01*
X120064147Y-85767511D02*
X119949861Y-85767511D01*
X119949861Y-85767511D02*
X119797480Y-85805607D01*
X119797480Y-85805607D02*
X119721290Y-85843702D01*
X119721290Y-85843702D02*
X119645100Y-85919892D01*
X119645100Y-85919892D02*
X119607004Y-86034178D01*
X119607004Y-86034178D02*
X119607004Y-86110369D01*
X119607004Y-86110369D02*
X119645100Y-86224654D01*
X119645100Y-86224654D02*
X119683195Y-86262750D01*
X119683195Y-86262750D02*
X119949861Y-86262750D01*
X119949861Y-86262750D02*
X119949861Y-86110369D01*
X119607004Y-86605607D02*
X120407004Y-86605607D01*
X120407004Y-86605607D02*
X119607004Y-87062750D01*
X119607004Y-87062750D02*
X120407004Y-87062750D01*
X119607004Y-87443702D02*
X120407004Y-87443702D01*
X120407004Y-87443702D02*
X120407004Y-87634178D01*
X120407004Y-87634178D02*
X120368909Y-87748464D01*
X120368909Y-87748464D02*
X120292719Y-87824654D01*
X120292719Y-87824654D02*
X120216528Y-87862749D01*
X120216528Y-87862749D02*
X120064147Y-87900845D01*
X120064147Y-87900845D02*
X119949861Y-87900845D01*
X119949861Y-87900845D02*
X119797480Y-87862749D01*
X119797480Y-87862749D02*
X119721290Y-87824654D01*
X119721290Y-87824654D02*
X119645100Y-87748464D01*
X119645100Y-87748464D02*
X119607004Y-87634178D01*
X119607004Y-87634178D02*
X119607004Y-87443702D01*
X141607004Y-51648464D02*
X142407004Y-51648464D01*
X141645100Y-51648464D02*
X141607004Y-51572273D01*
X141607004Y-51572273D02*
X141607004Y-51419892D01*
X141607004Y-51419892D02*
X141645100Y-51343702D01*
X141645100Y-51343702D02*
X141683195Y-51305607D01*
X141683195Y-51305607D02*
X141759385Y-51267511D01*
X141759385Y-51267511D02*
X141987957Y-51267511D01*
X141987957Y-51267511D02*
X142064147Y-51305607D01*
X142064147Y-51305607D02*
X142102242Y-51343702D01*
X142102242Y-51343702D02*
X142140338Y-51419892D01*
X142140338Y-51419892D02*
X142140338Y-51572273D01*
X142140338Y-51572273D02*
X142102242Y-51648464D01*
X141607004Y-52029417D02*
X142140338Y-52029417D01*
X142407004Y-52029417D02*
X142368909Y-51991321D01*
X142368909Y-51991321D02*
X142330814Y-52029417D01*
X142330814Y-52029417D02*
X142368909Y-52067512D01*
X142368909Y-52067512D02*
X142407004Y-52029417D01*
X142407004Y-52029417D02*
X142330814Y-52029417D01*
X142140338Y-52753226D02*
X141492719Y-52753226D01*
X141492719Y-52753226D02*
X141416528Y-52715131D01*
X141416528Y-52715131D02*
X141378433Y-52677035D01*
X141378433Y-52677035D02*
X141340338Y-52600845D01*
X141340338Y-52600845D02*
X141340338Y-52486559D01*
X141340338Y-52486559D02*
X141378433Y-52410369D01*
X141645100Y-52753226D02*
X141607004Y-52677035D01*
X141607004Y-52677035D02*
X141607004Y-52524654D01*
X141607004Y-52524654D02*
X141645100Y-52448464D01*
X141645100Y-52448464D02*
X141683195Y-52410369D01*
X141683195Y-52410369D02*
X141759385Y-52372273D01*
X141759385Y-52372273D02*
X141987957Y-52372273D01*
X141987957Y-52372273D02*
X142064147Y-52410369D01*
X142064147Y-52410369D02*
X142102242Y-52448464D01*
X142102242Y-52448464D02*
X142140338Y-52524654D01*
X142140338Y-52524654D02*
X142140338Y-52677035D01*
X142140338Y-52677035D02*
X142102242Y-52753226D01*
X141607004Y-53134179D02*
X142140338Y-53134179D01*
X142407004Y-53134179D02*
X142368909Y-53096083D01*
X142368909Y-53096083D02*
X142330814Y-53134179D01*
X142330814Y-53134179D02*
X142368909Y-53172274D01*
X142368909Y-53172274D02*
X142407004Y-53134179D01*
X142407004Y-53134179D02*
X142330814Y-53134179D01*
X142140338Y-53400845D02*
X142140338Y-53705607D01*
X142407004Y-53515131D02*
X141721290Y-53515131D01*
X141721290Y-53515131D02*
X141645100Y-53553226D01*
X141645100Y-53553226D02*
X141607004Y-53629416D01*
X141607004Y-53629416D02*
X141607004Y-53705607D01*
X141607004Y-54315131D02*
X142026052Y-54315131D01*
X142026052Y-54315131D02*
X142102242Y-54277036D01*
X142102242Y-54277036D02*
X142140338Y-54200845D01*
X142140338Y-54200845D02*
X142140338Y-54048464D01*
X142140338Y-54048464D02*
X142102242Y-53972274D01*
X141645100Y-54315131D02*
X141607004Y-54238940D01*
X141607004Y-54238940D02*
X141607004Y-54048464D01*
X141607004Y-54048464D02*
X141645100Y-53972274D01*
X141645100Y-53972274D02*
X141721290Y-53934178D01*
X141721290Y-53934178D02*
X141797480Y-53934178D01*
X141797480Y-53934178D02*
X141873671Y-53972274D01*
X141873671Y-53972274D02*
X141911766Y-54048464D01*
X141911766Y-54048464D02*
X141911766Y-54238940D01*
X141911766Y-54238940D02*
X141949861Y-54315131D01*
X141607004Y-54810369D02*
X141645100Y-54734179D01*
X141645100Y-54734179D02*
X141721290Y-54696084D01*
X141721290Y-54696084D02*
X142407004Y-54696084D01*
X142140338Y-55610370D02*
X142140338Y-55915132D01*
X142407004Y-55724656D02*
X141721290Y-55724656D01*
X141721290Y-55724656D02*
X141645100Y-55762751D01*
X141645100Y-55762751D02*
X141607004Y-55838941D01*
X141607004Y-55838941D02*
X141607004Y-55915132D01*
X141645100Y-56486561D02*
X141607004Y-56410370D01*
X141607004Y-56410370D02*
X141607004Y-56257989D01*
X141607004Y-56257989D02*
X141645100Y-56181799D01*
X141645100Y-56181799D02*
X141721290Y-56143703D01*
X141721290Y-56143703D02*
X142026052Y-56143703D01*
X142026052Y-56143703D02*
X142102242Y-56181799D01*
X142102242Y-56181799D02*
X142140338Y-56257989D01*
X142140338Y-56257989D02*
X142140338Y-56410370D01*
X142140338Y-56410370D02*
X142102242Y-56486561D01*
X142102242Y-56486561D02*
X142026052Y-56524656D01*
X142026052Y-56524656D02*
X141949861Y-56524656D01*
X141949861Y-56524656D02*
X141873671Y-56143703D01*
X141607004Y-56867513D02*
X142140338Y-56867513D01*
X142064147Y-56867513D02*
X142102242Y-56905608D01*
X142102242Y-56905608D02*
X142140338Y-56981798D01*
X142140338Y-56981798D02*
X142140338Y-57096084D01*
X142140338Y-57096084D02*
X142102242Y-57172275D01*
X142102242Y-57172275D02*
X142026052Y-57210370D01*
X142026052Y-57210370D02*
X141607004Y-57210370D01*
X142026052Y-57210370D02*
X142102242Y-57248465D01*
X142102242Y-57248465D02*
X142140338Y-57324656D01*
X142140338Y-57324656D02*
X142140338Y-57438941D01*
X142140338Y-57438941D02*
X142102242Y-57515132D01*
X142102242Y-57515132D02*
X142026052Y-57553227D01*
X142026052Y-57553227D02*
X141607004Y-57553227D01*
X142140338Y-57934180D02*
X141340338Y-57934180D01*
X142102242Y-57934180D02*
X142140338Y-58010370D01*
X142140338Y-58010370D02*
X142140338Y-58162751D01*
X142140338Y-58162751D02*
X142102242Y-58238942D01*
X142102242Y-58238942D02*
X142064147Y-58277037D01*
X142064147Y-58277037D02*
X141987957Y-58315132D01*
X141987957Y-58315132D02*
X141759385Y-58315132D01*
X141759385Y-58315132D02*
X141683195Y-58277037D01*
X141683195Y-58277037D02*
X141645100Y-58238942D01*
X141645100Y-58238942D02*
X141607004Y-58162751D01*
X141607004Y-58162751D02*
X141607004Y-58010370D01*
X141607004Y-58010370D02*
X141645100Y-57934180D01*
D10*
X104836779Y-87369819D02*
X104836779Y-86369819D01*
X104836779Y-86369819D02*
X105170112Y-87084104D01*
X105170112Y-87084104D02*
X105503445Y-86369819D01*
X105503445Y-86369819D02*
X105503445Y-87369819D01*
X105979636Y-87369819D02*
X105979636Y-86369819D01*
X105979636Y-86369819D02*
X106360588Y-86369819D01*
X106360588Y-86369819D02*
X106455826Y-86417438D01*
X106455826Y-86417438D02*
X106503445Y-86465057D01*
X106503445Y-86465057D02*
X106551064Y-86560295D01*
X106551064Y-86560295D02*
X106551064Y-86703152D01*
X106551064Y-86703152D02*
X106503445Y-86798390D01*
X106503445Y-86798390D02*
X106455826Y-86846009D01*
X106455826Y-86846009D02*
X106360588Y-86893628D01*
X106360588Y-86893628D02*
X105979636Y-86893628D01*
X106979636Y-86369819D02*
X106979636Y-87179342D01*
X106979636Y-87179342D02*
X107027255Y-87274580D01*
X107027255Y-87274580D02*
X107074874Y-87322200D01*
X107074874Y-87322200D02*
X107170112Y-87369819D01*
X107170112Y-87369819D02*
X107360588Y-87369819D01*
X107360588Y-87369819D02*
X107455826Y-87322200D01*
X107455826Y-87322200D02*
X107503445Y-87274580D01*
X107503445Y-87274580D02*
X107551064Y-87179342D01*
X107551064Y-87179342D02*
X107551064Y-86369819D01*
X109217731Y-86369819D02*
X109027255Y-86369819D01*
X109027255Y-86369819D02*
X108932017Y-86417438D01*
X108932017Y-86417438D02*
X108884398Y-86465057D01*
X108884398Y-86465057D02*
X108789160Y-86607914D01*
X108789160Y-86607914D02*
X108741541Y-86798390D01*
X108741541Y-86798390D02*
X108741541Y-87179342D01*
X108741541Y-87179342D02*
X108789160Y-87274580D01*
X108789160Y-87274580D02*
X108836779Y-87322200D01*
X108836779Y-87322200D02*
X108932017Y-87369819D01*
X108932017Y-87369819D02*
X109122493Y-87369819D01*
X109122493Y-87369819D02*
X109217731Y-87322200D01*
X109217731Y-87322200D02*
X109265350Y-87274580D01*
X109265350Y-87274580D02*
X109312969Y-87179342D01*
X109312969Y-87179342D02*
X109312969Y-86941247D01*
X109312969Y-86941247D02*
X109265350Y-86846009D01*
X109265350Y-86846009D02*
X109217731Y-86798390D01*
X109217731Y-86798390D02*
X109122493Y-86750771D01*
X109122493Y-86750771D02*
X108932017Y-86750771D01*
X108932017Y-86750771D02*
X108836779Y-86798390D01*
X108836779Y-86798390D02*
X108789160Y-86846009D01*
X108789160Y-86846009D02*
X108741541Y-86941247D01*
X109932017Y-86369819D02*
X110027255Y-86369819D01*
X110027255Y-86369819D02*
X110122493Y-86417438D01*
X110122493Y-86417438D02*
X110170112Y-86465057D01*
X110170112Y-86465057D02*
X110217731Y-86560295D01*
X110217731Y-86560295D02*
X110265350Y-86750771D01*
X110265350Y-86750771D02*
X110265350Y-86988866D01*
X110265350Y-86988866D02*
X110217731Y-87179342D01*
X110217731Y-87179342D02*
X110170112Y-87274580D01*
X110170112Y-87274580D02*
X110122493Y-87322200D01*
X110122493Y-87322200D02*
X110027255Y-87369819D01*
X110027255Y-87369819D02*
X109932017Y-87369819D01*
X109932017Y-87369819D02*
X109836779Y-87322200D01*
X109836779Y-87322200D02*
X109789160Y-87274580D01*
X109789160Y-87274580D02*
X109741541Y-87179342D01*
X109741541Y-87179342D02*
X109693922Y-86988866D01*
X109693922Y-86988866D02*
X109693922Y-86750771D01*
X109693922Y-86750771D02*
X109741541Y-86560295D01*
X109741541Y-86560295D02*
X109789160Y-86465057D01*
X109789160Y-86465057D02*
X109836779Y-86417438D01*
X109836779Y-86417438D02*
X109932017Y-86369819D01*
X111170112Y-86369819D02*
X110693922Y-86369819D01*
X110693922Y-86369819D02*
X110646303Y-86846009D01*
X110646303Y-86846009D02*
X110693922Y-86798390D01*
X110693922Y-86798390D02*
X110789160Y-86750771D01*
X110789160Y-86750771D02*
X111027255Y-86750771D01*
X111027255Y-86750771D02*
X111122493Y-86798390D01*
X111122493Y-86798390D02*
X111170112Y-86846009D01*
X111170112Y-86846009D02*
X111217731Y-86941247D01*
X111217731Y-86941247D02*
X111217731Y-87179342D01*
X111217731Y-87179342D02*
X111170112Y-87274580D01*
X111170112Y-87274580D02*
X111122493Y-87322200D01*
X111122493Y-87322200D02*
X111027255Y-87369819D01*
X111027255Y-87369819D02*
X110789160Y-87369819D01*
X110789160Y-87369819D02*
X110693922Y-87322200D01*
X110693922Y-87322200D02*
X110646303Y-87274580D01*
X111836779Y-86369819D02*
X111932017Y-86369819D01*
X111932017Y-86369819D02*
X112027255Y-86417438D01*
X112027255Y-86417438D02*
X112074874Y-86465057D01*
X112074874Y-86465057D02*
X112122493Y-86560295D01*
X112122493Y-86560295D02*
X112170112Y-86750771D01*
X112170112Y-86750771D02*
X112170112Y-86988866D01*
X112170112Y-86988866D02*
X112122493Y-87179342D01*
X112122493Y-87179342D02*
X112074874Y-87274580D01*
X112074874Y-87274580D02*
X112027255Y-87322200D01*
X112027255Y-87322200D02*
X111932017Y-87369819D01*
X111932017Y-87369819D02*
X111836779Y-87369819D01*
X111836779Y-87369819D02*
X111741541Y-87322200D01*
X111741541Y-87322200D02*
X111693922Y-87274580D01*
X111693922Y-87274580D02*
X111646303Y-87179342D01*
X111646303Y-87179342D02*
X111598684Y-86988866D01*
X111598684Y-86988866D02*
X111598684Y-86750771D01*
X111598684Y-86750771D02*
X111646303Y-86560295D01*
X111646303Y-86560295D02*
X111693922Y-86465057D01*
X111693922Y-86465057D02*
X111741541Y-86417438D01*
X111741541Y-86417438D02*
X111836779Y-86369819D01*
X124624819Y-97793333D02*
X125339104Y-97793333D01*
X125339104Y-97793333D02*
X125481961Y-97840952D01*
X125481961Y-97840952D02*
X125577200Y-97936190D01*
X125577200Y-97936190D02*
X125624819Y-98079047D01*
X125624819Y-98079047D02*
X125624819Y-98174285D01*
X125624819Y-96793333D02*
X125624819Y-97364761D01*
X125624819Y-97079047D02*
X124624819Y-97079047D01*
X124624819Y-97079047D02*
X124767676Y-97174285D01*
X124767676Y-97174285D02*
X124862914Y-97269523D01*
X124862914Y-97269523D02*
X124910533Y-97364761D01*
X166026666Y-95934819D02*
X166026666Y-96649104D01*
X166026666Y-96649104D02*
X165979047Y-96791961D01*
X165979047Y-96791961D02*
X165883809Y-96887200D01*
X165883809Y-96887200D02*
X165740952Y-96934819D01*
X165740952Y-96934819D02*
X165645714Y-96934819D01*
X166407619Y-95934819D02*
X167026666Y-95934819D01*
X167026666Y-95934819D02*
X166693333Y-96315771D01*
X166693333Y-96315771D02*
X166836190Y-96315771D01*
X166836190Y-96315771D02*
X166931428Y-96363390D01*
X166931428Y-96363390D02*
X166979047Y-96411009D01*
X166979047Y-96411009D02*
X167026666Y-96506247D01*
X167026666Y-96506247D02*
X167026666Y-96744342D01*
X167026666Y-96744342D02*
X166979047Y-96839580D01*
X166979047Y-96839580D02*
X166931428Y-96887200D01*
X166931428Y-96887200D02*
X166836190Y-96934819D01*
X166836190Y-96934819D02*
X166550476Y-96934819D01*
X166550476Y-96934819D02*
X166455238Y-96887200D01*
X166455238Y-96887200D02*
X166407619Y-96839580D01*
X115480819Y-49533333D02*
X116195104Y-49533333D01*
X116195104Y-49533333D02*
X116337961Y-49580952D01*
X116337961Y-49580952D02*
X116433200Y-49676190D01*
X116433200Y-49676190D02*
X116480819Y-49819047D01*
X116480819Y-49819047D02*
X116480819Y-49914285D01*
X115576057Y-49104761D02*
X115528438Y-49057142D01*
X115528438Y-49057142D02*
X115480819Y-48961904D01*
X115480819Y-48961904D02*
X115480819Y-48723809D01*
X115480819Y-48723809D02*
X115528438Y-48628571D01*
X115528438Y-48628571D02*
X115576057Y-48580952D01*
X115576057Y-48580952D02*
X115671295Y-48533333D01*
X115671295Y-48533333D02*
X115766533Y-48533333D01*
X115766533Y-48533333D02*
X115909390Y-48580952D01*
X115909390Y-48580952D02*
X116480819Y-49152380D01*
X116480819Y-49152380D02*
X116480819Y-48533333D01*
X164386666Y-51484819D02*
X164386666Y-52199104D01*
X164386666Y-52199104D02*
X164339047Y-52341961D01*
X164339047Y-52341961D02*
X164243809Y-52437200D01*
X164243809Y-52437200D02*
X164100952Y-52484819D01*
X164100952Y-52484819D02*
X164005714Y-52484819D01*
X165291428Y-51818152D02*
X165291428Y-52484819D01*
X165053333Y-51437200D02*
X164815238Y-52151485D01*
X164815238Y-52151485D02*
X165434285Y-52151485D01*
X159666667Y-55407200D02*
X159809524Y-55454819D01*
X159809524Y-55454819D02*
X160047619Y-55454819D01*
X160047619Y-55454819D02*
X160142857Y-55407200D01*
X160142857Y-55407200D02*
X160190476Y-55359580D01*
X160190476Y-55359580D02*
X160238095Y-55264342D01*
X160238095Y-55264342D02*
X160238095Y-55169104D01*
X160238095Y-55169104D02*
X160190476Y-55073866D01*
X160190476Y-55073866D02*
X160142857Y-55026247D01*
X160142857Y-55026247D02*
X160047619Y-54978628D01*
X160047619Y-54978628D02*
X159857143Y-54931009D01*
X159857143Y-54931009D02*
X159761905Y-54883390D01*
X159761905Y-54883390D02*
X159714286Y-54835771D01*
X159714286Y-54835771D02*
X159666667Y-54740533D01*
X159666667Y-54740533D02*
X159666667Y-54645295D01*
X159666667Y-54645295D02*
X159714286Y-54550057D01*
X159714286Y-54550057D02*
X159761905Y-54502438D01*
X159761905Y-54502438D02*
X159857143Y-54454819D01*
X159857143Y-54454819D02*
X160095238Y-54454819D01*
X160095238Y-54454819D02*
X160238095Y-54502438D01*
X160571429Y-54454819D02*
X160809524Y-55454819D01*
X160809524Y-55454819D02*
X161000000Y-54740533D01*
X161000000Y-54740533D02*
X161190476Y-55454819D01*
X161190476Y-55454819D02*
X161428572Y-54454819D01*
X162238095Y-54788152D02*
X162238095Y-55454819D01*
X162000000Y-54407200D02*
X161761905Y-55121485D01*
X161761905Y-55121485D02*
X162380952Y-55121485D01*
X134761905Y-76954819D02*
X134761905Y-75954819D01*
X134761905Y-75954819D02*
X135000000Y-75954819D01*
X135000000Y-75954819D02*
X135142857Y-76002438D01*
X135142857Y-76002438D02*
X135238095Y-76097676D01*
X135238095Y-76097676D02*
X135285714Y-76192914D01*
X135285714Y-76192914D02*
X135333333Y-76383390D01*
X135333333Y-76383390D02*
X135333333Y-76526247D01*
X135333333Y-76526247D02*
X135285714Y-76716723D01*
X135285714Y-76716723D02*
X135238095Y-76811961D01*
X135238095Y-76811961D02*
X135142857Y-76907200D01*
X135142857Y-76907200D02*
X135000000Y-76954819D01*
X135000000Y-76954819D02*
X134761905Y-76954819D01*
X136285714Y-76954819D02*
X135714286Y-76954819D01*
X136000000Y-76954819D02*
X136000000Y-75954819D01*
X136000000Y-75954819D02*
X135904762Y-76097676D01*
X135904762Y-76097676D02*
X135809524Y-76192914D01*
X135809524Y-76192914D02*
X135714286Y-76240533D01*
X147416667Y-85157200D02*
X147559524Y-85204819D01*
X147559524Y-85204819D02*
X147797619Y-85204819D01*
X147797619Y-85204819D02*
X147892857Y-85157200D01*
X147892857Y-85157200D02*
X147940476Y-85109580D01*
X147940476Y-85109580D02*
X147988095Y-85014342D01*
X147988095Y-85014342D02*
X147988095Y-84919104D01*
X147988095Y-84919104D02*
X147940476Y-84823866D01*
X147940476Y-84823866D02*
X147892857Y-84776247D01*
X147892857Y-84776247D02*
X147797619Y-84728628D01*
X147797619Y-84728628D02*
X147607143Y-84681009D01*
X147607143Y-84681009D02*
X147511905Y-84633390D01*
X147511905Y-84633390D02*
X147464286Y-84585771D01*
X147464286Y-84585771D02*
X147416667Y-84490533D01*
X147416667Y-84490533D02*
X147416667Y-84395295D01*
X147416667Y-84395295D02*
X147464286Y-84300057D01*
X147464286Y-84300057D02*
X147511905Y-84252438D01*
X147511905Y-84252438D02*
X147607143Y-84204819D01*
X147607143Y-84204819D02*
X147845238Y-84204819D01*
X147845238Y-84204819D02*
X147988095Y-84252438D01*
X148321429Y-84204819D02*
X148559524Y-85204819D01*
X148559524Y-85204819D02*
X148750000Y-84490533D01*
X148750000Y-84490533D02*
X148940476Y-85204819D01*
X148940476Y-85204819D02*
X149178572Y-84204819D01*
X150035714Y-84204819D02*
X149559524Y-84204819D01*
X149559524Y-84204819D02*
X149511905Y-84681009D01*
X149511905Y-84681009D02*
X149559524Y-84633390D01*
X149559524Y-84633390D02*
X149654762Y-84585771D01*
X149654762Y-84585771D02*
X149892857Y-84585771D01*
X149892857Y-84585771D02*
X149988095Y-84633390D01*
X149988095Y-84633390D02*
X150035714Y-84681009D01*
X150035714Y-84681009D02*
X150083333Y-84776247D01*
X150083333Y-84776247D02*
X150083333Y-85014342D01*
X150083333Y-85014342D02*
X150035714Y-85109580D01*
X150035714Y-85109580D02*
X149988095Y-85157200D01*
X149988095Y-85157200D02*
X149892857Y-85204819D01*
X149892857Y-85204819D02*
X149654762Y-85204819D01*
X149654762Y-85204819D02*
X149559524Y-85157200D01*
X149559524Y-85157200D02*
X149511905Y-85109580D01*
X151166667Y-64407200D02*
X151309524Y-64454819D01*
X151309524Y-64454819D02*
X151547619Y-64454819D01*
X151547619Y-64454819D02*
X151642857Y-64407200D01*
X151642857Y-64407200D02*
X151690476Y-64359580D01*
X151690476Y-64359580D02*
X151738095Y-64264342D01*
X151738095Y-64264342D02*
X151738095Y-64169104D01*
X151738095Y-64169104D02*
X151690476Y-64073866D01*
X151690476Y-64073866D02*
X151642857Y-64026247D01*
X151642857Y-64026247D02*
X151547619Y-63978628D01*
X151547619Y-63978628D02*
X151357143Y-63931009D01*
X151357143Y-63931009D02*
X151261905Y-63883390D01*
X151261905Y-63883390D02*
X151214286Y-63835771D01*
X151214286Y-63835771D02*
X151166667Y-63740533D01*
X151166667Y-63740533D02*
X151166667Y-63645295D01*
X151166667Y-63645295D02*
X151214286Y-63550057D01*
X151214286Y-63550057D02*
X151261905Y-63502438D01*
X151261905Y-63502438D02*
X151357143Y-63454819D01*
X151357143Y-63454819D02*
X151595238Y-63454819D01*
X151595238Y-63454819D02*
X151738095Y-63502438D01*
X152071429Y-63454819D02*
X152309524Y-64454819D01*
X152309524Y-64454819D02*
X152500000Y-63740533D01*
X152500000Y-63740533D02*
X152690476Y-64454819D01*
X152690476Y-64454819D02*
X152928572Y-63454819D01*
X153261905Y-63550057D02*
X153309524Y-63502438D01*
X153309524Y-63502438D02*
X153404762Y-63454819D01*
X153404762Y-63454819D02*
X153642857Y-63454819D01*
X153642857Y-63454819D02*
X153738095Y-63502438D01*
X153738095Y-63502438D02*
X153785714Y-63550057D01*
X153785714Y-63550057D02*
X153833333Y-63645295D01*
X153833333Y-63645295D02*
X153833333Y-63740533D01*
X153833333Y-63740533D02*
X153785714Y-63883390D01*
X153785714Y-63883390D02*
X153214286Y-64454819D01*
X153214286Y-64454819D02*
X153833333Y-64454819D01*
X144454819Y-68746666D02*
X143978628Y-69079999D01*
X144454819Y-69318094D02*
X143454819Y-69318094D01*
X143454819Y-69318094D02*
X143454819Y-68937142D01*
X143454819Y-68937142D02*
X143502438Y-68841904D01*
X143502438Y-68841904D02*
X143550057Y-68794285D01*
X143550057Y-68794285D02*
X143645295Y-68746666D01*
X143645295Y-68746666D02*
X143788152Y-68746666D01*
X143788152Y-68746666D02*
X143883390Y-68794285D01*
X143883390Y-68794285D02*
X143931009Y-68841904D01*
X143931009Y-68841904D02*
X143978628Y-68937142D01*
X143978628Y-68937142D02*
X143978628Y-69318094D01*
X143788152Y-67889523D02*
X144454819Y-67889523D01*
X143407200Y-68127618D02*
X144121485Y-68365713D01*
X144121485Y-68365713D02*
X144121485Y-67746666D01*
X132954819Y-67086666D02*
X132478628Y-67419999D01*
X132954819Y-67658094D02*
X131954819Y-67658094D01*
X131954819Y-67658094D02*
X131954819Y-67277142D01*
X131954819Y-67277142D02*
X132002438Y-67181904D01*
X132002438Y-67181904D02*
X132050057Y-67134285D01*
X132050057Y-67134285D02*
X132145295Y-67086666D01*
X132145295Y-67086666D02*
X132288152Y-67086666D01*
X132288152Y-67086666D02*
X132383390Y-67134285D01*
X132383390Y-67134285D02*
X132431009Y-67181904D01*
X132431009Y-67181904D02*
X132478628Y-67277142D01*
X132478628Y-67277142D02*
X132478628Y-67658094D01*
X132954819Y-66134285D02*
X132954819Y-66705713D01*
X132954819Y-66419999D02*
X131954819Y-66419999D01*
X131954819Y-66419999D02*
X132097676Y-66515237D01*
X132097676Y-66515237D02*
X132192914Y-66610475D01*
X132192914Y-66610475D02*
X132240533Y-66705713D01*
X136166666Y-54929819D02*
X136166666Y-55644104D01*
X136166666Y-55644104D02*
X136119047Y-55786961D01*
X136119047Y-55786961D02*
X136023809Y-55882200D01*
X136023809Y-55882200D02*
X135880952Y-55929819D01*
X135880952Y-55929819D02*
X135785714Y-55929819D01*
X136547619Y-54929819D02*
X137214285Y-54929819D01*
X137214285Y-54929819D02*
X136785714Y-55929819D01*
X147916667Y-55407200D02*
X148059524Y-55454819D01*
X148059524Y-55454819D02*
X148297619Y-55454819D01*
X148297619Y-55454819D02*
X148392857Y-55407200D01*
X148392857Y-55407200D02*
X148440476Y-55359580D01*
X148440476Y-55359580D02*
X148488095Y-55264342D01*
X148488095Y-55264342D02*
X148488095Y-55169104D01*
X148488095Y-55169104D02*
X148440476Y-55073866D01*
X148440476Y-55073866D02*
X148392857Y-55026247D01*
X148392857Y-55026247D02*
X148297619Y-54978628D01*
X148297619Y-54978628D02*
X148107143Y-54931009D01*
X148107143Y-54931009D02*
X148011905Y-54883390D01*
X148011905Y-54883390D02*
X147964286Y-54835771D01*
X147964286Y-54835771D02*
X147916667Y-54740533D01*
X147916667Y-54740533D02*
X147916667Y-54645295D01*
X147916667Y-54645295D02*
X147964286Y-54550057D01*
X147964286Y-54550057D02*
X148011905Y-54502438D01*
X148011905Y-54502438D02*
X148107143Y-54454819D01*
X148107143Y-54454819D02*
X148345238Y-54454819D01*
X148345238Y-54454819D02*
X148488095Y-54502438D01*
X148821429Y-54454819D02*
X149059524Y-55454819D01*
X149059524Y-55454819D02*
X149250000Y-54740533D01*
X149250000Y-54740533D02*
X149440476Y-55454819D01*
X149440476Y-55454819D02*
X149678572Y-54454819D01*
X149964286Y-54454819D02*
X150583333Y-54454819D01*
X150583333Y-54454819D02*
X150250000Y-54835771D01*
X150250000Y-54835771D02*
X150392857Y-54835771D01*
X150392857Y-54835771D02*
X150488095Y-54883390D01*
X150488095Y-54883390D02*
X150535714Y-54931009D01*
X150535714Y-54931009D02*
X150583333Y-55026247D01*
X150583333Y-55026247D02*
X150583333Y-55264342D01*
X150583333Y-55264342D02*
X150535714Y-55359580D01*
X150535714Y-55359580D02*
X150488095Y-55407200D01*
X150488095Y-55407200D02*
X150392857Y-55454819D01*
X150392857Y-55454819D02*
X150107143Y-55454819D01*
X150107143Y-55454819D02*
X150011905Y-55407200D01*
X150011905Y-55407200D02*
X149964286Y-55359580D01*
X121924819Y-78873333D02*
X122639104Y-78873333D01*
X122639104Y-78873333D02*
X122781961Y-78920952D01*
X122781961Y-78920952D02*
X122877200Y-79016190D01*
X122877200Y-79016190D02*
X122924819Y-79159047D01*
X122924819Y-79159047D02*
X122924819Y-79254285D01*
X121924819Y-77968571D02*
X121924819Y-78159047D01*
X121924819Y-78159047D02*
X121972438Y-78254285D01*
X121972438Y-78254285D02*
X122020057Y-78301904D01*
X122020057Y-78301904D02*
X122162914Y-78397142D01*
X122162914Y-78397142D02*
X122353390Y-78444761D01*
X122353390Y-78444761D02*
X122734342Y-78444761D01*
X122734342Y-78444761D02*
X122829580Y-78397142D01*
X122829580Y-78397142D02*
X122877200Y-78349523D01*
X122877200Y-78349523D02*
X122924819Y-78254285D01*
X122924819Y-78254285D02*
X122924819Y-78063809D01*
X122924819Y-78063809D02*
X122877200Y-77968571D01*
X122877200Y-77968571D02*
X122829580Y-77920952D01*
X122829580Y-77920952D02*
X122734342Y-77873333D01*
X122734342Y-77873333D02*
X122496247Y-77873333D01*
X122496247Y-77873333D02*
X122401009Y-77920952D01*
X122401009Y-77920952D02*
X122353390Y-77968571D01*
X122353390Y-77968571D02*
X122305771Y-78063809D01*
X122305771Y-78063809D02*
X122305771Y-78254285D01*
X122305771Y-78254285D02*
X122353390Y-78349523D01*
X122353390Y-78349523D02*
X122401009Y-78397142D01*
X122401009Y-78397142D02*
X122496247Y-78444761D01*
X160916667Y-63907200D02*
X161059524Y-63954819D01*
X161059524Y-63954819D02*
X161297619Y-63954819D01*
X161297619Y-63954819D02*
X161392857Y-63907200D01*
X161392857Y-63907200D02*
X161440476Y-63859580D01*
X161440476Y-63859580D02*
X161488095Y-63764342D01*
X161488095Y-63764342D02*
X161488095Y-63669104D01*
X161488095Y-63669104D02*
X161440476Y-63573866D01*
X161440476Y-63573866D02*
X161392857Y-63526247D01*
X161392857Y-63526247D02*
X161297619Y-63478628D01*
X161297619Y-63478628D02*
X161107143Y-63431009D01*
X161107143Y-63431009D02*
X161011905Y-63383390D01*
X161011905Y-63383390D02*
X160964286Y-63335771D01*
X160964286Y-63335771D02*
X160916667Y-63240533D01*
X160916667Y-63240533D02*
X160916667Y-63145295D01*
X160916667Y-63145295D02*
X160964286Y-63050057D01*
X160964286Y-63050057D02*
X161011905Y-63002438D01*
X161011905Y-63002438D02*
X161107143Y-62954819D01*
X161107143Y-62954819D02*
X161345238Y-62954819D01*
X161345238Y-62954819D02*
X161488095Y-63002438D01*
X161821429Y-62954819D02*
X162059524Y-63954819D01*
X162059524Y-63954819D02*
X162250000Y-63240533D01*
X162250000Y-63240533D02*
X162440476Y-63954819D01*
X162440476Y-63954819D02*
X162678572Y-62954819D01*
X163583333Y-63954819D02*
X163011905Y-63954819D01*
X163297619Y-63954819D02*
X163297619Y-62954819D01*
X163297619Y-62954819D02*
X163202381Y-63097676D01*
X163202381Y-63097676D02*
X163107143Y-63192914D01*
X163107143Y-63192914D02*
X163011905Y-63240533D01*
X164454819Y-76246666D02*
X163978628Y-76579999D01*
X164454819Y-76818094D02*
X163454819Y-76818094D01*
X163454819Y-76818094D02*
X163454819Y-76437142D01*
X163454819Y-76437142D02*
X163502438Y-76341904D01*
X163502438Y-76341904D02*
X163550057Y-76294285D01*
X163550057Y-76294285D02*
X163645295Y-76246666D01*
X163645295Y-76246666D02*
X163788152Y-76246666D01*
X163788152Y-76246666D02*
X163883390Y-76294285D01*
X163883390Y-76294285D02*
X163931009Y-76341904D01*
X163931009Y-76341904D02*
X163978628Y-76437142D01*
X163978628Y-76437142D02*
X163978628Y-76818094D01*
X163454819Y-75341904D02*
X163454819Y-75818094D01*
X163454819Y-75818094D02*
X163931009Y-75865713D01*
X163931009Y-75865713D02*
X163883390Y-75818094D01*
X163883390Y-75818094D02*
X163835771Y-75722856D01*
X163835771Y-75722856D02*
X163835771Y-75484761D01*
X163835771Y-75484761D02*
X163883390Y-75389523D01*
X163883390Y-75389523D02*
X163931009Y-75341904D01*
X163931009Y-75341904D02*
X164026247Y-75294285D01*
X164026247Y-75294285D02*
X164264342Y-75294285D01*
X164264342Y-75294285D02*
X164359580Y-75341904D01*
X164359580Y-75341904D02*
X164407200Y-75389523D01*
X164407200Y-75389523D02*
X164454819Y-75484761D01*
X164454819Y-75484761D02*
X164454819Y-75722856D01*
X164454819Y-75722856D02*
X164407200Y-75818094D01*
X164407200Y-75818094D02*
X164359580Y-75865713D01*
X158954819Y-76246666D02*
X158478628Y-76579999D01*
X158954819Y-76818094D02*
X157954819Y-76818094D01*
X157954819Y-76818094D02*
X157954819Y-76437142D01*
X157954819Y-76437142D02*
X158002438Y-76341904D01*
X158002438Y-76341904D02*
X158050057Y-76294285D01*
X158050057Y-76294285D02*
X158145295Y-76246666D01*
X158145295Y-76246666D02*
X158288152Y-76246666D01*
X158288152Y-76246666D02*
X158383390Y-76294285D01*
X158383390Y-76294285D02*
X158431009Y-76341904D01*
X158431009Y-76341904D02*
X158478628Y-76437142D01*
X158478628Y-76437142D02*
X158478628Y-76818094D01*
X158050057Y-75865713D02*
X158002438Y-75818094D01*
X158002438Y-75818094D02*
X157954819Y-75722856D01*
X157954819Y-75722856D02*
X157954819Y-75484761D01*
X157954819Y-75484761D02*
X158002438Y-75389523D01*
X158002438Y-75389523D02*
X158050057Y-75341904D01*
X158050057Y-75341904D02*
X158145295Y-75294285D01*
X158145295Y-75294285D02*
X158240533Y-75294285D01*
X158240533Y-75294285D02*
X158383390Y-75341904D01*
X158383390Y-75341904D02*
X158954819Y-75913332D01*
X158954819Y-75913332D02*
X158954819Y-75294285D01*
X136889761Y-88914819D02*
X136556428Y-88438628D01*
X136318333Y-88914819D02*
X136318333Y-87914819D01*
X136318333Y-87914819D02*
X136699285Y-87914819D01*
X136699285Y-87914819D02*
X136794523Y-87962438D01*
X136794523Y-87962438D02*
X136842142Y-88010057D01*
X136842142Y-88010057D02*
X136889761Y-88105295D01*
X136889761Y-88105295D02*
X136889761Y-88248152D01*
X136889761Y-88248152D02*
X136842142Y-88343390D01*
X136842142Y-88343390D02*
X136794523Y-88391009D01*
X136794523Y-88391009D02*
X136699285Y-88438628D01*
X136699285Y-88438628D02*
X136318333Y-88438628D01*
X137175476Y-87914819D02*
X137508809Y-88914819D01*
X137508809Y-88914819D02*
X137842142Y-87914819D01*
X138699285Y-88914819D02*
X138127857Y-88914819D01*
X138413571Y-88914819D02*
X138413571Y-87914819D01*
X138413571Y-87914819D02*
X138318333Y-88057676D01*
X138318333Y-88057676D02*
X138223095Y-88152914D01*
X138223095Y-88152914D02*
X138127857Y-88200533D01*
X124666666Y-83454819D02*
X124666666Y-84169104D01*
X124666666Y-84169104D02*
X124619047Y-84311961D01*
X124619047Y-84311961D02*
X124523809Y-84407200D01*
X124523809Y-84407200D02*
X124380952Y-84454819D01*
X124380952Y-84454819D02*
X124285714Y-84454819D01*
X125619047Y-83454819D02*
X125142857Y-83454819D01*
X125142857Y-83454819D02*
X125095238Y-83931009D01*
X125095238Y-83931009D02*
X125142857Y-83883390D01*
X125142857Y-83883390D02*
X125238095Y-83835771D01*
X125238095Y-83835771D02*
X125476190Y-83835771D01*
X125476190Y-83835771D02*
X125571428Y-83883390D01*
X125571428Y-83883390D02*
X125619047Y-83931009D01*
X125619047Y-83931009D02*
X125666666Y-84026247D01*
X125666666Y-84026247D02*
X125666666Y-84264342D01*
X125666666Y-84264342D02*
X125619047Y-84359580D01*
X125619047Y-84359580D02*
X125571428Y-84407200D01*
X125571428Y-84407200D02*
X125476190Y-84454819D01*
X125476190Y-84454819D02*
X125238095Y-84454819D01*
X125238095Y-84454819D02*
X125142857Y-84407200D01*
X125142857Y-84407200D02*
X125095238Y-84359580D01*
X139954819Y-67666666D02*
X139478628Y-67999999D01*
X139954819Y-68238094D02*
X138954819Y-68238094D01*
X138954819Y-68238094D02*
X138954819Y-67857142D01*
X138954819Y-67857142D02*
X139002438Y-67761904D01*
X139002438Y-67761904D02*
X139050057Y-67714285D01*
X139050057Y-67714285D02*
X139145295Y-67666666D01*
X139145295Y-67666666D02*
X139288152Y-67666666D01*
X139288152Y-67666666D02*
X139383390Y-67714285D01*
X139383390Y-67714285D02*
X139431009Y-67761904D01*
X139431009Y-67761904D02*
X139478628Y-67857142D01*
X139478628Y-67857142D02*
X139478628Y-68238094D01*
X138954819Y-66809523D02*
X138954819Y-66999999D01*
X138954819Y-66999999D02*
X139002438Y-67095237D01*
X139002438Y-67095237D02*
X139050057Y-67142856D01*
X139050057Y-67142856D02*
X139192914Y-67238094D01*
X139192914Y-67238094D02*
X139383390Y-67285713D01*
X139383390Y-67285713D02*
X139764342Y-67285713D01*
X139764342Y-67285713D02*
X139859580Y-67238094D01*
X139859580Y-67238094D02*
X139907200Y-67190475D01*
X139907200Y-67190475D02*
X139954819Y-67095237D01*
X139954819Y-67095237D02*
X139954819Y-66904761D01*
X139954819Y-66904761D02*
X139907200Y-66809523D01*
X139907200Y-66809523D02*
X139859580Y-66761904D01*
X139859580Y-66761904D02*
X139764342Y-66714285D01*
X139764342Y-66714285D02*
X139526247Y-66714285D01*
X139526247Y-66714285D02*
X139431009Y-66761904D01*
X139431009Y-66761904D02*
X139383390Y-66809523D01*
X139383390Y-66809523D02*
X139335771Y-66904761D01*
X139335771Y-66904761D02*
X139335771Y-67095237D01*
X139335771Y-67095237D02*
X139383390Y-67190475D01*
X139383390Y-67190475D02*
X139431009Y-67238094D01*
X139431009Y-67238094D02*
X139526247Y-67285713D01*
X148753333Y-78454819D02*
X148420000Y-77978628D01*
X148181905Y-78454819D02*
X148181905Y-77454819D01*
X148181905Y-77454819D02*
X148562857Y-77454819D01*
X148562857Y-77454819D02*
X148658095Y-77502438D01*
X148658095Y-77502438D02*
X148705714Y-77550057D01*
X148705714Y-77550057D02*
X148753333Y-77645295D01*
X148753333Y-77645295D02*
X148753333Y-77788152D01*
X148753333Y-77788152D02*
X148705714Y-77883390D01*
X148705714Y-77883390D02*
X148658095Y-77931009D01*
X148658095Y-77931009D02*
X148562857Y-77978628D01*
X148562857Y-77978628D02*
X148181905Y-77978628D01*
X149086667Y-77454819D02*
X149705714Y-77454819D01*
X149705714Y-77454819D02*
X149372381Y-77835771D01*
X149372381Y-77835771D02*
X149515238Y-77835771D01*
X149515238Y-77835771D02*
X149610476Y-77883390D01*
X149610476Y-77883390D02*
X149658095Y-77931009D01*
X149658095Y-77931009D02*
X149705714Y-78026247D01*
X149705714Y-78026247D02*
X149705714Y-78264342D01*
X149705714Y-78264342D02*
X149658095Y-78359580D01*
X149658095Y-78359580D02*
X149610476Y-78407200D01*
X149610476Y-78407200D02*
X149515238Y-78454819D01*
X149515238Y-78454819D02*
X149229524Y-78454819D01*
X149229524Y-78454819D02*
X149134286Y-78407200D01*
X149134286Y-78407200D02*
X149086667Y-78359580D01*
D13*
%TO.C,J1*%
X126610000Y-96130000D02*
X127940000Y-96130000D01*
X126610000Y-97460000D02*
X126610000Y-96130000D01*
X129210000Y-96130000D02*
X147050000Y-96130000D01*
X129210000Y-98790000D02*
X129210000Y-96130000D01*
X129210000Y-98790000D02*
X147050000Y-98790000D01*
X147050000Y-98790000D02*
X147050000Y-96130000D01*
%TO.C,J3*%
X149470000Y-96130000D02*
X150800000Y-96130000D01*
X149470000Y-97460000D02*
X149470000Y-96130000D01*
X152070000Y-96130000D02*
X164830000Y-96130000D01*
X152070000Y-98790000D02*
X152070000Y-96130000D01*
X152070000Y-98790000D02*
X164830000Y-98790000D01*
X164830000Y-98790000D02*
X164830000Y-96130000D01*
%TO.C,J2*%
X117466000Y-47870000D02*
X118796000Y-47870000D01*
X117466000Y-49200000D02*
X117466000Y-47870000D01*
X120066000Y-47870000D02*
X142986000Y-47870000D01*
X120066000Y-50530000D02*
X120066000Y-47870000D01*
X120066000Y-50530000D02*
X142986000Y-50530000D01*
X142986000Y-50530000D02*
X142986000Y-47870000D01*
%TO.C,J4*%
X144390000Y-47870000D02*
X145720000Y-47870000D01*
X144390000Y-49200000D02*
X144390000Y-47870000D01*
X146990000Y-47870000D02*
X164830000Y-47870000D01*
X146990000Y-50530000D02*
X146990000Y-47870000D01*
X146990000Y-50530000D02*
X164830000Y-50530000D01*
X164830000Y-50530000D02*
X164830000Y-47870000D01*
%TO.C,SW4*%
X156750000Y-55500000D02*
X156750000Y-57000000D01*
X158000000Y-59500000D02*
X162500000Y-59500000D01*
X162500000Y-53000000D02*
X158000000Y-53000000D01*
X163750000Y-57000000D02*
X163750000Y-55500000D01*
%TO.C,D1*%
X131955000Y-79565000D02*
X135045000Y-79565000D01*
X131955170Y-79565000D02*
G75*
G02*
X133500462Y-74015000I1544830J2560000D01*
G01*
X133499538Y-74015000D02*
G75*
G02*
X135044830Y-79565000I462J-2990000D01*
G01*
X136000000Y-77005000D02*
G75*
G02*
X131000000Y-77005000I-2500000J0D01*
G01*
X131000000Y-77005000D02*
G75*
G02*
X136000000Y-77005000I2500000J0D01*
G01*
%TO.C,SW5*%
X145250000Y-84000000D02*
X145250000Y-85500000D01*
X146500000Y-88000000D02*
X151000000Y-88000000D01*
X151000000Y-81500000D02*
X146500000Y-81500000D01*
X152250000Y-85500000D02*
X152250000Y-84000000D01*
%TO.C,SW2*%
X148750000Y-64500000D02*
X148750000Y-66000000D01*
X150000000Y-68500000D02*
X154500000Y-68500000D01*
X154500000Y-62000000D02*
X150000000Y-62000000D01*
X155750000Y-66000000D02*
X155750000Y-64500000D01*
%TO.C,R4*%
X142630000Y-65310000D02*
X142630000Y-71850000D01*
X142630000Y-71850000D02*
X145370000Y-71850000D01*
X144000000Y-64540000D02*
X144000000Y-65310000D01*
X144000000Y-72620000D02*
X144000000Y-71850000D01*
X145370000Y-65310000D02*
X142630000Y-65310000D01*
X145370000Y-71850000D02*
X145370000Y-65310000D01*
%TO.C,R1*%
X131130000Y-63650000D02*
X131130000Y-70190000D01*
X131130000Y-70190000D02*
X133870000Y-70190000D01*
X132500000Y-62880000D02*
X132500000Y-63650000D01*
X132500000Y-70960000D02*
X132500000Y-70190000D01*
X133870000Y-63650000D02*
X131130000Y-63650000D01*
X133870000Y-70190000D02*
X133870000Y-63650000D01*
%TO.C,J7*%
X131150000Y-52725000D02*
X131150000Y-53975000D01*
X131440000Y-53015000D02*
X131440000Y-58985000D01*
X131440000Y-58985000D02*
X141560000Y-58985000D01*
X131450000Y-53025000D02*
X131450000Y-53775000D01*
X131450000Y-53775000D02*
X133250000Y-53775000D01*
X131450000Y-55275000D02*
X132200000Y-55275000D01*
X132200000Y-55275000D02*
X132200000Y-58225000D01*
X132200000Y-58225000D02*
X136500000Y-58225000D01*
X132400000Y-52725000D02*
X131150000Y-52725000D01*
X133250000Y-53025000D02*
X131450000Y-53025000D01*
X133250000Y-53775000D02*
X133250000Y-53025000D01*
X134750000Y-53025000D02*
X134750000Y-53775000D01*
X134750000Y-53775000D02*
X138250000Y-53775000D01*
X138250000Y-53025000D02*
X134750000Y-53025000D01*
X138250000Y-53775000D02*
X138250000Y-53025000D01*
X139750000Y-53025000D02*
X139750000Y-53775000D01*
X139750000Y-53775000D02*
X141550000Y-53775000D01*
X140800000Y-55275000D02*
X140800000Y-58225000D01*
X140800000Y-58225000D02*
X136500000Y-58225000D01*
X141550000Y-53025000D02*
X139750000Y-53025000D01*
X141550000Y-53775000D02*
X141550000Y-53025000D01*
X141550000Y-55275000D02*
X140800000Y-55275000D01*
X141560000Y-53015000D02*
X131440000Y-53015000D01*
X141560000Y-58985000D02*
X141560000Y-53015000D01*
%TO.C,SW3*%
X145750000Y-55500000D02*
X145750000Y-57000000D01*
X147000000Y-59500000D02*
X151500000Y-59500000D01*
X151500000Y-53000000D02*
X147000000Y-53000000D01*
X152750000Y-57000000D02*
X152750000Y-55500000D01*
%TO.C,J6*%
X110750000Y-77210000D02*
X110750000Y-79870000D01*
X118430000Y-77210000D02*
X110750000Y-77210000D01*
X118430000Y-77210000D02*
X118430000Y-79870000D01*
X118430000Y-79870000D02*
X110750000Y-79870000D01*
X121030000Y-78540000D02*
X121030000Y-79870000D01*
X121030000Y-79870000D02*
X119700000Y-79870000D01*
%TO.C,SW1*%
X158750000Y-64000000D02*
X158750000Y-65500000D01*
X160000000Y-68000000D02*
X164500000Y-68000000D01*
X164500000Y-61500000D02*
X160000000Y-61500000D01*
X165750000Y-65500000D02*
X165750000Y-64000000D01*
%TO.C,R5*%
X162630000Y-72810000D02*
X162630000Y-79350000D01*
X162630000Y-79350000D02*
X165370000Y-79350000D01*
X164000000Y-72040000D02*
X164000000Y-72810000D01*
X164000000Y-80120000D02*
X164000000Y-79350000D01*
X165370000Y-72810000D02*
X162630000Y-72810000D01*
X165370000Y-79350000D02*
X165370000Y-72810000D01*
%TO.C,R2*%
X157130000Y-72810000D02*
X157130000Y-79350000D01*
X157130000Y-79350000D02*
X159870000Y-79350000D01*
X158500000Y-72040000D02*
X158500000Y-72810000D01*
X158500000Y-80120000D02*
X158500000Y-79350000D01*
X159870000Y-72810000D02*
X157130000Y-72810000D01*
X159870000Y-79350000D02*
X159870000Y-72810000D01*
%TO.C,RV1*%
X132600000Y-83575000D02*
X132600000Y-93345000D01*
X132600000Y-83575000D02*
X142370000Y-83575000D01*
X132600000Y-93345000D02*
X142370000Y-93345000D01*
X142370000Y-83575000D02*
X142370000Y-93345000D01*
%TO.C,J5*%
X103270000Y-82420000D02*
X103270000Y-85080000D01*
X121110000Y-82420000D02*
X103270000Y-82420000D01*
X121110000Y-82420000D02*
X121110000Y-85080000D01*
X121110000Y-85080000D02*
X103270000Y-85080000D01*
X123710000Y-83750000D02*
X123710000Y-85080000D01*
X123710000Y-85080000D02*
X122380000Y-85080000D01*
%TO.C,R6*%
X138130000Y-64230000D02*
X138130000Y-70770000D01*
X138130000Y-70770000D02*
X140870000Y-70770000D01*
X139500000Y-63460000D02*
X139500000Y-64230000D01*
X139500000Y-71540000D02*
X139500000Y-70770000D01*
X140870000Y-64230000D02*
X138130000Y-64230000D01*
X140870000Y-70770000D02*
X140870000Y-64230000D01*
%TO.C,R3*%
X144880000Y-78000000D02*
X145650000Y-78000000D01*
X145650000Y-76630000D02*
X145650000Y-79370000D01*
X145650000Y-79370000D02*
X152190000Y-79370000D01*
X152190000Y-76630000D02*
X145650000Y-76630000D01*
X152190000Y-79370000D02*
X152190000Y-76630000D01*
X152960000Y-78000000D02*
X152190000Y-78000000D01*
%TD*%
M02*
