%TF.GenerationSoftware,KiCad,Pcbnew,8.0.8*%
%TF.CreationDate,2025-02-04T10:54:44-07:00*%
%TF.ProjectId,Uno_Shield_ThermoPro,556e6f5f-5368-4696-956c-645f54686572,rev?*%
%TF.SameCoordinates,Original*%
%TF.FileFunction,Copper,L1,Top*%
%TF.FilePolarity,Positive*%
%FSLAX46Y46*%
G04 Gerber Fmt 4.6, Leading zero omitted, Abs format (unit mm)*
G04 Created by KiCad (PCBNEW 8.0.8) date 2025-02-04 10:54:44*
%MOMM*%
%LPD*%
G01*
G04 APERTURE LIST*
G04 Aperture macros list*
%AMRoundRect*
0 Rectangle with rounded corners*
0 $1 Rounding radius*
0 $2 $3 $4 $5 $6 $7 $8 $9 X,Y pos of 4 corners*
0 Add a 4 corners polygon primitive as box body*
4,1,4,$2,$3,$4,$5,$6,$7,$8,$9,$2,$3,0*
0 Add four circle primitives for the rounded corners*
1,1,$1+$1,$2,$3*
1,1,$1+$1,$4,$5*
1,1,$1+$1,$6,$7*
1,1,$1+$1,$8,$9*
0 Add four rect primitives between the rounded corners*
20,1,$1+$1,$2,$3,$4,$5,0*
20,1,$1+$1,$4,$5,$6,$7,0*
20,1,$1+$1,$6,$7,$8,$9,0*
20,1,$1+$1,$8,$9,$2,$3,0*%
G04 Aperture macros list end*
%TA.AperFunction,ComponentPad*%
%ADD10R,1.700000X1.700000*%
%TD*%
%TA.AperFunction,ComponentPad*%
%ADD11O,1.700000X1.700000*%
%TD*%
%TA.AperFunction,ComponentPad*%
%ADD12C,2.000000*%
%TD*%
%TA.AperFunction,ComponentPad*%
%ADD13R,1.800000X1.800000*%
%TD*%
%TA.AperFunction,ComponentPad*%
%ADD14C,1.800000*%
%TD*%
%TA.AperFunction,ComponentPad*%
%ADD15C,1.600000*%
%TD*%
%TA.AperFunction,ComponentPad*%
%ADD16O,1.600000X1.600000*%
%TD*%
%TA.AperFunction,ComponentPad*%
%ADD17RoundRect,0.250000X-0.600000X-0.725000X0.600000X-0.725000X0.600000X0.725000X-0.600000X0.725000X0*%
%TD*%
%TA.AperFunction,ComponentPad*%
%ADD18O,1.700000X1.950000*%
%TD*%
%TA.AperFunction,ComponentPad*%
%ADD19C,1.440000*%
%TD*%
%TA.AperFunction,ViaPad*%
%ADD20C,0.600000*%
%TD*%
%TA.AperFunction,Conductor*%
%ADD21C,0.508000*%
%TD*%
G04 APERTURE END LIST*
D10*
%TO.P,J1,1,Pin_1*%
%TO.N,unconnected-(J1-Pin_1-Pad1)*%
X127940000Y-97460000D03*
D11*
%TO.P,J1,2,Pin_2*%
%TO.N,/IOREF*%
X130480000Y-97460000D03*
%TO.P,J1,3,Pin_3*%
%TO.N,/~{RESET}*%
X133020000Y-97460000D03*
%TO.P,J1,4,Pin_4*%
%TO.N,+3V3*%
X135560000Y-97460000D03*
%TO.P,J1,5,Pin_5*%
%TO.N,+5V*%
X138100000Y-97460000D03*
%TO.P,J1,6,Pin_6*%
%TO.N,GND*%
X140640000Y-97460000D03*
%TO.P,J1,7,Pin_7*%
X143180000Y-97460000D03*
%TO.P,J1,8,Pin_8*%
%TO.N,VCC*%
X145720000Y-97460000D03*
%TD*%
D10*
%TO.P,J3,1,Pin_1*%
%TO.N,/temp_sensor*%
X150800000Y-97460000D03*
D11*
%TO.P,J3,2,Pin_2*%
%TO.N,/A1*%
X153340000Y-97460000D03*
%TO.P,J3,3,Pin_3*%
%TO.N,/A2*%
X155880000Y-97460000D03*
%TO.P,J3,4,Pin_4*%
%TO.N,/A3*%
X158420000Y-97460000D03*
%TO.P,J3,5,Pin_5*%
%TO.N,/SDA{slash}A4*%
X160960000Y-97460000D03*
%TO.P,J3,6,Pin_6*%
%TO.N,/SCL{slash}A5*%
X163500000Y-97460000D03*
%TD*%
D10*
%TO.P,J2,1,Pin_1*%
%TO.N,/I2C_SCL*%
X118796000Y-49200000D03*
D11*
%TO.P,J2,2,Pin_2*%
%TO.N,/I2C_SDA*%
X121336000Y-49200000D03*
%TO.P,J2,3,Pin_3*%
%TO.N,/AREF*%
X123876000Y-49200000D03*
%TO.P,J2,4,Pin_4*%
%TO.N,GND*%
X126416000Y-49200000D03*
%TO.P,J2,5,Pin_5*%
%TO.N,/13*%
X128956000Y-49200000D03*
%TO.P,J2,6,Pin_6*%
%TO.N,/12*%
X131496000Y-49200000D03*
%TO.P,J2,7,Pin_7*%
%TO.N,/\u002A11*%
X134036000Y-49200000D03*
%TO.P,J2,8,Pin_8*%
%TO.N,/\u002A10*%
X136576000Y-49200000D03*
%TO.P,J2,9,Pin_9*%
%TO.N,/led_light*%
X139116000Y-49200000D03*
%TO.P,J2,10,Pin_10*%
%TO.N,/temp_digital*%
X141656000Y-49200000D03*
%TD*%
D10*
%TO.P,J4,1,Pin_1*%
%TO.N,/7*%
X145720000Y-49200000D03*
D11*
%TO.P,J4,2,Pin_2*%
%TO.N,/button_light*%
X148260000Y-49200000D03*
%TO.P,J4,3,Pin_3*%
%TO.N,/button_cal*%
X150800000Y-49200000D03*
%TO.P,J4,4,Pin_4*%
%TO.N,/button_units*%
X153340000Y-49200000D03*
%TO.P,J4,5,Pin_5*%
%TO.N,/button_lock*%
X155880000Y-49200000D03*
%TO.P,J4,6,Pin_6*%
%TO.N,/button_onoff*%
X158420000Y-49200000D03*
%TO.P,J4,7,Pin_7*%
%TO.N,/TX{slash}1*%
X160960000Y-49200000D03*
%TO.P,J4,8,Pin_8*%
%TO.N,/RX{slash}0*%
X163500000Y-49200000D03*
%TD*%
D12*
%TO.P,SW4,1,A*%
%TO.N,/button_lock*%
X157000000Y-54000000D03*
X163500000Y-54000000D03*
%TO.P,SW4,2,B*%
%TO.N,+5V*%
X157000000Y-58500000D03*
X163500000Y-58500000D03*
%TD*%
D13*
%TO.P,D1,1,K*%
%TO.N,GND*%
X133500000Y-78275000D03*
D14*
%TO.P,D1,2,A*%
%TO.N,Net-(D1-A)*%
X133500000Y-75735000D03*
%TD*%
D12*
%TO.P,SW5,1,A*%
%TO.N,/button_light*%
X145500000Y-82500000D03*
X152000000Y-82500000D03*
%TO.P,SW5,2,B*%
%TO.N,+5V*%
X145500000Y-87000000D03*
X152000000Y-87000000D03*
%TD*%
%TO.P,SW2,1,A*%
%TO.N,/button_units*%
X149000000Y-63000000D03*
X155500000Y-63000000D03*
%TO.P,SW2,2,B*%
%TO.N,+5V*%
X149000000Y-67500000D03*
X155500000Y-67500000D03*
%TD*%
D15*
%TO.P,R4,1*%
%TO.N,/button_cal*%
X144000000Y-63500000D03*
D16*
%TO.P,R4,2*%
%TO.N,GND*%
X144000000Y-73660000D03*
%TD*%
D15*
%TO.P,R1,1*%
%TO.N,/led_light*%
X132500000Y-61840000D03*
D16*
%TO.P,R1,2*%
%TO.N,Net-(D1-A)*%
X132500000Y-72000000D03*
%TD*%
D17*
%TO.P,J7,1,Pin_1*%
%TO.N,GND*%
X134000000Y-55475000D03*
D18*
%TO.P,J7,2,Pin_2*%
%TO.N,/temp_digital*%
X136500000Y-55475000D03*
%TO.P,J7,3,Pin_3*%
%TO.N,+5V*%
X139000000Y-55475000D03*
%TD*%
D12*
%TO.P,SW3,1,A*%
%TO.N,/button_cal*%
X146000000Y-54000000D03*
X152500000Y-54000000D03*
%TO.P,SW3,2,B*%
%TO.N,+5V*%
X146000000Y-58500000D03*
X152500000Y-58500000D03*
%TD*%
D10*
%TO.P,J6,1,Pin_1*%
%TO.N,GND*%
X119700000Y-78540000D03*
D11*
%TO.P,J6,2,Pin_2*%
%TO.N,+5V*%
X117160000Y-78540000D03*
%TO.P,J6,3,Pin_3*%
%TO.N,/I2C_SCL*%
X114620000Y-78540000D03*
%TO.P,J6,4,Pin_4*%
%TO.N,/I2C_SDA*%
X112080000Y-78540000D03*
%TD*%
D12*
%TO.P,SW1,1,A*%
%TO.N,/button_onoff*%
X159000000Y-62500000D03*
X165500000Y-62500000D03*
%TO.P,SW1,2,B*%
%TO.N,+5V*%
X159000000Y-67000000D03*
X165500000Y-67000000D03*
%TD*%
D15*
%TO.P,R5,1*%
%TO.N,/button_lock*%
X164000000Y-81160000D03*
D16*
%TO.P,R5,2*%
%TO.N,GND*%
X164000000Y-71000000D03*
%TD*%
D15*
%TO.P,R2,1*%
%TO.N,/button_onoff*%
X158500000Y-71000000D03*
D16*
%TO.P,R2,2*%
%TO.N,GND*%
X158500000Y-81160000D03*
%TD*%
D19*
%TO.P,RV1,1,1*%
%TO.N,+5V*%
X137500000Y-91000000D03*
%TO.P,RV1,2,2*%
%TO.N,/temp_sensor*%
X140040000Y-88460000D03*
%TO.P,RV1,3,3*%
%TO.N,GND*%
X137500000Y-85920000D03*
%TD*%
D10*
%TO.P,J5,1,Pin_1*%
%TO.N,+5V*%
X122380000Y-83750000D03*
D11*
%TO.P,J5,2,Pin_2*%
%TO.N,GND*%
X119840000Y-83750000D03*
%TO.P,J5,3,Pin_3*%
%TO.N,/I2C_SCL*%
X117300000Y-83750000D03*
%TO.P,J5,4,Pin_4*%
%TO.N,/I2C_SDA*%
X114760000Y-83750000D03*
%TO.P,J5,5,Pin_5*%
%TO.N,unconnected-(J5-Pin_5-Pad5)*%
X112220000Y-83750000D03*
%TO.P,J5,6,Pin_6*%
%TO.N,unconnected-(J5-Pin_6-Pad6)*%
X109680000Y-83750000D03*
%TO.P,J5,7,Pin_7*%
%TO.N,unconnected-(J5-Pin_7-Pad7)*%
X107140000Y-83750000D03*
%TO.P,J5,8,Pin_8*%
%TO.N,unconnected-(J5-Pin_8-Pad8)*%
X104600000Y-83750000D03*
%TD*%
D15*
%TO.P,R6,1*%
%TO.N,/button_light*%
X139500000Y-72580000D03*
D16*
%TO.P,R6,2*%
%TO.N,GND*%
X139500000Y-62420000D03*
%TD*%
D15*
%TO.P,R3,1*%
%TO.N,/button_units*%
X143840000Y-78000000D03*
D16*
%TO.P,R3,2*%
%TO.N,GND*%
X154000000Y-78000000D03*
%TD*%
D20*
%TO.N,/button_onoff*%
X159000000Y-55000000D03*
X159000000Y-59500000D03*
X159000000Y-57500000D03*
X159000000Y-53000000D03*
%TO.N,/button_units*%
X153254000Y-63000000D03*
X151500000Y-63000000D03*
%TD*%
D21*
%TO.N,+5V*%
X139839713Y-87000000D02*
X145500000Y-87000000D01*
X160000000Y-68000000D02*
X164500000Y-68000000D01*
X153454000Y-79227424D02*
X149000000Y-74773424D01*
X138500000Y-88339713D02*
X139839713Y-87000000D01*
X139839713Y-87000000D02*
X138792000Y-85952287D01*
X159000000Y-67000000D02*
X160000000Y-68000000D01*
X122750000Y-83750000D02*
X130000000Y-91000000D01*
X137500000Y-91000000D02*
X138500000Y-90000000D01*
X146000000Y-58500000D02*
X152500000Y-58500000D01*
X117160000Y-78608000D02*
X122302000Y-83750000D01*
X152500000Y-67500000D02*
X155500000Y-67500000D01*
X149000000Y-67500000D02*
X152500000Y-67500000D01*
X145500000Y-87000000D02*
X152000000Y-87000000D01*
X122302000Y-83750000D02*
X122380000Y-83750000D01*
X158500000Y-67500000D02*
X159000000Y-67000000D01*
X138792000Y-85952287D02*
X138792000Y-76792000D01*
X138100000Y-92600000D02*
X138100000Y-97460000D01*
X138000000Y-56475000D02*
X139000000Y-55475000D01*
X137500000Y-92000000D02*
X138100000Y-92600000D01*
X138792000Y-76792000D02*
X138000000Y-76000000D01*
X157000000Y-58500000D02*
X163500000Y-58500000D01*
X137500000Y-91000000D02*
X137500000Y-92000000D01*
X117160000Y-78540000D02*
X117160000Y-78608000D01*
X138000000Y-76000000D02*
X138000000Y-56475000D01*
X164500000Y-68000000D02*
X165500000Y-67000000D01*
X138500000Y-90000000D02*
X138500000Y-88339713D01*
X159000000Y-67000000D02*
X157000000Y-65000000D01*
X130000000Y-91000000D02*
X137500000Y-91000000D01*
X155500000Y-67500000D02*
X158500000Y-67500000D01*
X153454000Y-85546000D02*
X153454000Y-79227424D01*
X152000000Y-87000000D02*
X153454000Y-85546000D01*
X152500000Y-58500000D02*
X152500000Y-67500000D01*
X157000000Y-65000000D02*
X157000000Y-58500000D01*
X149000000Y-74773424D02*
X149000000Y-67500000D01*
X122380000Y-83750000D02*
X122750000Y-83750000D01*
%TO.N,/temp_digital*%
X136500000Y-55475000D02*
X136500000Y-54356000D01*
X136500000Y-54356000D02*
X141656000Y-49200000D01*
%TO.N,/I2C_SCL*%
X114620000Y-78540000D02*
X114620000Y-81070000D01*
X114620000Y-78540000D02*
X114620000Y-53376000D01*
X114620000Y-53376000D02*
X118796000Y-49200000D01*
X114620000Y-81070000D02*
X117300000Y-83750000D01*
%TO.N,/I2C_SDA*%
X112080000Y-78540000D02*
X112080000Y-53308000D01*
X112080000Y-81070000D02*
X114760000Y-83750000D01*
X112080000Y-53308000D02*
X117492000Y-47896000D01*
X112080000Y-78540000D02*
X112080000Y-81070000D01*
X121336000Y-49132000D02*
X121336000Y-49200000D01*
X120100000Y-47896000D02*
X121336000Y-49132000D01*
X117492000Y-47896000D02*
X120100000Y-47896000D01*
%TO.N,/button_onoff*%
X165848267Y-68708000D02*
X160792000Y-68708000D01*
X166954000Y-67602267D02*
X165848267Y-68708000D01*
X166954000Y-67602267D02*
X166954000Y-63954000D01*
X159000000Y-55000000D02*
X159000000Y-57500000D01*
X159000000Y-62500000D02*
X163056267Y-62500000D01*
X158420000Y-49200000D02*
X158420000Y-52420000D01*
X159000000Y-49780000D02*
X158420000Y-49200000D01*
X166954000Y-63954000D02*
X165500000Y-62500000D01*
X163056267Y-62500000D02*
X166954000Y-66397733D01*
X159000000Y-59500000D02*
X159000000Y-62500000D01*
X166954000Y-66397733D02*
X166954000Y-67602267D01*
X158500000Y-71000000D02*
X160792000Y-68708000D01*
X158420000Y-52420000D02*
X159000000Y-53000000D01*
%TO.N,/button_lock*%
X163500000Y-54000000D02*
X157000000Y-54000000D01*
X155880000Y-49200000D02*
X157000000Y-50320000D01*
X167662000Y-62605733D02*
X164954000Y-59897733D01*
X157000000Y-50320000D02*
X157000000Y-54000000D01*
X164000000Y-81160000D02*
X167662000Y-77498000D01*
X164954000Y-59897733D02*
X164954000Y-55454000D01*
X164954000Y-55454000D02*
X163500000Y-54000000D01*
X167662000Y-77498000D02*
X167662000Y-62605733D01*
%TO.N,/button_light*%
X145500000Y-82500000D02*
X152000000Y-82500000D01*
X141000000Y-71080000D02*
X139500000Y-72580000D01*
X141000000Y-56460000D02*
X141000000Y-71080000D01*
X139500000Y-76500000D02*
X139500000Y-72580000D01*
X145500000Y-82500000D02*
X139500000Y-76500000D01*
X148260000Y-49200000D02*
X141000000Y-56460000D01*
%TO.N,/button_units*%
X142746000Y-76906000D02*
X142746000Y-69254000D01*
X143840000Y-78000000D02*
X142746000Y-76906000D01*
X142746000Y-69254000D02*
X149000000Y-63000000D01*
X153254000Y-63000000D02*
X155500000Y-63000000D01*
X155500000Y-51360000D02*
X153340000Y-49200000D01*
X149000000Y-63000000D02*
X151500000Y-63000000D01*
X155500000Y-63000000D02*
X155500000Y-51360000D01*
%TO.N,/button_cal*%
X147700000Y-52300000D02*
X146000000Y-54000000D01*
X150800000Y-52300000D02*
X152500000Y-54000000D01*
X146000000Y-54000000D02*
X144000000Y-56000000D01*
X150800000Y-49200000D02*
X150800000Y-52300000D01*
X144000000Y-56000000D02*
X144000000Y-63500000D01*
X150800000Y-52300000D02*
X147700000Y-52300000D01*
%TO.N,Net-(D1-A)*%
X132500000Y-74735000D02*
X133500000Y-75735000D01*
X132500000Y-72000000D02*
X132500000Y-74735000D01*
%TO.N,/led_light*%
X133101466Y-54046000D02*
X132500000Y-54647466D01*
X132500000Y-54647466D02*
X132500000Y-61840000D01*
X134270000Y-54046000D02*
X133101466Y-54046000D01*
X139116000Y-49200000D02*
X134270000Y-54046000D01*
%TO.N,/temp_sensor*%
X140040000Y-88460000D02*
X141800000Y-88460000D01*
X141800000Y-88460000D02*
X150800000Y-97460000D01*
%TD*%
M02*
