M48
; DRILL file {KiCad 8.0.8} date 2025-02-03T15:49:02-0700
; FORMAT={-:-/ absolute / inch / decimal}
; #@! TF.CreationDate,2025-02-03T15:49:02-07:00
; #@! TF.GenerationSoftware,Kicad,Pcbnew,8.0.8
; #@! TF.FileFunction,Plated,1,2,PTH
FMAT,2
INCH
; #@! TA.AperFunction,Plated,PTH,ViaDrill
T1C0.0157
; #@! TA.AperFunction,Plated,PTH,ComponentDrill
T2C0.0315
; #@! TA.AperFunction,Plated,PTH,ComponentDrill
T3C0.0354
; #@! TA.AperFunction,Plated,PTH,ComponentDrill
T4C0.0374
; #@! TA.AperFunction,Plated,PTH,ComponentDrill
T5C0.0394
; #@! TA.AperFunction,Plated,PTH,ComponentDrill
T6C0.0433
%
G90
G05
T1
X5.9646Y-2.4803
X6.0336Y-2.4803
X6.2598Y-2.0866
X6.2598Y-2.1654
X6.2598Y-2.2638
X6.2598Y-2.3425
T2
X5.2165Y-2.4346
X5.2165Y-2.8346
X5.4134Y-3.3827
X5.4134Y-3.5827
X5.4921Y-2.4575
X5.4921Y-2.8575
X5.5134Y-3.4827
X5.663Y-3.0709
X5.6693Y-2.5
X5.6693Y-2.9
X6.063Y-3.0709
X6.2402Y-2.7953
X6.2402Y-3.1953
X6.4567Y-2.7953
X6.4567Y-3.1953
T3
X5.2559Y-2.9817
X5.2559Y-3.0817
T4
X5.2756Y-2.1841
X5.374Y-2.1841
X5.4724Y-2.1841
T5
X4.1181Y-3.2972
X4.2181Y-3.2972
X4.3181Y-3.2972
X4.4126Y-3.0921
X4.4181Y-3.2972
X4.5126Y-3.0921
X4.5181Y-3.2972
X4.6126Y-3.0921
X4.6181Y-3.2972
X4.677Y-1.937
X4.7126Y-3.0921
X4.7181Y-3.2972
X4.777Y-1.937
X4.8181Y-3.2972
X4.877Y-1.937
X4.977Y-1.937
X5.037Y-3.837
X5.077Y-1.937
X5.137Y-3.837
X5.177Y-1.937
X5.237Y-3.837
X5.277Y-1.937
X5.337Y-3.837
X5.377Y-1.937
X5.437Y-3.837
X5.477Y-1.937
X5.537Y-3.837
X5.577Y-1.937
X5.637Y-3.837
X5.737Y-1.937
X5.737Y-3.837
X5.837Y-1.937
X5.937Y-1.937
X5.937Y-3.837
X6.037Y-1.937
X6.037Y-3.837
X6.137Y-1.937
X6.137Y-3.837
X6.237Y-1.937
X6.237Y-3.837
X6.337Y-1.937
X6.337Y-3.837
X6.437Y-1.937
X6.437Y-3.837
T6
X5.7283Y-3.248
X5.7283Y-3.4252
X5.748Y-2.126
X5.748Y-2.3031
X5.8661Y-2.4803
X5.8661Y-2.6575
X5.9843Y-3.248
X5.9843Y-3.4252
X6.0039Y-2.126
X6.0039Y-2.3031
X6.122Y-2.4803
X6.122Y-2.6575
X6.1811Y-2.126
X6.1811Y-2.3031
X6.2598Y-2.4606
X6.2598Y-2.6378
X6.437Y-2.126
X6.437Y-2.3031
X6.5157Y-2.4606
X6.5157Y-2.6378
M30
