%TF.GenerationSoftware,KiCad,Pcbnew,8.0.8*%
%TF.CreationDate,2025-03-12T21:02:30-06:00*%
%TF.ProjectId,PhaseD,50686173-6544-42e6-9b69-6361645f7063,rev?*%
%TF.SameCoordinates,Original*%
%TF.FileFunction,Soldermask,Bot*%
%TF.FilePolarity,Negative*%
%FSLAX46Y46*%
G04 Gerber Fmt 4.6, Leading zero omitted, Abs format (unit mm)*
G04 Created by KiCad (PCBNEW 8.0.8) date 2025-03-12 21:02:30*
%MOMM*%
%LPD*%
G01*
G04 APERTURE LIST*
%ADD10R,1.700000X1.700000*%
%ADD11O,1.700000X1.700000*%
%ADD12R,1.800000X1.800000*%
%ADD13C,1.800000*%
%ADD14C,1.600000*%
%ADD15O,1.600000X1.600000*%
%ADD16R,1.350000X1.350000*%
%ADD17O,1.350000X1.350000*%
G04 APERTURE END LIST*
D10*
%TO.C,J1*%
X127940000Y-97460000D03*
D11*
X130480000Y-97460000D03*
X133020000Y-97460000D03*
X135560000Y-97460000D03*
X138100000Y-97460000D03*
X140640000Y-97460000D03*
X143180000Y-97460000D03*
X145720000Y-97460000D03*
%TD*%
D10*
%TO.C,J3*%
X150800000Y-97460000D03*
D11*
X153340000Y-97460000D03*
X155880000Y-97460000D03*
X158420000Y-97460000D03*
X160960000Y-97460000D03*
X163500000Y-97460000D03*
%TD*%
D10*
%TO.C,J2*%
X118796000Y-49200000D03*
D11*
X121336000Y-49200000D03*
X123876000Y-49200000D03*
X126416000Y-49200000D03*
X128956000Y-49200000D03*
X131496000Y-49200000D03*
X134036000Y-49200000D03*
X136576000Y-49200000D03*
X139116000Y-49200000D03*
X141656000Y-49200000D03*
%TD*%
D10*
%TO.C,J4*%
X145720000Y-49200000D03*
D11*
X148260000Y-49200000D03*
X150800000Y-49200000D03*
X153340000Y-49200000D03*
X155880000Y-49200000D03*
X158420000Y-49200000D03*
X160960000Y-49200000D03*
X163500000Y-49200000D03*
%TD*%
D12*
%TO.C,D2*%
X148460000Y-76000000D03*
D13*
X151000000Y-76000000D03*
%TD*%
D14*
%TO.C,R1*%
X157500000Y-53000000D03*
D15*
X157500000Y-63160000D03*
%TD*%
D14*
%TO.C,C2*%
X117500000Y-89500000D03*
X122500000Y-89500000D03*
%TD*%
%TO.C,R6*%
X139000000Y-53000000D03*
D15*
X139000000Y-63160000D03*
%TD*%
D14*
%TO.C,R2*%
X154000000Y-53000000D03*
D15*
X154000000Y-63160000D03*
%TD*%
D12*
%TO.C,D1*%
X152960000Y-68000000D03*
D13*
X155500000Y-68000000D03*
%TD*%
D14*
%TO.C,R7*%
X116840000Y-83500000D03*
D15*
X127000000Y-83500000D03*
%TD*%
D16*
%TO.C,J7*%
X137000000Y-91500000D03*
D17*
X137000000Y-89500000D03*
X137000000Y-87500000D03*
%TD*%
D10*
%TO.C,J5*%
X162000000Y-53420000D03*
D11*
X162000000Y-55960000D03*
X162000000Y-58500000D03*
X162000000Y-61040000D03*
X162000000Y-63580000D03*
X162000000Y-66120000D03*
%TD*%
D14*
%TO.C,R3*%
X150500000Y-53000000D03*
D15*
X150500000Y-63160000D03*
%TD*%
D14*
%TO.C,C1*%
X123500000Y-65000000D03*
X128500000Y-65000000D03*
%TD*%
D12*
%TO.C,D5*%
X133460000Y-68000000D03*
D13*
X136000000Y-68000000D03*
%TD*%
D12*
%TO.C,D3*%
X146460000Y-68000000D03*
D13*
X149000000Y-68000000D03*
%TD*%
D14*
%TO.C,R5*%
X143000000Y-53000000D03*
D15*
X143000000Y-63160000D03*
%TD*%
D12*
%TO.C,D6*%
X132460000Y-58000000D03*
D13*
X135000000Y-58000000D03*
%TD*%
D12*
%TO.C,D4*%
X139960000Y-68000000D03*
D13*
X142500000Y-68000000D03*
%TD*%
D14*
%TO.C,R4*%
X147000000Y-53000000D03*
D15*
X147000000Y-63160000D03*
%TD*%
D14*
%TO.C,R8*%
X119840000Y-75500000D03*
D15*
X130000000Y-75500000D03*
%TD*%
D10*
%TO.C,J6*%
X159110000Y-74800000D03*
D11*
X159110000Y-77340000D03*
X159110000Y-79880000D03*
X159110000Y-82420000D03*
X159110000Y-84960000D03*
X159110000Y-87500000D03*
%TD*%
M02*
