M48
; DRILL file {KiCad 8.0.8} date 2025-03-12T20:53:12-0600
; FORMAT={-:-/ absolute / inch / decimal}
; #@! TF.CreationDate,2025-03-12T20:53:12-06:00
; #@! TF.GenerationSoftware,Kicad,Pcbnew,8.0.8
; #@! TF.FileFunction,Plated,1,2,PTH
FMAT,2
INCH
; #@! TA.AperFunction,Plated,PTH,ViaDrill
T1C0.0157
; #@! TA.AperFunction,Plated,PTH,ComponentDrill
T2C0.0315
; #@! TA.AperFunction,Plated,PTH,ComponentDrill
T3C0.0354
; #@! TA.AperFunction,Plated,PTH,ComponentDrill
T4C0.0394
%
G90
G05
T1
X4.5748Y-2.6793
X4.626Y-2.2047
X4.6449Y-2.6779
X4.685Y-2.1457
X4.7378Y-2.815
X4.8228Y-2.6378
T2
X4.6Y-3.2874
X4.626Y-3.5236
X4.7181Y-2.9724
X4.8228Y-3.5236
X4.8622Y-2.5591
X5.0Y-3.2874
X5.0591Y-2.5591
X5.1181Y-2.9724
X5.3937Y-3.4449
X5.3937Y-3.5236
X5.3937Y-3.6024
X5.4724Y-2.0866
X5.4724Y-2.4866
X5.6299Y-2.0866
X5.6299Y-2.4866
X5.7874Y-2.0866
X5.7874Y-2.4866
X5.9252Y-2.0866
X5.9252Y-2.4866
X6.063Y-2.0866
X6.063Y-2.4866
X6.2008Y-2.0866
X6.2008Y-2.4866
T3
X5.215Y-2.2835
X5.2543Y-2.6772
X5.315Y-2.2835
X5.3543Y-2.6772
X5.5102Y-2.6772
X5.6102Y-2.6772
X5.7661Y-2.6772
X5.8449Y-2.9921
X5.8661Y-2.6772
X5.9449Y-2.9921
X6.022Y-2.6772
X6.122Y-2.6772
T4
X4.677Y-1.937
X4.777Y-1.937
X4.877Y-1.937
X4.977Y-1.937
X5.037Y-3.837
X5.077Y-1.937
X5.137Y-3.837
X5.177Y-1.937
X5.237Y-3.837
X5.277Y-1.937
X5.337Y-3.837
X5.377Y-1.937
X5.437Y-3.837
X5.477Y-1.937
X5.537Y-3.837
X5.577Y-1.937
X5.637Y-3.837
X5.737Y-1.937
X5.737Y-3.837
X5.837Y-1.937
X5.937Y-1.937
X5.937Y-3.837
X6.037Y-1.937
X6.037Y-3.837
X6.137Y-1.937
X6.137Y-3.837
X6.237Y-1.937
X6.237Y-3.837
X6.2642Y-2.9449
X6.2642Y-3.0449
X6.2642Y-3.1449
X6.2642Y-3.2449
X6.2642Y-3.3449
X6.2642Y-3.4449
X6.337Y-1.937
X6.337Y-3.837
X6.378Y-2.1031
X6.378Y-2.2031
X6.378Y-2.3031
X6.378Y-2.4031
X6.378Y-2.5031
X6.378Y-2.6031
X6.437Y-1.937
X6.437Y-3.837
M30
