%TF.GenerationSoftware,KiCad,Pcbnew,8.0.8*%
%TF.CreationDate,2025-03-12T21:02:29-06:00*%
%TF.ProjectId,PhaseD,50686173-6544-42e6-9b69-6361645f7063,rev?*%
%TF.SameCoordinates,Original*%
%TF.FileFunction,Legend,Top*%
%TF.FilePolarity,Positive*%
%FSLAX46Y46*%
G04 Gerber Fmt 4.6, Leading zero omitted, Abs format (unit mm)*
G04 Created by KiCad (PCBNEW 8.0.8) date 2025-03-12 21:02:29*
%MOMM*%
%LPD*%
G01*
G04 APERTURE LIST*
%ADD10C,0.150000*%
%ADD11C,0.120000*%
%ADD12C,0.152400*%
G04 APERTURE END LIST*
D10*
X112846009Y-68829887D02*
X112893628Y-68687030D01*
X112893628Y-68687030D02*
X112941247Y-68639411D01*
X112941247Y-68639411D02*
X113036485Y-68591792D01*
X113036485Y-68591792D02*
X113179342Y-68591792D01*
X113179342Y-68591792D02*
X113274580Y-68639411D01*
X113274580Y-68639411D02*
X113322200Y-68687030D01*
X113322200Y-68687030D02*
X113369819Y-68782268D01*
X113369819Y-68782268D02*
X113369819Y-69163220D01*
X113369819Y-69163220D02*
X112369819Y-69163220D01*
X112369819Y-69163220D02*
X112369819Y-68829887D01*
X112369819Y-68829887D02*
X112417438Y-68734649D01*
X112417438Y-68734649D02*
X112465057Y-68687030D01*
X112465057Y-68687030D02*
X112560295Y-68639411D01*
X112560295Y-68639411D02*
X112655533Y-68639411D01*
X112655533Y-68639411D02*
X112750771Y-68687030D01*
X112750771Y-68687030D02*
X112798390Y-68734649D01*
X112798390Y-68734649D02*
X112846009Y-68829887D01*
X112846009Y-68829887D02*
X112846009Y-69163220D01*
X113369819Y-68163220D02*
X112369819Y-68163220D01*
X112369819Y-68163220D02*
X113084104Y-67829887D01*
X113084104Y-67829887D02*
X112369819Y-67496554D01*
X112369819Y-67496554D02*
X113369819Y-67496554D01*
X112846009Y-67020363D02*
X112846009Y-66687030D01*
X113369819Y-66544173D02*
X113369819Y-67020363D01*
X113369819Y-67020363D02*
X112369819Y-67020363D01*
X112369819Y-67020363D02*
X112369819Y-66544173D01*
X112465057Y-66163220D02*
X112417438Y-66115601D01*
X112417438Y-66115601D02*
X112369819Y-66020363D01*
X112369819Y-66020363D02*
X112369819Y-65782268D01*
X112369819Y-65782268D02*
X112417438Y-65687030D01*
X112417438Y-65687030D02*
X112465057Y-65639411D01*
X112465057Y-65639411D02*
X112560295Y-65591792D01*
X112560295Y-65591792D02*
X112655533Y-65591792D01*
X112655533Y-65591792D02*
X112798390Y-65639411D01*
X112798390Y-65639411D02*
X113369819Y-66210839D01*
X113369819Y-66210839D02*
X113369819Y-65591792D01*
X112798390Y-65020363D02*
X112750771Y-65115601D01*
X112750771Y-65115601D02*
X112703152Y-65163220D01*
X112703152Y-65163220D02*
X112607914Y-65210839D01*
X112607914Y-65210839D02*
X112560295Y-65210839D01*
X112560295Y-65210839D02*
X112465057Y-65163220D01*
X112465057Y-65163220D02*
X112417438Y-65115601D01*
X112417438Y-65115601D02*
X112369819Y-65020363D01*
X112369819Y-65020363D02*
X112369819Y-64829887D01*
X112369819Y-64829887D02*
X112417438Y-64734649D01*
X112417438Y-64734649D02*
X112465057Y-64687030D01*
X112465057Y-64687030D02*
X112560295Y-64639411D01*
X112560295Y-64639411D02*
X112607914Y-64639411D01*
X112607914Y-64639411D02*
X112703152Y-64687030D01*
X112703152Y-64687030D02*
X112750771Y-64734649D01*
X112750771Y-64734649D02*
X112798390Y-64829887D01*
X112798390Y-64829887D02*
X112798390Y-65020363D01*
X112798390Y-65020363D02*
X112846009Y-65115601D01*
X112846009Y-65115601D02*
X112893628Y-65163220D01*
X112893628Y-65163220D02*
X112988866Y-65210839D01*
X112988866Y-65210839D02*
X113179342Y-65210839D01*
X113179342Y-65210839D02*
X113274580Y-65163220D01*
X113274580Y-65163220D02*
X113322200Y-65115601D01*
X113322200Y-65115601D02*
X113369819Y-65020363D01*
X113369819Y-65020363D02*
X113369819Y-64829887D01*
X113369819Y-64829887D02*
X113322200Y-64734649D01*
X113322200Y-64734649D02*
X113274580Y-64687030D01*
X113274580Y-64687030D02*
X113179342Y-64639411D01*
X113179342Y-64639411D02*
X112988866Y-64639411D01*
X112988866Y-64639411D02*
X112893628Y-64687030D01*
X112893628Y-64687030D02*
X112846009Y-64734649D01*
X112846009Y-64734649D02*
X112798390Y-64829887D01*
X112369819Y-64020363D02*
X112369819Y-63925125D01*
X112369819Y-63925125D02*
X112417438Y-63829887D01*
X112417438Y-63829887D02*
X112465057Y-63782268D01*
X112465057Y-63782268D02*
X112560295Y-63734649D01*
X112560295Y-63734649D02*
X112750771Y-63687030D01*
X112750771Y-63687030D02*
X112988866Y-63687030D01*
X112988866Y-63687030D02*
X113179342Y-63734649D01*
X113179342Y-63734649D02*
X113274580Y-63782268D01*
X113274580Y-63782268D02*
X113322200Y-63829887D01*
X113322200Y-63829887D02*
X113369819Y-63925125D01*
X113369819Y-63925125D02*
X113369819Y-64020363D01*
X113369819Y-64020363D02*
X113322200Y-64115601D01*
X113322200Y-64115601D02*
X113274580Y-64163220D01*
X113274580Y-64163220D02*
X113179342Y-64210839D01*
X113179342Y-64210839D02*
X112988866Y-64258458D01*
X112988866Y-64258458D02*
X112750771Y-64258458D01*
X112750771Y-64258458D02*
X112560295Y-64210839D01*
X112560295Y-64210839D02*
X112465057Y-64163220D01*
X112465057Y-64163220D02*
X112417438Y-64115601D01*
X112417438Y-64115601D02*
X112369819Y-64020363D01*
X133217731Y-85322200D02*
X133122493Y-85369819D01*
X133122493Y-85369819D02*
X132932017Y-85369819D01*
X132932017Y-85369819D02*
X132836779Y-85322200D01*
X132836779Y-85322200D02*
X132789160Y-85226961D01*
X132789160Y-85226961D02*
X132789160Y-84846009D01*
X132789160Y-84846009D02*
X132836779Y-84750771D01*
X132836779Y-84750771D02*
X132932017Y-84703152D01*
X132932017Y-84703152D02*
X133122493Y-84703152D01*
X133122493Y-84703152D02*
X133217731Y-84750771D01*
X133217731Y-84750771D02*
X133265350Y-84846009D01*
X133265350Y-84846009D02*
X133265350Y-84941247D01*
X133265350Y-84941247D02*
X132789160Y-85036485D01*
X133598684Y-85369819D02*
X134122493Y-84703152D01*
X133598684Y-84703152D02*
X134122493Y-85369819D01*
X134360589Y-84703152D02*
X134741541Y-84703152D01*
X134503446Y-84369819D02*
X134503446Y-85226961D01*
X134503446Y-85226961D02*
X134551065Y-85322200D01*
X134551065Y-85322200D02*
X134646303Y-85369819D01*
X134646303Y-85369819D02*
X134741541Y-85369819D01*
X135455827Y-85322200D02*
X135360589Y-85369819D01*
X135360589Y-85369819D02*
X135170113Y-85369819D01*
X135170113Y-85369819D02*
X135074875Y-85322200D01*
X135074875Y-85322200D02*
X135027256Y-85226961D01*
X135027256Y-85226961D02*
X135027256Y-84846009D01*
X135027256Y-84846009D02*
X135074875Y-84750771D01*
X135074875Y-84750771D02*
X135170113Y-84703152D01*
X135170113Y-84703152D02*
X135360589Y-84703152D01*
X135360589Y-84703152D02*
X135455827Y-84750771D01*
X135455827Y-84750771D02*
X135503446Y-84846009D01*
X135503446Y-84846009D02*
X135503446Y-84941247D01*
X135503446Y-84941247D02*
X135027256Y-85036485D01*
X135932018Y-85369819D02*
X135932018Y-84703152D01*
X135932018Y-84893628D02*
X135979637Y-84798390D01*
X135979637Y-84798390D02*
X136027256Y-84750771D01*
X136027256Y-84750771D02*
X136122494Y-84703152D01*
X136122494Y-84703152D02*
X136217732Y-84703152D01*
X136551066Y-84703152D02*
X136551066Y-85369819D01*
X136551066Y-84798390D02*
X136598685Y-84750771D01*
X136598685Y-84750771D02*
X136693923Y-84703152D01*
X136693923Y-84703152D02*
X136836780Y-84703152D01*
X136836780Y-84703152D02*
X136932018Y-84750771D01*
X136932018Y-84750771D02*
X136979637Y-84846009D01*
X136979637Y-84846009D02*
X136979637Y-85369819D01*
X137884399Y-85369819D02*
X137884399Y-84846009D01*
X137884399Y-84846009D02*
X137836780Y-84750771D01*
X137836780Y-84750771D02*
X137741542Y-84703152D01*
X137741542Y-84703152D02*
X137551066Y-84703152D01*
X137551066Y-84703152D02*
X137455828Y-84750771D01*
X137884399Y-85322200D02*
X137789161Y-85369819D01*
X137789161Y-85369819D02*
X137551066Y-85369819D01*
X137551066Y-85369819D02*
X137455828Y-85322200D01*
X137455828Y-85322200D02*
X137408209Y-85226961D01*
X137408209Y-85226961D02*
X137408209Y-85131723D01*
X137408209Y-85131723D02*
X137455828Y-85036485D01*
X137455828Y-85036485D02*
X137551066Y-84988866D01*
X137551066Y-84988866D02*
X137789161Y-84988866D01*
X137789161Y-84988866D02*
X137884399Y-84941247D01*
X138503447Y-85369819D02*
X138408209Y-85322200D01*
X138408209Y-85322200D02*
X138360590Y-85226961D01*
X138360590Y-85226961D02*
X138360590Y-84369819D01*
X139503448Y-84703152D02*
X139884400Y-84703152D01*
X139646305Y-84369819D02*
X139646305Y-85226961D01*
X139646305Y-85226961D02*
X139693924Y-85322200D01*
X139693924Y-85322200D02*
X139789162Y-85369819D01*
X139789162Y-85369819D02*
X139884400Y-85369819D01*
X140598686Y-85322200D02*
X140503448Y-85369819D01*
X140503448Y-85369819D02*
X140312972Y-85369819D01*
X140312972Y-85369819D02*
X140217734Y-85322200D01*
X140217734Y-85322200D02*
X140170115Y-85226961D01*
X140170115Y-85226961D02*
X140170115Y-84846009D01*
X140170115Y-84846009D02*
X140217734Y-84750771D01*
X140217734Y-84750771D02*
X140312972Y-84703152D01*
X140312972Y-84703152D02*
X140503448Y-84703152D01*
X140503448Y-84703152D02*
X140598686Y-84750771D01*
X140598686Y-84750771D02*
X140646305Y-84846009D01*
X140646305Y-84846009D02*
X140646305Y-84941247D01*
X140646305Y-84941247D02*
X140170115Y-85036485D01*
X141074877Y-85369819D02*
X141074877Y-84703152D01*
X141074877Y-84798390D02*
X141122496Y-84750771D01*
X141122496Y-84750771D02*
X141217734Y-84703152D01*
X141217734Y-84703152D02*
X141360591Y-84703152D01*
X141360591Y-84703152D02*
X141455829Y-84750771D01*
X141455829Y-84750771D02*
X141503448Y-84846009D01*
X141503448Y-84846009D02*
X141503448Y-85369819D01*
X141503448Y-84846009D02*
X141551067Y-84750771D01*
X141551067Y-84750771D02*
X141646305Y-84703152D01*
X141646305Y-84703152D02*
X141789162Y-84703152D01*
X141789162Y-84703152D02*
X141884401Y-84750771D01*
X141884401Y-84750771D02*
X141932020Y-84846009D01*
X141932020Y-84846009D02*
X141932020Y-85369819D01*
X142408210Y-84703152D02*
X142408210Y-85703152D01*
X142408210Y-84750771D02*
X142503448Y-84703152D01*
X142503448Y-84703152D02*
X142693924Y-84703152D01*
X142693924Y-84703152D02*
X142789162Y-84750771D01*
X142789162Y-84750771D02*
X142836781Y-84798390D01*
X142836781Y-84798390D02*
X142884400Y-84893628D01*
X142884400Y-84893628D02*
X142884400Y-85179342D01*
X142884400Y-85179342D02*
X142836781Y-85274580D01*
X142836781Y-85274580D02*
X142789162Y-85322200D01*
X142789162Y-85322200D02*
X142693924Y-85369819D01*
X142693924Y-85369819D02*
X142503448Y-85369819D01*
X142503448Y-85369819D02*
X142408210Y-85322200D01*
X165369819Y-86734649D02*
X164846009Y-86734649D01*
X164846009Y-86734649D02*
X164750771Y-86782268D01*
X164750771Y-86782268D02*
X164703152Y-86877506D01*
X164703152Y-86877506D02*
X164703152Y-87067982D01*
X164703152Y-87067982D02*
X164750771Y-87163220D01*
X165322200Y-86734649D02*
X165369819Y-86829887D01*
X165369819Y-86829887D02*
X165369819Y-87067982D01*
X165369819Y-87067982D02*
X165322200Y-87163220D01*
X165322200Y-87163220D02*
X165226961Y-87210839D01*
X165226961Y-87210839D02*
X165131723Y-87210839D01*
X165131723Y-87210839D02*
X165036485Y-87163220D01*
X165036485Y-87163220D02*
X164988866Y-87067982D01*
X164988866Y-87067982D02*
X164988866Y-86829887D01*
X164988866Y-86829887D02*
X164941247Y-86734649D01*
X165322200Y-85829887D02*
X165369819Y-85925125D01*
X165369819Y-85925125D02*
X165369819Y-86115601D01*
X165369819Y-86115601D02*
X165322200Y-86210839D01*
X165322200Y-86210839D02*
X165274580Y-86258458D01*
X165274580Y-86258458D02*
X165179342Y-86306077D01*
X165179342Y-86306077D02*
X164893628Y-86306077D01*
X164893628Y-86306077D02*
X164798390Y-86258458D01*
X164798390Y-86258458D02*
X164750771Y-86210839D01*
X164750771Y-86210839D02*
X164703152Y-86115601D01*
X164703152Y-86115601D02*
X164703152Y-85925125D01*
X164703152Y-85925125D02*
X164750771Y-85829887D01*
X165322200Y-84972744D02*
X165369819Y-85067982D01*
X165369819Y-85067982D02*
X165369819Y-85258458D01*
X165369819Y-85258458D02*
X165322200Y-85353696D01*
X165322200Y-85353696D02*
X165274580Y-85401315D01*
X165274580Y-85401315D02*
X165179342Y-85448934D01*
X165179342Y-85448934D02*
X164893628Y-85448934D01*
X164893628Y-85448934D02*
X164798390Y-85401315D01*
X164798390Y-85401315D02*
X164750771Y-85353696D01*
X164750771Y-85353696D02*
X164703152Y-85258458D01*
X164703152Y-85258458D02*
X164703152Y-85067982D01*
X164703152Y-85067982D02*
X164750771Y-84972744D01*
X165322200Y-84163220D02*
X165369819Y-84258458D01*
X165369819Y-84258458D02*
X165369819Y-84448934D01*
X165369819Y-84448934D02*
X165322200Y-84544172D01*
X165322200Y-84544172D02*
X165226961Y-84591791D01*
X165226961Y-84591791D02*
X164846009Y-84591791D01*
X164846009Y-84591791D02*
X164750771Y-84544172D01*
X164750771Y-84544172D02*
X164703152Y-84448934D01*
X164703152Y-84448934D02*
X164703152Y-84258458D01*
X164703152Y-84258458D02*
X164750771Y-84163220D01*
X164750771Y-84163220D02*
X164846009Y-84115601D01*
X164846009Y-84115601D02*
X164941247Y-84115601D01*
X164941247Y-84115601D02*
X165036485Y-84591791D01*
X165369819Y-83544172D02*
X165322200Y-83639410D01*
X165322200Y-83639410D02*
X165226961Y-83687029D01*
X165226961Y-83687029D02*
X164369819Y-83687029D01*
X165322200Y-82782267D02*
X165369819Y-82877505D01*
X165369819Y-82877505D02*
X165369819Y-83067981D01*
X165369819Y-83067981D02*
X165322200Y-83163219D01*
X165322200Y-83163219D02*
X165226961Y-83210838D01*
X165226961Y-83210838D02*
X164846009Y-83210838D01*
X164846009Y-83210838D02*
X164750771Y-83163219D01*
X164750771Y-83163219D02*
X164703152Y-83067981D01*
X164703152Y-83067981D02*
X164703152Y-82877505D01*
X164703152Y-82877505D02*
X164750771Y-82782267D01*
X164750771Y-82782267D02*
X164846009Y-82734648D01*
X164846009Y-82734648D02*
X164941247Y-82734648D01*
X164941247Y-82734648D02*
X165036485Y-83210838D01*
X165369819Y-82306076D02*
X164703152Y-82306076D01*
X164893628Y-82306076D02*
X164798390Y-82258457D01*
X164798390Y-82258457D02*
X164750771Y-82210838D01*
X164750771Y-82210838D02*
X164703152Y-82115600D01*
X164703152Y-82115600D02*
X164703152Y-82020362D01*
X165369819Y-81544171D02*
X165322200Y-81639409D01*
X165322200Y-81639409D02*
X165274580Y-81687028D01*
X165274580Y-81687028D02*
X165179342Y-81734647D01*
X165179342Y-81734647D02*
X164893628Y-81734647D01*
X164893628Y-81734647D02*
X164798390Y-81687028D01*
X164798390Y-81687028D02*
X164750771Y-81639409D01*
X164750771Y-81639409D02*
X164703152Y-81544171D01*
X164703152Y-81544171D02*
X164703152Y-81401314D01*
X164703152Y-81401314D02*
X164750771Y-81306076D01*
X164750771Y-81306076D02*
X164798390Y-81258457D01*
X164798390Y-81258457D02*
X164893628Y-81210838D01*
X164893628Y-81210838D02*
X165179342Y-81210838D01*
X165179342Y-81210838D02*
X165274580Y-81258457D01*
X165274580Y-81258457D02*
X165322200Y-81306076D01*
X165322200Y-81306076D02*
X165369819Y-81401314D01*
X165369819Y-81401314D02*
X165369819Y-81544171D01*
X165369819Y-80782266D02*
X164703152Y-80782266D01*
X164798390Y-80782266D02*
X164750771Y-80734647D01*
X164750771Y-80734647D02*
X164703152Y-80639409D01*
X164703152Y-80639409D02*
X164703152Y-80496552D01*
X164703152Y-80496552D02*
X164750771Y-80401314D01*
X164750771Y-80401314D02*
X164846009Y-80353695D01*
X164846009Y-80353695D02*
X165369819Y-80353695D01*
X164846009Y-80353695D02*
X164750771Y-80306076D01*
X164750771Y-80306076D02*
X164703152Y-80210838D01*
X164703152Y-80210838D02*
X164703152Y-80067981D01*
X164703152Y-80067981D02*
X164750771Y-79972742D01*
X164750771Y-79972742D02*
X164846009Y-79925123D01*
X164846009Y-79925123D02*
X165369819Y-79925123D01*
X165322200Y-79067981D02*
X165369819Y-79163219D01*
X165369819Y-79163219D02*
X165369819Y-79353695D01*
X165369819Y-79353695D02*
X165322200Y-79448933D01*
X165322200Y-79448933D02*
X165226961Y-79496552D01*
X165226961Y-79496552D02*
X164846009Y-79496552D01*
X164846009Y-79496552D02*
X164750771Y-79448933D01*
X164750771Y-79448933D02*
X164703152Y-79353695D01*
X164703152Y-79353695D02*
X164703152Y-79163219D01*
X164703152Y-79163219D02*
X164750771Y-79067981D01*
X164750771Y-79067981D02*
X164846009Y-79020362D01*
X164846009Y-79020362D02*
X164941247Y-79020362D01*
X164941247Y-79020362D02*
X165036485Y-79496552D01*
X164703152Y-78734647D02*
X164703152Y-78353695D01*
X164369819Y-78591790D02*
X165226961Y-78591790D01*
X165226961Y-78591790D02*
X165322200Y-78544171D01*
X165322200Y-78544171D02*
X165369819Y-78448933D01*
X165369819Y-78448933D02*
X165369819Y-78353695D01*
X165322200Y-77639409D02*
X165369819Y-77734647D01*
X165369819Y-77734647D02*
X165369819Y-77925123D01*
X165369819Y-77925123D02*
X165322200Y-78020361D01*
X165322200Y-78020361D02*
X165226961Y-78067980D01*
X165226961Y-78067980D02*
X164846009Y-78067980D01*
X164846009Y-78067980D02*
X164750771Y-78020361D01*
X164750771Y-78020361D02*
X164703152Y-77925123D01*
X164703152Y-77925123D02*
X164703152Y-77734647D01*
X164703152Y-77734647D02*
X164750771Y-77639409D01*
X164750771Y-77639409D02*
X164846009Y-77591790D01*
X164846009Y-77591790D02*
X164941247Y-77591790D01*
X164941247Y-77591790D02*
X165036485Y-78067980D01*
X165369819Y-77163218D02*
X164703152Y-77163218D01*
X164893628Y-77163218D02*
X164798390Y-77115599D01*
X164798390Y-77115599D02*
X164750771Y-77067980D01*
X164750771Y-77067980D02*
X164703152Y-76972742D01*
X164703152Y-76972742D02*
X164703152Y-76877504D01*
X166369819Y-67020363D02*
X166322200Y-67115601D01*
X166322200Y-67115601D02*
X166274580Y-67163220D01*
X166274580Y-67163220D02*
X166179342Y-67210839D01*
X166179342Y-67210839D02*
X165893628Y-67210839D01*
X165893628Y-67210839D02*
X165798390Y-67163220D01*
X165798390Y-67163220D02*
X165750771Y-67115601D01*
X165750771Y-67115601D02*
X165703152Y-67020363D01*
X165703152Y-67020363D02*
X165703152Y-66877506D01*
X165703152Y-66877506D02*
X165750771Y-66782268D01*
X165750771Y-66782268D02*
X165798390Y-66734649D01*
X165798390Y-66734649D02*
X165893628Y-66687030D01*
X165893628Y-66687030D02*
X166179342Y-66687030D01*
X166179342Y-66687030D02*
X166274580Y-66734649D01*
X166274580Y-66734649D02*
X166322200Y-66782268D01*
X166322200Y-66782268D02*
X166369819Y-66877506D01*
X166369819Y-66877506D02*
X166369819Y-67020363D01*
X165703152Y-66258458D02*
X166703152Y-66258458D01*
X165750771Y-66258458D02*
X165703152Y-66163220D01*
X165703152Y-66163220D02*
X165703152Y-65972744D01*
X165703152Y-65972744D02*
X165750771Y-65877506D01*
X165750771Y-65877506D02*
X165798390Y-65829887D01*
X165798390Y-65829887D02*
X165893628Y-65782268D01*
X165893628Y-65782268D02*
X166179342Y-65782268D01*
X166179342Y-65782268D02*
X166274580Y-65829887D01*
X166274580Y-65829887D02*
X166322200Y-65877506D01*
X166322200Y-65877506D02*
X166369819Y-65972744D01*
X166369819Y-65972744D02*
X166369819Y-66163220D01*
X166369819Y-66163220D02*
X166322200Y-66258458D01*
X166322200Y-64972744D02*
X166369819Y-65067982D01*
X166369819Y-65067982D02*
X166369819Y-65258458D01*
X166369819Y-65258458D02*
X166322200Y-65353696D01*
X166322200Y-65353696D02*
X166226961Y-65401315D01*
X166226961Y-65401315D02*
X165846009Y-65401315D01*
X165846009Y-65401315D02*
X165750771Y-65353696D01*
X165750771Y-65353696D02*
X165703152Y-65258458D01*
X165703152Y-65258458D02*
X165703152Y-65067982D01*
X165703152Y-65067982D02*
X165750771Y-64972744D01*
X165750771Y-64972744D02*
X165846009Y-64925125D01*
X165846009Y-64925125D02*
X165941247Y-64925125D01*
X165941247Y-64925125D02*
X166036485Y-65401315D01*
X165703152Y-64496553D02*
X166369819Y-64496553D01*
X165798390Y-64496553D02*
X165750771Y-64448934D01*
X165750771Y-64448934D02*
X165703152Y-64353696D01*
X165703152Y-64353696D02*
X165703152Y-64210839D01*
X165703152Y-64210839D02*
X165750771Y-64115601D01*
X165750771Y-64115601D02*
X165846009Y-64067982D01*
X165846009Y-64067982D02*
X166369819Y-64067982D01*
X166369819Y-62687029D02*
X166322200Y-62782267D01*
X166322200Y-62782267D02*
X166226961Y-62829886D01*
X166226961Y-62829886D02*
X165369819Y-62829886D01*
X166369819Y-62163219D02*
X166322200Y-62258457D01*
X166322200Y-62258457D02*
X166274580Y-62306076D01*
X166274580Y-62306076D02*
X166179342Y-62353695D01*
X166179342Y-62353695D02*
X165893628Y-62353695D01*
X165893628Y-62353695D02*
X165798390Y-62306076D01*
X165798390Y-62306076D02*
X165750771Y-62258457D01*
X165750771Y-62258457D02*
X165703152Y-62163219D01*
X165703152Y-62163219D02*
X165703152Y-62020362D01*
X165703152Y-62020362D02*
X165750771Y-61925124D01*
X165750771Y-61925124D02*
X165798390Y-61877505D01*
X165798390Y-61877505D02*
X165893628Y-61829886D01*
X165893628Y-61829886D02*
X166179342Y-61829886D01*
X166179342Y-61829886D02*
X166274580Y-61877505D01*
X166274580Y-61877505D02*
X166322200Y-61925124D01*
X166322200Y-61925124D02*
X166369819Y-62020362D01*
X166369819Y-62020362D02*
X166369819Y-62163219D01*
X165703152Y-60972743D02*
X166512676Y-60972743D01*
X166512676Y-60972743D02*
X166607914Y-61020362D01*
X166607914Y-61020362D02*
X166655533Y-61067981D01*
X166655533Y-61067981D02*
X166703152Y-61163219D01*
X166703152Y-61163219D02*
X166703152Y-61306076D01*
X166703152Y-61306076D02*
X166655533Y-61401314D01*
X166322200Y-60972743D02*
X166369819Y-61067981D01*
X166369819Y-61067981D02*
X166369819Y-61258457D01*
X166369819Y-61258457D02*
X166322200Y-61353695D01*
X166322200Y-61353695D02*
X166274580Y-61401314D01*
X166274580Y-61401314D02*
X166179342Y-61448933D01*
X166179342Y-61448933D02*
X165893628Y-61448933D01*
X165893628Y-61448933D02*
X165798390Y-61401314D01*
X165798390Y-61401314D02*
X165750771Y-61353695D01*
X165750771Y-61353695D02*
X165703152Y-61258457D01*
X165703152Y-61258457D02*
X165703152Y-61067981D01*
X165703152Y-61067981D02*
X165750771Y-60972743D01*
X139265350Y-86703152D02*
X139265350Y-87512676D01*
X139265350Y-87512676D02*
X139217731Y-87607914D01*
X139217731Y-87607914D02*
X139170112Y-87655533D01*
X139170112Y-87655533D02*
X139074874Y-87703152D01*
X139074874Y-87703152D02*
X138932017Y-87703152D01*
X138932017Y-87703152D02*
X138836779Y-87655533D01*
X139265350Y-87322200D02*
X139170112Y-87369819D01*
X139170112Y-87369819D02*
X138979636Y-87369819D01*
X138979636Y-87369819D02*
X138884398Y-87322200D01*
X138884398Y-87322200D02*
X138836779Y-87274580D01*
X138836779Y-87274580D02*
X138789160Y-87179342D01*
X138789160Y-87179342D02*
X138789160Y-86893628D01*
X138789160Y-86893628D02*
X138836779Y-86798390D01*
X138836779Y-86798390D02*
X138884398Y-86750771D01*
X138884398Y-86750771D02*
X138979636Y-86703152D01*
X138979636Y-86703152D02*
X139170112Y-86703152D01*
X139170112Y-86703152D02*
X139265350Y-86750771D01*
X139741541Y-86703152D02*
X139741541Y-87369819D01*
X139741541Y-86798390D02*
X139789160Y-86750771D01*
X139789160Y-86750771D02*
X139884398Y-86703152D01*
X139884398Y-86703152D02*
X140027255Y-86703152D01*
X140027255Y-86703152D02*
X140122493Y-86750771D01*
X140122493Y-86750771D02*
X140170112Y-86846009D01*
X140170112Y-86846009D02*
X140170112Y-87369819D01*
X141074874Y-87369819D02*
X141074874Y-86369819D01*
X141074874Y-87322200D02*
X140979636Y-87369819D01*
X140979636Y-87369819D02*
X140789160Y-87369819D01*
X140789160Y-87369819D02*
X140693922Y-87322200D01*
X140693922Y-87322200D02*
X140646303Y-87274580D01*
X140646303Y-87274580D02*
X140598684Y-87179342D01*
X140598684Y-87179342D02*
X140598684Y-86893628D01*
X140598684Y-86893628D02*
X140646303Y-86798390D01*
X140646303Y-86798390D02*
X140693922Y-86750771D01*
X140693922Y-86750771D02*
X140789160Y-86703152D01*
X140789160Y-86703152D02*
X140979636Y-86703152D01*
X140979636Y-86703152D02*
X141074874Y-86750771D01*
X161241541Y-73869819D02*
X161860588Y-73869819D01*
X161860588Y-73869819D02*
X161527255Y-74250771D01*
X161527255Y-74250771D02*
X161670112Y-74250771D01*
X161670112Y-74250771D02*
X161765350Y-74298390D01*
X161765350Y-74298390D02*
X161812969Y-74346009D01*
X161812969Y-74346009D02*
X161860588Y-74441247D01*
X161860588Y-74441247D02*
X161860588Y-74679342D01*
X161860588Y-74679342D02*
X161812969Y-74774580D01*
X161812969Y-74774580D02*
X161765350Y-74822200D01*
X161765350Y-74822200D02*
X161670112Y-74869819D01*
X161670112Y-74869819D02*
X161384398Y-74869819D01*
X161384398Y-74869819D02*
X161289160Y-74822200D01*
X161289160Y-74822200D02*
X161241541Y-74774580D01*
X162289160Y-74774580D02*
X162336779Y-74822200D01*
X162336779Y-74822200D02*
X162289160Y-74869819D01*
X162289160Y-74869819D02*
X162241541Y-74822200D01*
X162241541Y-74822200D02*
X162289160Y-74774580D01*
X162289160Y-74774580D02*
X162289160Y-74869819D01*
X162670112Y-73869819D02*
X163289159Y-73869819D01*
X163289159Y-73869819D02*
X162955826Y-74250771D01*
X162955826Y-74250771D02*
X163098683Y-74250771D01*
X163098683Y-74250771D02*
X163193921Y-74298390D01*
X163193921Y-74298390D02*
X163241540Y-74346009D01*
X163241540Y-74346009D02*
X163289159Y-74441247D01*
X163289159Y-74441247D02*
X163289159Y-74679342D01*
X163289159Y-74679342D02*
X163241540Y-74774580D01*
X163241540Y-74774580D02*
X163193921Y-74822200D01*
X163193921Y-74822200D02*
X163098683Y-74869819D01*
X163098683Y-74869819D02*
X162812969Y-74869819D01*
X162812969Y-74869819D02*
X162717731Y-74822200D01*
X162717731Y-74822200D02*
X162670112Y-74774580D01*
X163622493Y-74203152D02*
X163860588Y-74869819D01*
X163860588Y-74869819D02*
X164098683Y-74203152D01*
X161265350Y-79203152D02*
X161265350Y-80012676D01*
X161265350Y-80012676D02*
X161217731Y-80107914D01*
X161217731Y-80107914D02*
X161170112Y-80155533D01*
X161170112Y-80155533D02*
X161074874Y-80203152D01*
X161074874Y-80203152D02*
X160932017Y-80203152D01*
X160932017Y-80203152D02*
X160836779Y-80155533D01*
X161265350Y-79822200D02*
X161170112Y-79869819D01*
X161170112Y-79869819D02*
X160979636Y-79869819D01*
X160979636Y-79869819D02*
X160884398Y-79822200D01*
X160884398Y-79822200D02*
X160836779Y-79774580D01*
X160836779Y-79774580D02*
X160789160Y-79679342D01*
X160789160Y-79679342D02*
X160789160Y-79393628D01*
X160789160Y-79393628D02*
X160836779Y-79298390D01*
X160836779Y-79298390D02*
X160884398Y-79250771D01*
X160884398Y-79250771D02*
X160979636Y-79203152D01*
X160979636Y-79203152D02*
X161170112Y-79203152D01*
X161170112Y-79203152D02*
X161265350Y-79250771D01*
X161741541Y-79203152D02*
X161741541Y-79869819D01*
X161741541Y-79298390D02*
X161789160Y-79250771D01*
X161789160Y-79250771D02*
X161884398Y-79203152D01*
X161884398Y-79203152D02*
X162027255Y-79203152D01*
X162027255Y-79203152D02*
X162122493Y-79250771D01*
X162122493Y-79250771D02*
X162170112Y-79346009D01*
X162170112Y-79346009D02*
X162170112Y-79869819D01*
X163074874Y-79869819D02*
X163074874Y-78869819D01*
X163074874Y-79822200D02*
X162979636Y-79869819D01*
X162979636Y-79869819D02*
X162789160Y-79869819D01*
X162789160Y-79869819D02*
X162693922Y-79822200D01*
X162693922Y-79822200D02*
X162646303Y-79774580D01*
X162646303Y-79774580D02*
X162598684Y-79679342D01*
X162598684Y-79679342D02*
X162598684Y-79393628D01*
X162598684Y-79393628D02*
X162646303Y-79298390D01*
X162646303Y-79298390D02*
X162693922Y-79250771D01*
X162693922Y-79250771D02*
X162789160Y-79203152D01*
X162789160Y-79203152D02*
X162979636Y-79203152D01*
X162979636Y-79203152D02*
X163074874Y-79250771D01*
X163812969Y-57869819D02*
X163336779Y-57869819D01*
X163336779Y-57869819D02*
X163289160Y-58346009D01*
X163289160Y-58346009D02*
X163336779Y-58298390D01*
X163336779Y-58298390D02*
X163432017Y-58250771D01*
X163432017Y-58250771D02*
X163670112Y-58250771D01*
X163670112Y-58250771D02*
X163765350Y-58298390D01*
X163765350Y-58298390D02*
X163812969Y-58346009D01*
X163812969Y-58346009D02*
X163860588Y-58441247D01*
X163860588Y-58441247D02*
X163860588Y-58679342D01*
X163860588Y-58679342D02*
X163812969Y-58774580D01*
X163812969Y-58774580D02*
X163765350Y-58822200D01*
X163765350Y-58822200D02*
X163670112Y-58869819D01*
X163670112Y-58869819D02*
X163432017Y-58869819D01*
X163432017Y-58869819D02*
X163336779Y-58822200D01*
X163336779Y-58822200D02*
X163289160Y-58774580D01*
X164146303Y-57869819D02*
X164479636Y-58869819D01*
X164479636Y-58869819D02*
X164812969Y-57869819D01*
X162860588Y-55417438D02*
X162765350Y-55369819D01*
X162765350Y-55369819D02*
X162622493Y-55369819D01*
X162622493Y-55369819D02*
X162479636Y-55417438D01*
X162479636Y-55417438D02*
X162384398Y-55512676D01*
X162384398Y-55512676D02*
X162336779Y-55607914D01*
X162336779Y-55607914D02*
X162289160Y-55798390D01*
X162289160Y-55798390D02*
X162289160Y-55941247D01*
X162289160Y-55941247D02*
X162336779Y-56131723D01*
X162336779Y-56131723D02*
X162384398Y-56226961D01*
X162384398Y-56226961D02*
X162479636Y-56322200D01*
X162479636Y-56322200D02*
X162622493Y-56369819D01*
X162622493Y-56369819D02*
X162717731Y-56369819D01*
X162717731Y-56369819D02*
X162860588Y-56322200D01*
X162860588Y-56322200D02*
X162908207Y-56274580D01*
X162908207Y-56274580D02*
X162908207Y-55941247D01*
X162908207Y-55941247D02*
X162717731Y-55941247D01*
X163336779Y-55703152D02*
X163336779Y-56369819D01*
X163336779Y-55798390D02*
X163384398Y-55750771D01*
X163384398Y-55750771D02*
X163479636Y-55703152D01*
X163479636Y-55703152D02*
X163622493Y-55703152D01*
X163622493Y-55703152D02*
X163717731Y-55750771D01*
X163717731Y-55750771D02*
X163765350Y-55846009D01*
X163765350Y-55846009D02*
X163765350Y-56369819D01*
X164670112Y-56369819D02*
X164670112Y-55369819D01*
X164670112Y-56322200D02*
X164574874Y-56369819D01*
X164574874Y-56369819D02*
X164384398Y-56369819D01*
X164384398Y-56369819D02*
X164289160Y-56322200D01*
X164289160Y-56322200D02*
X164241541Y-56274580D01*
X164241541Y-56274580D02*
X164193922Y-56179342D01*
X164193922Y-56179342D02*
X164193922Y-55893628D01*
X164193922Y-55893628D02*
X164241541Y-55798390D01*
X164241541Y-55798390D02*
X164289160Y-55750771D01*
X164289160Y-55750771D02*
X164384398Y-55703152D01*
X164384398Y-55703152D02*
X164574874Y-55703152D01*
X164574874Y-55703152D02*
X164670112Y-55750771D01*
X148991905Y-72494819D02*
X148991905Y-71494819D01*
X148991905Y-71494819D02*
X149230000Y-71494819D01*
X149230000Y-71494819D02*
X149372857Y-71542438D01*
X149372857Y-71542438D02*
X149468095Y-71637676D01*
X149468095Y-71637676D02*
X149515714Y-71732914D01*
X149515714Y-71732914D02*
X149563333Y-71923390D01*
X149563333Y-71923390D02*
X149563333Y-72066247D01*
X149563333Y-72066247D02*
X149515714Y-72256723D01*
X149515714Y-72256723D02*
X149468095Y-72351961D01*
X149468095Y-72351961D02*
X149372857Y-72447200D01*
X149372857Y-72447200D02*
X149230000Y-72494819D01*
X149230000Y-72494819D02*
X148991905Y-72494819D01*
X149944286Y-71590057D02*
X149991905Y-71542438D01*
X149991905Y-71542438D02*
X150087143Y-71494819D01*
X150087143Y-71494819D02*
X150325238Y-71494819D01*
X150325238Y-71494819D02*
X150420476Y-71542438D01*
X150420476Y-71542438D02*
X150468095Y-71590057D01*
X150468095Y-71590057D02*
X150515714Y-71685295D01*
X150515714Y-71685295D02*
X150515714Y-71780533D01*
X150515714Y-71780533D02*
X150468095Y-71923390D01*
X150468095Y-71923390D02*
X149896667Y-72494819D01*
X149896667Y-72494819D02*
X150515714Y-72494819D01*
X115979820Y-67286903D02*
X116789343Y-67286903D01*
X116789343Y-67286903D02*
X116884581Y-67239284D01*
X116884581Y-67239284D02*
X116932201Y-67191665D01*
X116932201Y-67191665D02*
X116979820Y-67096427D01*
X116979820Y-67096427D02*
X116979820Y-66905951D01*
X116979820Y-66905951D02*
X116932201Y-66810713D01*
X116932201Y-66810713D02*
X116884581Y-66763094D01*
X116884581Y-66763094D02*
X116789343Y-66715475D01*
X116789343Y-66715475D02*
X115979820Y-66715475D01*
X116979820Y-65715475D02*
X116979820Y-66286903D01*
X116979820Y-66001189D02*
X115979820Y-66001189D01*
X115979820Y-66001189D02*
X116122677Y-66096427D01*
X116122677Y-66096427D02*
X116217915Y-66191665D01*
X116217915Y-66191665D02*
X116265534Y-66286903D01*
X157954819Y-58246666D02*
X157478628Y-58579999D01*
X157954819Y-58818094D02*
X156954819Y-58818094D01*
X156954819Y-58818094D02*
X156954819Y-58437142D01*
X156954819Y-58437142D02*
X157002438Y-58341904D01*
X157002438Y-58341904D02*
X157050057Y-58294285D01*
X157050057Y-58294285D02*
X157145295Y-58246666D01*
X157145295Y-58246666D02*
X157288152Y-58246666D01*
X157288152Y-58246666D02*
X157383390Y-58294285D01*
X157383390Y-58294285D02*
X157431009Y-58341904D01*
X157431009Y-58341904D02*
X157478628Y-58437142D01*
X157478628Y-58437142D02*
X157478628Y-58818094D01*
X157954819Y-57294285D02*
X157954819Y-57865713D01*
X157954819Y-57579999D02*
X156954819Y-57579999D01*
X156954819Y-57579999D02*
X157097676Y-57675237D01*
X157097676Y-57675237D02*
X157192914Y-57770475D01*
X157192914Y-57770475D02*
X157240533Y-57865713D01*
X119833333Y-89859580D02*
X119785714Y-89907200D01*
X119785714Y-89907200D02*
X119642857Y-89954819D01*
X119642857Y-89954819D02*
X119547619Y-89954819D01*
X119547619Y-89954819D02*
X119404762Y-89907200D01*
X119404762Y-89907200D02*
X119309524Y-89811961D01*
X119309524Y-89811961D02*
X119261905Y-89716723D01*
X119261905Y-89716723D02*
X119214286Y-89526247D01*
X119214286Y-89526247D02*
X119214286Y-89383390D01*
X119214286Y-89383390D02*
X119261905Y-89192914D01*
X119261905Y-89192914D02*
X119309524Y-89097676D01*
X119309524Y-89097676D02*
X119404762Y-89002438D01*
X119404762Y-89002438D02*
X119547619Y-88954819D01*
X119547619Y-88954819D02*
X119642857Y-88954819D01*
X119642857Y-88954819D02*
X119785714Y-89002438D01*
X119785714Y-89002438D02*
X119833333Y-89050057D01*
X120214286Y-89050057D02*
X120261905Y-89002438D01*
X120261905Y-89002438D02*
X120357143Y-88954819D01*
X120357143Y-88954819D02*
X120595238Y-88954819D01*
X120595238Y-88954819D02*
X120690476Y-89002438D01*
X120690476Y-89002438D02*
X120738095Y-89050057D01*
X120738095Y-89050057D02*
X120785714Y-89145295D01*
X120785714Y-89145295D02*
X120785714Y-89240533D01*
X120785714Y-89240533D02*
X120738095Y-89383390D01*
X120738095Y-89383390D02*
X120166667Y-89954819D01*
X120166667Y-89954819D02*
X120785714Y-89954819D01*
X139454819Y-58246666D02*
X138978628Y-58579999D01*
X139454819Y-58818094D02*
X138454819Y-58818094D01*
X138454819Y-58818094D02*
X138454819Y-58437142D01*
X138454819Y-58437142D02*
X138502438Y-58341904D01*
X138502438Y-58341904D02*
X138550057Y-58294285D01*
X138550057Y-58294285D02*
X138645295Y-58246666D01*
X138645295Y-58246666D02*
X138788152Y-58246666D01*
X138788152Y-58246666D02*
X138883390Y-58294285D01*
X138883390Y-58294285D02*
X138931009Y-58341904D01*
X138931009Y-58341904D02*
X138978628Y-58437142D01*
X138978628Y-58437142D02*
X138978628Y-58818094D01*
X138454819Y-57389523D02*
X138454819Y-57579999D01*
X138454819Y-57579999D02*
X138502438Y-57675237D01*
X138502438Y-57675237D02*
X138550057Y-57722856D01*
X138550057Y-57722856D02*
X138692914Y-57818094D01*
X138692914Y-57818094D02*
X138883390Y-57865713D01*
X138883390Y-57865713D02*
X139264342Y-57865713D01*
X139264342Y-57865713D02*
X139359580Y-57818094D01*
X139359580Y-57818094D02*
X139407200Y-57770475D01*
X139407200Y-57770475D02*
X139454819Y-57675237D01*
X139454819Y-57675237D02*
X139454819Y-57484761D01*
X139454819Y-57484761D02*
X139407200Y-57389523D01*
X139407200Y-57389523D02*
X139359580Y-57341904D01*
X139359580Y-57341904D02*
X139264342Y-57294285D01*
X139264342Y-57294285D02*
X139026247Y-57294285D01*
X139026247Y-57294285D02*
X138931009Y-57341904D01*
X138931009Y-57341904D02*
X138883390Y-57389523D01*
X138883390Y-57389523D02*
X138835771Y-57484761D01*
X138835771Y-57484761D02*
X138835771Y-57675237D01*
X138835771Y-57675237D02*
X138883390Y-57770475D01*
X138883390Y-57770475D02*
X138931009Y-57818094D01*
X138931009Y-57818094D02*
X139026247Y-57865713D01*
X154454819Y-58246666D02*
X153978628Y-58579999D01*
X154454819Y-58818094D02*
X153454819Y-58818094D01*
X153454819Y-58818094D02*
X153454819Y-58437142D01*
X153454819Y-58437142D02*
X153502438Y-58341904D01*
X153502438Y-58341904D02*
X153550057Y-58294285D01*
X153550057Y-58294285D02*
X153645295Y-58246666D01*
X153645295Y-58246666D02*
X153788152Y-58246666D01*
X153788152Y-58246666D02*
X153883390Y-58294285D01*
X153883390Y-58294285D02*
X153931009Y-58341904D01*
X153931009Y-58341904D02*
X153978628Y-58437142D01*
X153978628Y-58437142D02*
X153978628Y-58818094D01*
X153550057Y-57865713D02*
X153502438Y-57818094D01*
X153502438Y-57818094D02*
X153454819Y-57722856D01*
X153454819Y-57722856D02*
X153454819Y-57484761D01*
X153454819Y-57484761D02*
X153502438Y-57389523D01*
X153502438Y-57389523D02*
X153550057Y-57341904D01*
X153550057Y-57341904D02*
X153645295Y-57294285D01*
X153645295Y-57294285D02*
X153740533Y-57294285D01*
X153740533Y-57294285D02*
X153883390Y-57341904D01*
X153883390Y-57341904D02*
X154454819Y-57913332D01*
X154454819Y-57913332D02*
X154454819Y-57294285D01*
X153491905Y-68454819D02*
X153491905Y-67454819D01*
X153491905Y-67454819D02*
X153730000Y-67454819D01*
X153730000Y-67454819D02*
X153872857Y-67502438D01*
X153872857Y-67502438D02*
X153968095Y-67597676D01*
X153968095Y-67597676D02*
X154015714Y-67692914D01*
X154015714Y-67692914D02*
X154063333Y-67883390D01*
X154063333Y-67883390D02*
X154063333Y-68026247D01*
X154063333Y-68026247D02*
X154015714Y-68216723D01*
X154015714Y-68216723D02*
X153968095Y-68311961D01*
X153968095Y-68311961D02*
X153872857Y-68407200D01*
X153872857Y-68407200D02*
X153730000Y-68454819D01*
X153730000Y-68454819D02*
X153491905Y-68454819D01*
X155015714Y-68454819D02*
X154444286Y-68454819D01*
X154730000Y-68454819D02*
X154730000Y-67454819D01*
X154730000Y-67454819D02*
X154634762Y-67597676D01*
X154634762Y-67597676D02*
X154539524Y-67692914D01*
X154539524Y-67692914D02*
X154444286Y-67740533D01*
X121833333Y-83954819D02*
X121500000Y-83478628D01*
X121261905Y-83954819D02*
X121261905Y-82954819D01*
X121261905Y-82954819D02*
X121642857Y-82954819D01*
X121642857Y-82954819D02*
X121738095Y-83002438D01*
X121738095Y-83002438D02*
X121785714Y-83050057D01*
X121785714Y-83050057D02*
X121833333Y-83145295D01*
X121833333Y-83145295D02*
X121833333Y-83288152D01*
X121833333Y-83288152D02*
X121785714Y-83383390D01*
X121785714Y-83383390D02*
X121738095Y-83431009D01*
X121738095Y-83431009D02*
X121642857Y-83478628D01*
X121642857Y-83478628D02*
X121261905Y-83478628D01*
X122166667Y-82954819D02*
X122833333Y-82954819D01*
X122833333Y-82954819D02*
X122404762Y-83954819D01*
X136666666Y-93014819D02*
X136666666Y-93729104D01*
X136666666Y-93729104D02*
X136619047Y-93871961D01*
X136619047Y-93871961D02*
X136523809Y-93967200D01*
X136523809Y-93967200D02*
X136380952Y-94014819D01*
X136380952Y-94014819D02*
X136285714Y-94014819D01*
X137047619Y-93014819D02*
X137714285Y-93014819D01*
X137714285Y-93014819D02*
X137285714Y-94014819D01*
X161666666Y-59374819D02*
X161666666Y-60089104D01*
X161666666Y-60089104D02*
X161619047Y-60231961D01*
X161619047Y-60231961D02*
X161523809Y-60327200D01*
X161523809Y-60327200D02*
X161380952Y-60374819D01*
X161380952Y-60374819D02*
X161285714Y-60374819D01*
X162619047Y-59374819D02*
X162142857Y-59374819D01*
X162142857Y-59374819D02*
X162095238Y-59851009D01*
X162095238Y-59851009D02*
X162142857Y-59803390D01*
X162142857Y-59803390D02*
X162238095Y-59755771D01*
X162238095Y-59755771D02*
X162476190Y-59755771D01*
X162476190Y-59755771D02*
X162571428Y-59803390D01*
X162571428Y-59803390D02*
X162619047Y-59851009D01*
X162619047Y-59851009D02*
X162666666Y-59946247D01*
X162666666Y-59946247D02*
X162666666Y-60184342D01*
X162666666Y-60184342D02*
X162619047Y-60279580D01*
X162619047Y-60279580D02*
X162571428Y-60327200D01*
X162571428Y-60327200D02*
X162476190Y-60374819D01*
X162476190Y-60374819D02*
X162238095Y-60374819D01*
X162238095Y-60374819D02*
X162142857Y-60327200D01*
X162142857Y-60327200D02*
X162095238Y-60279580D01*
X150954819Y-58246666D02*
X150478628Y-58579999D01*
X150954819Y-58818094D02*
X149954819Y-58818094D01*
X149954819Y-58818094D02*
X149954819Y-58437142D01*
X149954819Y-58437142D02*
X150002438Y-58341904D01*
X150002438Y-58341904D02*
X150050057Y-58294285D01*
X150050057Y-58294285D02*
X150145295Y-58246666D01*
X150145295Y-58246666D02*
X150288152Y-58246666D01*
X150288152Y-58246666D02*
X150383390Y-58294285D01*
X150383390Y-58294285D02*
X150431009Y-58341904D01*
X150431009Y-58341904D02*
X150478628Y-58437142D01*
X150478628Y-58437142D02*
X150478628Y-58818094D01*
X149954819Y-57913332D02*
X149954819Y-57294285D01*
X149954819Y-57294285D02*
X150335771Y-57627618D01*
X150335771Y-57627618D02*
X150335771Y-57484761D01*
X150335771Y-57484761D02*
X150383390Y-57389523D01*
X150383390Y-57389523D02*
X150431009Y-57341904D01*
X150431009Y-57341904D02*
X150526247Y-57294285D01*
X150526247Y-57294285D02*
X150764342Y-57294285D01*
X150764342Y-57294285D02*
X150859580Y-57341904D01*
X150859580Y-57341904D02*
X150907200Y-57389523D01*
X150907200Y-57389523D02*
X150954819Y-57484761D01*
X150954819Y-57484761D02*
X150954819Y-57770475D01*
X150954819Y-57770475D02*
X150907200Y-57865713D01*
X150907200Y-57865713D02*
X150859580Y-57913332D01*
X133991905Y-68454819D02*
X133991905Y-67454819D01*
X133991905Y-67454819D02*
X134230000Y-67454819D01*
X134230000Y-67454819D02*
X134372857Y-67502438D01*
X134372857Y-67502438D02*
X134468095Y-67597676D01*
X134468095Y-67597676D02*
X134515714Y-67692914D01*
X134515714Y-67692914D02*
X134563333Y-67883390D01*
X134563333Y-67883390D02*
X134563333Y-68026247D01*
X134563333Y-68026247D02*
X134515714Y-68216723D01*
X134515714Y-68216723D02*
X134468095Y-68311961D01*
X134468095Y-68311961D02*
X134372857Y-68407200D01*
X134372857Y-68407200D02*
X134230000Y-68454819D01*
X134230000Y-68454819D02*
X133991905Y-68454819D01*
X135468095Y-67454819D02*
X134991905Y-67454819D01*
X134991905Y-67454819D02*
X134944286Y-67931009D01*
X134944286Y-67931009D02*
X134991905Y-67883390D01*
X134991905Y-67883390D02*
X135087143Y-67835771D01*
X135087143Y-67835771D02*
X135325238Y-67835771D01*
X135325238Y-67835771D02*
X135420476Y-67883390D01*
X135420476Y-67883390D02*
X135468095Y-67931009D01*
X135468095Y-67931009D02*
X135515714Y-68026247D01*
X135515714Y-68026247D02*
X135515714Y-68264342D01*
X135515714Y-68264342D02*
X135468095Y-68359580D01*
X135468095Y-68359580D02*
X135420476Y-68407200D01*
X135420476Y-68407200D02*
X135325238Y-68454819D01*
X135325238Y-68454819D02*
X135087143Y-68454819D01*
X135087143Y-68454819D02*
X134991905Y-68407200D01*
X134991905Y-68407200D02*
X134944286Y-68359580D01*
X146991905Y-68454819D02*
X146991905Y-67454819D01*
X146991905Y-67454819D02*
X147230000Y-67454819D01*
X147230000Y-67454819D02*
X147372857Y-67502438D01*
X147372857Y-67502438D02*
X147468095Y-67597676D01*
X147468095Y-67597676D02*
X147515714Y-67692914D01*
X147515714Y-67692914D02*
X147563333Y-67883390D01*
X147563333Y-67883390D02*
X147563333Y-68026247D01*
X147563333Y-68026247D02*
X147515714Y-68216723D01*
X147515714Y-68216723D02*
X147468095Y-68311961D01*
X147468095Y-68311961D02*
X147372857Y-68407200D01*
X147372857Y-68407200D02*
X147230000Y-68454819D01*
X147230000Y-68454819D02*
X146991905Y-68454819D01*
X147896667Y-67454819D02*
X148515714Y-67454819D01*
X148515714Y-67454819D02*
X148182381Y-67835771D01*
X148182381Y-67835771D02*
X148325238Y-67835771D01*
X148325238Y-67835771D02*
X148420476Y-67883390D01*
X148420476Y-67883390D02*
X148468095Y-67931009D01*
X148468095Y-67931009D02*
X148515714Y-68026247D01*
X148515714Y-68026247D02*
X148515714Y-68264342D01*
X148515714Y-68264342D02*
X148468095Y-68359580D01*
X148468095Y-68359580D02*
X148420476Y-68407200D01*
X148420476Y-68407200D02*
X148325238Y-68454819D01*
X148325238Y-68454819D02*
X148039524Y-68454819D01*
X148039524Y-68454819D02*
X147944286Y-68407200D01*
X147944286Y-68407200D02*
X147896667Y-68359580D01*
X143454819Y-58166666D02*
X142978628Y-58499999D01*
X143454819Y-58738094D02*
X142454819Y-58738094D01*
X142454819Y-58738094D02*
X142454819Y-58357142D01*
X142454819Y-58357142D02*
X142502438Y-58261904D01*
X142502438Y-58261904D02*
X142550057Y-58214285D01*
X142550057Y-58214285D02*
X142645295Y-58166666D01*
X142645295Y-58166666D02*
X142788152Y-58166666D01*
X142788152Y-58166666D02*
X142883390Y-58214285D01*
X142883390Y-58214285D02*
X142931009Y-58261904D01*
X142931009Y-58261904D02*
X142978628Y-58357142D01*
X142978628Y-58357142D02*
X142978628Y-58738094D01*
X142454819Y-57261904D02*
X142454819Y-57738094D01*
X142454819Y-57738094D02*
X142931009Y-57785713D01*
X142931009Y-57785713D02*
X142883390Y-57738094D01*
X142883390Y-57738094D02*
X142835771Y-57642856D01*
X142835771Y-57642856D02*
X142835771Y-57404761D01*
X142835771Y-57404761D02*
X142883390Y-57309523D01*
X142883390Y-57309523D02*
X142931009Y-57261904D01*
X142931009Y-57261904D02*
X143026247Y-57214285D01*
X143026247Y-57214285D02*
X143264342Y-57214285D01*
X143264342Y-57214285D02*
X143359580Y-57261904D01*
X143359580Y-57261904D02*
X143407200Y-57309523D01*
X143407200Y-57309523D02*
X143454819Y-57404761D01*
X143454819Y-57404761D02*
X143454819Y-57642856D01*
X143454819Y-57642856D02*
X143407200Y-57738094D01*
X143407200Y-57738094D02*
X143359580Y-57785713D01*
X132991905Y-58454819D02*
X132991905Y-57454819D01*
X132991905Y-57454819D02*
X133230000Y-57454819D01*
X133230000Y-57454819D02*
X133372857Y-57502438D01*
X133372857Y-57502438D02*
X133468095Y-57597676D01*
X133468095Y-57597676D02*
X133515714Y-57692914D01*
X133515714Y-57692914D02*
X133563333Y-57883390D01*
X133563333Y-57883390D02*
X133563333Y-58026247D01*
X133563333Y-58026247D02*
X133515714Y-58216723D01*
X133515714Y-58216723D02*
X133468095Y-58311961D01*
X133468095Y-58311961D02*
X133372857Y-58407200D01*
X133372857Y-58407200D02*
X133230000Y-58454819D01*
X133230000Y-58454819D02*
X132991905Y-58454819D01*
X134420476Y-57454819D02*
X134230000Y-57454819D01*
X134230000Y-57454819D02*
X134134762Y-57502438D01*
X134134762Y-57502438D02*
X134087143Y-57550057D01*
X134087143Y-57550057D02*
X133991905Y-57692914D01*
X133991905Y-57692914D02*
X133944286Y-57883390D01*
X133944286Y-57883390D02*
X133944286Y-58264342D01*
X133944286Y-58264342D02*
X133991905Y-58359580D01*
X133991905Y-58359580D02*
X134039524Y-58407200D01*
X134039524Y-58407200D02*
X134134762Y-58454819D01*
X134134762Y-58454819D02*
X134325238Y-58454819D01*
X134325238Y-58454819D02*
X134420476Y-58407200D01*
X134420476Y-58407200D02*
X134468095Y-58359580D01*
X134468095Y-58359580D02*
X134515714Y-58264342D01*
X134515714Y-58264342D02*
X134515714Y-58026247D01*
X134515714Y-58026247D02*
X134468095Y-57931009D01*
X134468095Y-57931009D02*
X134420476Y-57883390D01*
X134420476Y-57883390D02*
X134325238Y-57835771D01*
X134325238Y-57835771D02*
X134134762Y-57835771D01*
X134134762Y-57835771D02*
X134039524Y-57883390D01*
X134039524Y-57883390D02*
X133991905Y-57931009D01*
X133991905Y-57931009D02*
X133944286Y-58026247D01*
X140491905Y-68454819D02*
X140491905Y-67454819D01*
X140491905Y-67454819D02*
X140730000Y-67454819D01*
X140730000Y-67454819D02*
X140872857Y-67502438D01*
X140872857Y-67502438D02*
X140968095Y-67597676D01*
X140968095Y-67597676D02*
X141015714Y-67692914D01*
X141015714Y-67692914D02*
X141063333Y-67883390D01*
X141063333Y-67883390D02*
X141063333Y-68026247D01*
X141063333Y-68026247D02*
X141015714Y-68216723D01*
X141015714Y-68216723D02*
X140968095Y-68311961D01*
X140968095Y-68311961D02*
X140872857Y-68407200D01*
X140872857Y-68407200D02*
X140730000Y-68454819D01*
X140730000Y-68454819D02*
X140491905Y-68454819D01*
X141920476Y-67788152D02*
X141920476Y-68454819D01*
X141682381Y-67407200D02*
X141444286Y-68121485D01*
X141444286Y-68121485D02*
X142063333Y-68121485D01*
X147584819Y-58246666D02*
X147108628Y-58579999D01*
X147584819Y-58818094D02*
X146584819Y-58818094D01*
X146584819Y-58818094D02*
X146584819Y-58437142D01*
X146584819Y-58437142D02*
X146632438Y-58341904D01*
X146632438Y-58341904D02*
X146680057Y-58294285D01*
X146680057Y-58294285D02*
X146775295Y-58246666D01*
X146775295Y-58246666D02*
X146918152Y-58246666D01*
X146918152Y-58246666D02*
X147013390Y-58294285D01*
X147013390Y-58294285D02*
X147061009Y-58341904D01*
X147061009Y-58341904D02*
X147108628Y-58437142D01*
X147108628Y-58437142D02*
X147108628Y-58818094D01*
X146918152Y-57389523D02*
X147584819Y-57389523D01*
X146537200Y-57627618D02*
X147251485Y-57865713D01*
X147251485Y-57865713D02*
X147251485Y-57246666D01*
X124833333Y-75954819D02*
X124500000Y-75478628D01*
X124261905Y-75954819D02*
X124261905Y-74954819D01*
X124261905Y-74954819D02*
X124642857Y-74954819D01*
X124642857Y-74954819D02*
X124738095Y-75002438D01*
X124738095Y-75002438D02*
X124785714Y-75050057D01*
X124785714Y-75050057D02*
X124833333Y-75145295D01*
X124833333Y-75145295D02*
X124833333Y-75288152D01*
X124833333Y-75288152D02*
X124785714Y-75383390D01*
X124785714Y-75383390D02*
X124738095Y-75431009D01*
X124738095Y-75431009D02*
X124642857Y-75478628D01*
X124642857Y-75478628D02*
X124261905Y-75478628D01*
X125404762Y-75383390D02*
X125309524Y-75335771D01*
X125309524Y-75335771D02*
X125261905Y-75288152D01*
X125261905Y-75288152D02*
X125214286Y-75192914D01*
X125214286Y-75192914D02*
X125214286Y-75145295D01*
X125214286Y-75145295D02*
X125261905Y-75050057D01*
X125261905Y-75050057D02*
X125309524Y-75002438D01*
X125309524Y-75002438D02*
X125404762Y-74954819D01*
X125404762Y-74954819D02*
X125595238Y-74954819D01*
X125595238Y-74954819D02*
X125690476Y-75002438D01*
X125690476Y-75002438D02*
X125738095Y-75050057D01*
X125738095Y-75050057D02*
X125785714Y-75145295D01*
X125785714Y-75145295D02*
X125785714Y-75192914D01*
X125785714Y-75192914D02*
X125738095Y-75288152D01*
X125738095Y-75288152D02*
X125690476Y-75335771D01*
X125690476Y-75335771D02*
X125595238Y-75383390D01*
X125595238Y-75383390D02*
X125404762Y-75383390D01*
X125404762Y-75383390D02*
X125309524Y-75431009D01*
X125309524Y-75431009D02*
X125261905Y-75478628D01*
X125261905Y-75478628D02*
X125214286Y-75573866D01*
X125214286Y-75573866D02*
X125214286Y-75764342D01*
X125214286Y-75764342D02*
X125261905Y-75859580D01*
X125261905Y-75859580D02*
X125309524Y-75907200D01*
X125309524Y-75907200D02*
X125404762Y-75954819D01*
X125404762Y-75954819D02*
X125595238Y-75954819D01*
X125595238Y-75954819D02*
X125690476Y-75907200D01*
X125690476Y-75907200D02*
X125738095Y-75859580D01*
X125738095Y-75859580D02*
X125785714Y-75764342D01*
X125785714Y-75764342D02*
X125785714Y-75573866D01*
X125785714Y-75573866D02*
X125738095Y-75478628D01*
X125738095Y-75478628D02*
X125690476Y-75431009D01*
X125690476Y-75431009D02*
X125595238Y-75383390D01*
X158776666Y-71924819D02*
X158776666Y-72639104D01*
X158776666Y-72639104D02*
X158729047Y-72781961D01*
X158729047Y-72781961D02*
X158633809Y-72877200D01*
X158633809Y-72877200D02*
X158490952Y-72924819D01*
X158490952Y-72924819D02*
X158395714Y-72924819D01*
X159681428Y-71924819D02*
X159490952Y-71924819D01*
X159490952Y-71924819D02*
X159395714Y-71972438D01*
X159395714Y-71972438D02*
X159348095Y-72020057D01*
X159348095Y-72020057D02*
X159252857Y-72162914D01*
X159252857Y-72162914D02*
X159205238Y-72353390D01*
X159205238Y-72353390D02*
X159205238Y-72734342D01*
X159205238Y-72734342D02*
X159252857Y-72829580D01*
X159252857Y-72829580D02*
X159300476Y-72877200D01*
X159300476Y-72877200D02*
X159395714Y-72924819D01*
X159395714Y-72924819D02*
X159586190Y-72924819D01*
X159586190Y-72924819D02*
X159681428Y-72877200D01*
X159681428Y-72877200D02*
X159729047Y-72829580D01*
X159729047Y-72829580D02*
X159776666Y-72734342D01*
X159776666Y-72734342D02*
X159776666Y-72496247D01*
X159776666Y-72496247D02*
X159729047Y-72401009D01*
X159729047Y-72401009D02*
X159681428Y-72353390D01*
X159681428Y-72353390D02*
X159586190Y-72305771D01*
X159586190Y-72305771D02*
X159395714Y-72305771D01*
X159395714Y-72305771D02*
X159300476Y-72353390D01*
X159300476Y-72353390D02*
X159252857Y-72401009D01*
X159252857Y-72401009D02*
X159205238Y-72496247D01*
D11*
%TO.C,J1*%
X126610000Y-96130000D02*
X127940000Y-96130000D01*
X126610000Y-97460000D02*
X126610000Y-96130000D01*
X129210000Y-96130000D02*
X147050000Y-96130000D01*
X129210000Y-98790000D02*
X129210000Y-96130000D01*
X129210000Y-98790000D02*
X147050000Y-98790000D01*
X147050000Y-98790000D02*
X147050000Y-96130000D01*
%TO.C,J3*%
X149470000Y-96130000D02*
X150800000Y-96130000D01*
X149470000Y-97460000D02*
X149470000Y-96130000D01*
X152070000Y-96130000D02*
X164830000Y-96130000D01*
X152070000Y-98790000D02*
X152070000Y-96130000D01*
X152070000Y-98790000D02*
X164830000Y-98790000D01*
X164830000Y-98790000D02*
X164830000Y-96130000D01*
%TO.C,J2*%
X117466000Y-47870000D02*
X118796000Y-47870000D01*
X117466000Y-49200000D02*
X117466000Y-47870000D01*
X120066000Y-47870000D02*
X142986000Y-47870000D01*
X120066000Y-50530000D02*
X120066000Y-47870000D01*
X120066000Y-50530000D02*
X142986000Y-50530000D01*
X142986000Y-50530000D02*
X142986000Y-47870000D01*
%TO.C,J4*%
X144390000Y-47870000D02*
X145720000Y-47870000D01*
X144390000Y-49200000D02*
X144390000Y-47870000D01*
X146990000Y-47870000D02*
X164830000Y-47870000D01*
X146990000Y-50530000D02*
X146990000Y-47870000D01*
X146990000Y-50530000D02*
X164830000Y-50530000D01*
X164830000Y-50530000D02*
X164830000Y-47870000D01*
%TO.C,D2*%
X147170000Y-74455000D02*
X147170000Y-77545000D01*
X147170000Y-74455170D02*
G75*
G02*
X152720000Y-75999952I2560000J-1544830D01*
G01*
X152720000Y-76000048D02*
G75*
G02*
X147170000Y-77544830I-2990000J48D01*
G01*
X152230000Y-76000000D02*
G75*
G02*
X147230000Y-76000000I-2500000J0D01*
G01*
X147230000Y-76000000D02*
G75*
G02*
X152230000Y-76000000I2500000J0D01*
G01*
D12*
%TO.C,U1*%
X115604853Y-64794784D02*
G75*
G02*
X115452453Y-64794784I-76200J0D01*
G01*
X115452453Y-64794784D02*
G75*
G02*
X115604853Y-64794784I76200J0D01*
G01*
X118150601Y-68150599D02*
X118150601Y-64899399D01*
X118150601Y-64899399D02*
X114899401Y-64899399D01*
X114899401Y-68150599D02*
X118150601Y-68150599D01*
X114899401Y-64899399D02*
X114899401Y-68150599D01*
D11*
%TO.C,R1*%
X156130000Y-54810000D02*
X156130000Y-61350000D01*
X156130000Y-61350000D02*
X158870000Y-61350000D01*
X157500000Y-54040000D02*
X157500000Y-54810000D01*
X157500000Y-62120000D02*
X157500000Y-61350000D01*
X158870000Y-54810000D02*
X156130000Y-54810000D01*
X158870000Y-61350000D02*
X158870000Y-54810000D01*
%TO.C,C2*%
X117380000Y-88130000D02*
X117380000Y-88445000D01*
X117380000Y-88130000D02*
X122620000Y-88130000D01*
X117380000Y-90555000D02*
X117380000Y-90870000D01*
X117380000Y-90870000D02*
X122620000Y-90870000D01*
X122620000Y-88130000D02*
X122620000Y-88445000D01*
X122620000Y-90555000D02*
X122620000Y-90870000D01*
%TO.C,R6*%
X137630000Y-54810000D02*
X137630000Y-61350000D01*
X137630000Y-61350000D02*
X140370000Y-61350000D01*
X139000000Y-54040000D02*
X139000000Y-54810000D01*
X139000000Y-62120000D02*
X139000000Y-61350000D01*
X140370000Y-54810000D02*
X137630000Y-54810000D01*
X140370000Y-61350000D02*
X140370000Y-54810000D01*
%TO.C,R2*%
X152630000Y-54810000D02*
X152630000Y-61350000D01*
X152630000Y-61350000D02*
X155370000Y-61350000D01*
X154000000Y-54040000D02*
X154000000Y-54810000D01*
X154000000Y-62120000D02*
X154000000Y-61350000D01*
X155370000Y-54810000D02*
X152630000Y-54810000D01*
X155370000Y-61350000D02*
X155370000Y-54810000D01*
%TO.C,D1*%
X151670000Y-66455000D02*
X151670000Y-69545000D01*
X151670000Y-66455170D02*
G75*
G02*
X157220000Y-67999952I2560000J-1544830D01*
G01*
X157220000Y-68000048D02*
G75*
G02*
X151670000Y-69544830I-2990000J48D01*
G01*
X156730000Y-68000000D02*
G75*
G02*
X151730000Y-68000000I-2500000J0D01*
G01*
X151730000Y-68000000D02*
G75*
G02*
X156730000Y-68000000I2500000J0D01*
G01*
%TO.C,R7*%
X117880000Y-83500000D02*
X118650000Y-83500000D01*
X118650000Y-82130000D02*
X118650000Y-84870000D01*
X118650000Y-84870000D02*
X125190000Y-84870000D01*
X125190000Y-82130000D02*
X118650000Y-82130000D01*
X125190000Y-84870000D02*
X125190000Y-82130000D01*
X125960000Y-83500000D02*
X125190000Y-83500000D01*
%TO.C,J7*%
X135940000Y-90500000D02*
X135940000Y-86440000D01*
X138060000Y-86440000D02*
X135940000Y-86440000D01*
X138060000Y-90500000D02*
X135940000Y-90500000D01*
X138060000Y-90500000D02*
X138060000Y-86440000D01*
X138060000Y-91500000D02*
X138060000Y-92560000D01*
X138060000Y-92560000D02*
X137000000Y-92560000D01*
%TO.C,J5*%
X160670000Y-52090000D02*
X162000000Y-52090000D01*
X160670000Y-53420000D02*
X160670000Y-52090000D01*
X160670000Y-54690000D02*
X160670000Y-67450000D01*
X160670000Y-54690000D02*
X163330000Y-54690000D01*
X160670000Y-67450000D02*
X163330000Y-67450000D01*
X163330000Y-54690000D02*
X163330000Y-67450000D01*
%TO.C,R3*%
X149130000Y-54810000D02*
X149130000Y-61350000D01*
X149130000Y-61350000D02*
X151870000Y-61350000D01*
X150500000Y-54040000D02*
X150500000Y-54810000D01*
X150500000Y-62120000D02*
X150500000Y-61350000D01*
X151870000Y-54810000D02*
X149130000Y-54810000D01*
X151870000Y-61350000D02*
X151870000Y-54810000D01*
%TO.C,C1*%
X123380000Y-63630000D02*
X123380000Y-63945000D01*
X123380000Y-63630000D02*
X128620000Y-63630000D01*
X123380000Y-66055000D02*
X123380000Y-66370000D01*
X123380000Y-66370000D02*
X128620000Y-66370000D01*
X128620000Y-63630000D02*
X128620000Y-63945000D01*
X128620000Y-66055000D02*
X128620000Y-66370000D01*
%TO.C,D5*%
X132170000Y-66455000D02*
X132170000Y-69545000D01*
X132170000Y-66455170D02*
G75*
G02*
X137720000Y-67999952I2560000J-1544830D01*
G01*
X137720000Y-68000048D02*
G75*
G02*
X132170000Y-69544830I-2990000J48D01*
G01*
X137230000Y-68000000D02*
G75*
G02*
X132230000Y-68000000I-2500000J0D01*
G01*
X132230000Y-68000000D02*
G75*
G02*
X137230000Y-68000000I2500000J0D01*
G01*
%TO.C,D3*%
X145170000Y-66455000D02*
X145170000Y-69545000D01*
X145170000Y-66455170D02*
G75*
G02*
X150720000Y-67999952I2560000J-1544830D01*
G01*
X150720000Y-68000048D02*
G75*
G02*
X145170000Y-69544830I-2990000J48D01*
G01*
X150230000Y-68000000D02*
G75*
G02*
X145230000Y-68000000I-2500000J0D01*
G01*
X145230000Y-68000000D02*
G75*
G02*
X150230000Y-68000000I2500000J0D01*
G01*
%TO.C,R5*%
X141630000Y-54810000D02*
X141630000Y-61350000D01*
X141630000Y-61350000D02*
X144370000Y-61350000D01*
X143000000Y-54040000D02*
X143000000Y-54810000D01*
X143000000Y-62120000D02*
X143000000Y-61350000D01*
X144370000Y-54810000D02*
X141630000Y-54810000D01*
X144370000Y-61350000D02*
X144370000Y-54810000D01*
%TO.C,D6*%
X131170000Y-56455000D02*
X131170000Y-59545000D01*
X131170000Y-56455170D02*
G75*
G02*
X136720000Y-57999952I2560000J-1544830D01*
G01*
X136720000Y-58000048D02*
G75*
G02*
X131170000Y-59544830I-2990000J48D01*
G01*
X136230000Y-58000000D02*
G75*
G02*
X131230000Y-58000000I-2500000J0D01*
G01*
X131230000Y-58000000D02*
G75*
G02*
X136230000Y-58000000I2500000J0D01*
G01*
%TO.C,D4*%
X138670000Y-66455000D02*
X138670000Y-69545000D01*
X138670000Y-66455170D02*
G75*
G02*
X144220000Y-67999952I2560000J-1544830D01*
G01*
X144220000Y-68000048D02*
G75*
G02*
X138670000Y-69544830I-2990000J48D01*
G01*
X143730000Y-68000000D02*
G75*
G02*
X138730000Y-68000000I-2500000J0D01*
G01*
X138730000Y-68000000D02*
G75*
G02*
X143730000Y-68000000I2500000J0D01*
G01*
%TO.C,R4*%
X145630000Y-54810000D02*
X145630000Y-61350000D01*
X145630000Y-61350000D02*
X148370000Y-61350000D01*
X147000000Y-54040000D02*
X147000000Y-54810000D01*
X147000000Y-62120000D02*
X147000000Y-61350000D01*
X148370000Y-54810000D02*
X145630000Y-54810000D01*
X148370000Y-61350000D02*
X148370000Y-54810000D01*
%TO.C,R8*%
X120880000Y-75500000D02*
X121650000Y-75500000D01*
X121650000Y-74130000D02*
X121650000Y-76870000D01*
X121650000Y-76870000D02*
X128190000Y-76870000D01*
X128190000Y-74130000D02*
X121650000Y-74130000D01*
X128190000Y-76870000D02*
X128190000Y-74130000D01*
X128960000Y-75500000D02*
X128190000Y-75500000D01*
%TO.C,J6*%
X157780000Y-73470000D02*
X159110000Y-73470000D01*
X157780000Y-74800000D02*
X157780000Y-73470000D01*
X157780000Y-76070000D02*
X157780000Y-88830000D01*
X157780000Y-76070000D02*
X160440000Y-76070000D01*
X157780000Y-88830000D02*
X160440000Y-88830000D01*
X160440000Y-76070000D02*
X160440000Y-88830000D01*
%TD*%
M02*
